<?xml version="1.0" standalone="no"?><!DOCTYPE svg PUBLIC "-//W3C//DTD SVG 1.1//EN" "http://www.w3.org/Graphics/SVG/1.1/DTD/svg11.dtd"><svg t="1551835463310" class="icon" style="" viewBox="0 0 1024 1024" version="1.1" xmlns="http://www.w3.org/2000/svg" p-id="1584" xmlns:xlink="http://www.w3.org/1999/xlink" width="200" height="200"><defs><style type="text/css"></style></defs><path d="M960 256H64c-35.2 0-64 28.8-64 64v576c0 35.2 28.8 64 64 64h896c35.2 0 64-28.8 64-64V320c0-35.2-28.8-64-64-64z" fill="#D2EBFA" p-id="1585"></path><path d="M57.6 924.8c-12.8 0-25.6-9.6-25.6-25.6V348.8c3.2-32 28.8-60.8 64-60.8h873.6c12.8 0 22.4 12.8 22.4 25.6s-9.6 25.6-25.6 25.6H96c-6.4 0-12.8 6.4-12.8 12.8v550.4c0 12.8-12.8 22.4-25.6 22.4z" fill="#8ABDE1" p-id="1586"></path><path d="M44.8 496h928c12.8 0 25.6 9.6 25.6 22.4 0 12.8-9.6 25.6-25.6 25.6h-928M643.2 144c25.6 0 44.8 19.2 44.8 44.8v83.2h-288V188.8c0-25.6 19.2-44.8 44.8-44.8h198.4m0-48h-201.6C393.6 96 352 137.6 352 188.8V320h384V188.8C736 137.6 694.4 96 643.2 96z" fill="#8ABDE1" p-id="1587"></path><path d="M960 304c9.6 0 16 6.4 16 16v576c0 9.6-6.4 16-16 16H64c-9.6 0-16-6.4-16-16V320c0-9.6 6.4-16 16-16h896M960 256H64c-35.2 0-64 28.8-64 64v576c0 35.2 28.8 64 64 64h896c35.2 0 64-28.8 64-64V320c0-35.2-28.8-64-64-64z" fill="#0C5EA8" p-id="1588"></path><path d="M611.2 112c25.6 0 44.8 19.2 44.8 44.8v83.2h-288V156.8c0-25.6 19.2-44.8 44.8-44.8h198.4m0-48h-201.6C361.6 64 320 105.6 320 156.8V288h384V156.8C704 105.6 662.4 64 611.2 64zM44.8 473.6h937.6v48H44.8z" fill="#0C5EA8" p-id="1589"></path><path d="M464 608c-9.6 0-16-6.4-16-16v-160c0-9.6 6.4-16 16-16h96c9.6 0 16 6.4 16 16v160c0 9.6-6.4 16-16 16h-96z" fill="#E5F4FA" p-id="1590"></path><path d="M560 432v160h-96v-160h96m0-32h-96c-19.2 0-32 16-32 32v160c0 16 12.8 32 32 32h96c19.2 0 32-16 32-32v-160c0-16-12.8-32-32-32z" fill="#132C55" p-id="1591"></path></svg>