<?xml version="1.0" standalone="no"?><!DOCTYPE svg PUBLIC "-//W3C//DTD SVG 1.1//EN" "http://www.w3.org/Graphics/SVG/1.1/DTD/svg11.dtd"><svg t="1550647812390" class="icon" style="" viewBox="0 0 1024 1024" version="1.1" xmlns="http://www.w3.org/2000/svg" p-id="3672" xmlns:xlink="http://www.w3.org/1999/xlink" width="200" height="200"><defs><style type="text/css"></style></defs><path d="M944 896h-112V544a320 320 0 0 0-640 0v352H80a16 16 0 0 0-16 16v64a16 16 0 0 0 16 16h864a16 16 0 0 0 16-16v-64a16 16 0 0 0-16-16z" fill="#d81e06" p-id="3673" data-spm-anchor-id="a313x.7781069.0.i23" class="selected"></path><path d="M464 32l96 0 0 128-96 0 0-128Z" fill="#d81e06" p-id="3674" data-spm-anchor-id="a313x.7781069.0.i26" class="selected"></path><path d="M214.490073 124.635656l83.138439-48 64 110.851252-83.138439 48-64-110.851252Z" fill="#d81e06" p-id="3675" data-spm-anchor-id="a313x.7781069.0.i25" class="selected"></path><path d="M44.500805 329.537794l48-83.138439 110.851252 64-48 83.138439-110.851252-64Z" fill="#d81e06" p-id="3676" data-spm-anchor-id="a313x.7781069.0.i24" class="selected"></path><path d="M820.641513 310.361345l110.851251-64 48 83.138438-110.851251 64-48-83.138438Z" fill="#d81e06" p-id="3677" data-spm-anchor-id="a313x.7781069.0.i28" class="selected"></path><path d="M662.335355 187.388344l64-110.851252 83.138439 48-64 110.851252-83.138439-48Z" fill="#d81e06" p-id="3678" data-spm-anchor-id="a313x.7781069.0.i27" class="selected"></path><path d="M638.72 528h-101.6l19.04-132.96a8 8 0 0 0-13.92-6.24L379.2 578.88a8 8 0 0 0 6.08 13.12h101.6l-19.04 132.96a8 8 0 0 0 13.92 6.24L644.8 541.12a8 8 0 0 0-6.08-13.12z" fill="#FFFFFF" p-id="3679"></path></svg>