<?xml version="1.0" standalone="no"?><!DOCTYPE svg PUBLIC "-//W3C//DTD SVG 1.1//EN" "http://www.w3.org/Graphics/SVG/1.1/DTD/svg11.dtd"><svg t="1551864368224" class="icon" style="" viewBox="0 0 1024 1024" version="1.1" xmlns="http://www.w3.org/2000/svg" p-id="92759" xmlns:xlink="http://www.w3.org/1999/xlink" width="200" height="200"><defs><style type="text/css"></style></defs><path d="M0 63.764162A63.95603 63.95603 0 0 1 63.764162 0H374.782337a63.95603 63.95603 0 0 1 63.764162 63.764162V374.782337a63.95603 63.95603 0 0 1-63.764162 63.764162H63.764162A63.95603 63.95603 0 0 1 0 374.782337V63.764162z m584.749984 584.813941a63.95603 63.95603 0 0 1 63.828119-63.828119h310.954219a63.95603 63.95603 0 0 1 63.764162 63.828119v310.954219a63.828118 63.828118 0 0 1-63.764162 63.764162h-310.954219a63.95603 63.95603 0 0 1-63.828119-63.764162v-310.954219z m-584.749984 0a63.95603 63.95603 0 0 1 63.764162-63.828119H374.782337a63.95603 63.95603 0 0 1 63.764162 63.828119v310.954219A63.95603 63.95603 0 0 1 374.782337 1023.296484H63.764162A63.828118 63.828118 0 0 1 0 959.532322v-310.954219z" fill="#0091FB" p-id="92760"></path><path d="M803.991256 0a219.241272 219.241272 0 1 1 0 438.546499 219.305228 219.305228 0 0 1-219.305228-219.241271A219.369184 219.369184 0 0 1 803.991256 0z" fill="#94D2FF" p-id="92761"></path></svg>