<?xml version="1.0" standalone="no"?><!DOCTYPE svg PUBLIC "-//W3C//DTD SVG 1.1//EN" "http://www.w3.org/Graphics/SVG/1.1/DTD/svg11.dtd"><svg t="1551330561958" class="icon" style="" viewBox="0 0 1024 1024" version="1.1" xmlns="http://www.w3.org/2000/svg" p-id="7469" xmlns:xlink="http://www.w3.org/1999/xlink" width="200" height="200"><defs><style type="text/css"></style></defs><path d="M870.034286 653.531429h-47.908572a53.394286 53.394286 0 0 1 53.394286 53.76v200.777142a53.394286 53.394286 0 0 1-53.394286 53.394286h47.908572a53.76 53.76 0 0 0 53.394285-53.394286v-200.777142a53.76 53.76 0 0 0-53.394285-53.76z" fill="#C5F1FF" p-id="7470"></path><path d="M360.594286 123.611429l307.931428 0 0 307.931428-307.931428 0 0-307.931428Z" fill="#C5F1FF" p-id="7471"></path><path d="M888.32 634.514286h-76.8v-55.954286A67.657143 67.657143 0 0 0 744.96 512h-203.337143v-55.954286h73.142857A78.262857 78.262857 0 0 0 694.857143 377.782857V177.005714a78.262857 78.262857 0 0 0-79.725714-78.262857h-200.777143a78.262857 78.262857 0 0 0-78.262857 78.262857v200.777143a78.262857 78.262857 0 0 0 78.262857 78.262857h73.142857V512H284.16A67.291429 67.291429 0 0 0 219.428571 578.56v55.954286H152.868571a73.142857 73.142857 0 0 0-73.142857 73.142857v192a73.142857 73.142857 0 0 0 73.142857 73.142857h191.268572a73.142857 73.142857 0 0 0 73.142857-73.142857v-190.902857a73.142857 73.142857 0 0 0-73.142857-73.142857h-73.142857v-57.051429a14.628571 14.628571 0 0 1 13.531428-15.36h460.8a14.994286 14.994286 0 0 1 13.897143 15.36v55.954286h-62.171428a73.142857 73.142857 0 0 0-73.142858 73.142857v192a73.142857 73.142857 0 0 0 73.142858 73.142857h191.268571a73.142857 73.142857 0 0 0 73.142857-73.142857v-190.902857a73.142857 73.142857 0 0 0-73.142857-74.24z m-502.857143-256V177.005714a28.891429 28.891429 0 0 1 28.891429-28.891428h200.777143a28.891429 28.891429 0 0 1 28.891428 28.891428v200.777143a29.257143 29.257143 0 0 1-28.891428 28.891429h-200.777143a28.891429 28.891429 0 0 1-28.891429-28.891429z m-14.262857 329.142857v192a27.428571 27.428571 0 0 1-27.062857 27.428571H152.868571a27.428571 27.428571 0 0 1-27.062857-27.428571v-190.902857a27.428571 27.428571 0 0 1 27.062857-27.428572h191.268572a27.428571 27.428571 0 0 1 27.062857 27.428572zM914.285714 899.657143a27.428571 27.428571 0 0 1-27.062857 27.428571h-190.171428a27.428571 27.428571 0 0 1-27.062858-27.428571v-190.902857a27.428571 27.428571 0 0 1 27.062858-27.428572h191.268571a27.428571 27.428571 0 0 1 27.062857 27.428572z" fill="#37A8E0" p-id="7472"></path></svg>