<?xml version="1.0" standalone="no"?><!DOCTYPE svg PUBLIC "-//W3C//DTD SVG 1.1//EN" "http://www.w3.org/Graphics/SVG/1.1/DTD/svg11.dtd"><svg t="1552379543501" class="icon" style="" viewBox="0 0 1024 1024" version="1.1" xmlns="http://www.w3.org/2000/svg" p-id="4920" xmlns:xlink="http://www.w3.org/1999/xlink" width="200" height="200"><defs><style type="text/css"></style></defs><path d="M648.5942853125 493.4857146875l78.5828578125-78.5828578125c19.6114284375 6.582856875 39.36 13.1657146875 58.971428437499995 13.1657146875 104.77714312500001 0 183.36-85.1657146875 183.36-183.36 0-26.1942853125-6.582856875-52.388571562500005-19.6114284375-78.582856875L871.3142853125 244.57142843749995c-13.1657146875 13.1657146875-26.1942853125 19.6114284375-45.80571375 19.6114284375-32.777143125 0-58.971428437499995-26.1942853125-58.971428437499995-58.971428437499995 0-19.6114284375 6.582856875-32.777143125 19.6114284375-45.80571375l78.582856875-78.5828578125C838.5371431250001 67.657143125 812.342856875 61.21142843749999 786.1485715625 61.21142843749999c-104.77714312500001 0-183.36 85.1657146875-183.36 183.36 0 19.6114284375 6.582856875 39.36 13.16571375 58.971428437499995l-91.748570625 85.1657146875c-13.1657146875 0-19.6114284375-6.582856875-32.777143125-6.582856875-26.1942853125 0-45.8057146875 6.582856875-65.55428625 19.6114284375L222.7657146875 192.18285687500003l26.1942853125-26.1942853125c6.582856875-6.582856875 6.582856875-6.582856875 6.582856875-13.1657146875s-6.582856875-13.1657146875-13.16571375-19.6114284375l-117.94285781250001-72h-13.16571375c-6.582856875 0-13.1657146875 0-13.1657146875 6.582856875L59.01714312500002 107.01714312499996c-6.582856875 0-6.582856875 6.582856875-6.5828578125 13.16571375v13.1657146875l72 124.52571375c6.582856875 6.582856875 13.1657146875 13.1657146875 19.611429375 13.1657146875 6.582856875 0 13.1657146875 0 13.16571375-6.582856875l26.19428625-39.36 203.108570625 216.13714218750002c-13.1657146875 19.6114284375-19.6114284375 39.36-19.6114284375 65.55428625v26.1942853125L78.62857156249999 801.3714284375001c-19.6114284375 19.6114284375-26.1942853125 45.8057146875-26.19428625 72 0 58.971428437499995 45.8057146875 104.77714312500001 104.77714312500001 104.77714312500001 26.1942853125 0 58.971428437499995-6.582856875 78.582856875-26.19428625l255.49714312499998-275.10857062499997L759.817143125 945.3714284375001c19.6114284375 19.6114284375 52.388571562500005 32.777143125 85.16571375000001 32.777143125 65.5542853125 0 124.5257146875-52.388571562500005 124.5257146875-124.5257146875 0-32.777143125-13.1657146875-65.5542853125-32.777143125-85.16571375000001L648.5942853125 493.4857146875M144.18285687500003 198.7657146875L104.82285687499996 126.62857156249999l13.1657146875-19.6114284375 72 45.80571375-45.8057146875 45.9428578125m622.217143125-91.7485715625L746.7885715625 126.62857156249999c-45.8057146875 45.8057146875-39.36 111.36 6.582856875 157.16571375 45.8057146875 45.8057146875 111.36 52.388571562500005 157.16571468749999 6.5828578125l26.1942853125-26.19428625c-19.6114284375 72-72 117.94285687499999-137.55428531249999 117.94285781250001-19.6114284375 0-32.777143125 0-52.388571562500005-6.5828578125-6.582856875 0-6.582856875-6.582856875-13.1657146875-6.582856875-26.1942853125-13.1657146875-45.8057146875-32.777143125-58.971428437499995-58.971428437499995 0-6.582856875-6.582856875-6.582856875-6.582856875-13.1657146875-6.582856875-13.1657146875-6.582856875-32.777143125-6.582856875-52.388571562500005-12.8914284375-78.4457146875 45.942856875-137.417143125 104.9142853125-137.4171421875z m-130.97142843749998 235.88571374999998c13.1657146875 19.6114284375 26.1942853125 32.777143125 45.80571375 45.8057146875l-65.5542853125 72-52.388571562500005-52.388571562500005 72.137143125-65.417143125M196.5714284375 912.7314284375c-13.1657146875 13.1657146875-26.1942853125 19.6114284375-45.80571375 19.6114284375-32.777143125 0-52.388571562500005-19.6114284375-52.388571562500005-52.388571562500005 0-19.6114284375 6.582856875-32.777143125 19.6114284375-45.80571375l275.1085715625-255.49714312499998 13.16571375 13.1657146875 45.8057146875 45.80571375L196.5714284375 912.7314284375m641.9657146874999 13.1657146875c-19.6114284375 0-39.36-6.582856875-52.388571562500005-19.6114284375L445.4857146875 565.622856875c-6.582856875-6.582856875-13.1657146875-13.1657146875-13.1657146875-19.6114284375v-39.36c6.582856875-32.777143125 32.777143125-58.971428437499995 65.5542853125-65.5542853125H517.4857146875c6.582856875 0 13.1657146875 6.582856875 19.6114284375 6.582856875 6.582856875 0 6.582856875 6.582856875 13.16571375 13.1657146875l52.388571562500005 52.388570625 26.19428625 26.19428625 262.08000000000004 261.94285687499996c13.1657146875 13.1657146875 19.6114284375 32.777143125 19.6114284375 52.388571562500005 0 39.36-32.777143125 72.137143125-72 72.137143125z m13.0285715625-85.1657146875l-202.971429375-203.1085715625c-6.582856875-6.582856875-6.582856875-6.582856875-13.16571375-6.582856875-13.1657146875 0-19.6114284375 13.1657146875-19.6114284375 26.1942853125 0 6.582856875 0 13.1657146875 6.582856875 13.1657146875l203.1085715625 203.1085715625c6.582856875 6.582856875 6.582856875 6.582856875 13.16571375 6.582856875 13.1657146875 0 19.6114284375-13.1657146875 19.611429375-26.1942853125-0.137143125-6.582856875-0.137143125-13.1657146875-6.72-13.1657146875m-700.937143125 13.0285715625c-13.1657146875 0-26.1942853125 13.1657146875-26.19428625 26.1942853125s13.1657146875 26.1942853125 26.19428625 26.19428625c13.1657146875 0 26.1942853125-13.1657146875 26.1942853125-26.19428625 0-19.6114284375-13.0285715625-26.1942853125-26.1942853125-26.1942853125z m0 0" fill="#1296db" p-id="4921"></path></svg>