<?xml version="1.0" encoding="utf-8"?>
<!-- Generator: Adobe Illustrator 14.0.0, SVG Export Plug-In . SVG Version: 6.00 Build 43363)  -->
<!DOCTYPE svg PUBLIC "-//W3C//DTD SVG 1.1//EN" "http://www.w3.org/Graphics/SVG/1.1/DTD/svg11.dtd">
<svg version="1.1" id="图层_1" xmlns="http://www.w3.org/2000/svg" xmlns:xlink="http://www.w3.org/1999/xlink" x="0px" y="0px"
	 width="36px" height="36px" viewBox="0 0 36 36" enable-background="new 0 0 36 36" xml:space="preserve">
<path fill="#00D8FF" d="M36,20.376c0,4.651-3.859,8.424-8.617,8.424H6.511C2.914,28.8,0,25.949,0,22.434
	c0-3.512,2.914-6.363,6.511-6.363c0.263,0,0.518,0.021,0.772,0.049c-0.066-0.443-0.103-0.896-0.103-1.361
	c0-5.168,4.286-9.358,9.576-9.358c4.333,0,7.99,2.812,9.173,6.673c0.473-0.078,0.957-0.119,1.455-0.119
	C32.141,11.954,36,15.721,36,20.376z"/>
</svg>
