<?xml version="1.0" encoding="utf-8"?>
<!-- Generator: Adobe Illustrator 14.0.0, SVG Export Plug-In . SVG Version: 6.00 Build 43363)  -->
<!DOCTYPE svg PUBLIC "-//W3C//DTD SVG 1.1//EN" "http://www.w3.org/Graphics/SVG/1.1/DTD/svg11.dtd">
<svg version="1.1" id="图层_1" xmlns="http://www.w3.org/2000/svg" xmlns:xlink="http://www.w3.org/1999/xlink" x="0px" y="0px"
	 width="36px" height="36px" viewBox="0 0 36 36" enable-background="new 0 0 36 36" xml:space="preserve">
<g id="图层_1_1_" display="none">
	<path display="inline" fill="#00D8FF" d="M34,36H9V26h27v8C36,35.104,35.104,36,34,36z M20,13h16v10H20V13z M11,0h23
		c1.104,0,2,0.896,2,2v8H11V0z M0,2c0-1.104,0.896-2,2-2h7v10H0V2z M18,23H0V13h18V23z M7,36H2c-1.104,0-2-0.896-2-2v-8h7V36z"/>
</g>
<g id="图层_2">
	<path fill="#00D8FF" d="M29.667,33H6.333C4.493,33,3,31.508,3,29.667V6.333C3,4.493,4.493,3,6.333,3h23.333
		C31.508,3,33,4.493,33,6.333v23.333C33,31.508,31.508,33,29.667,33z M31.333,7.167c0-1.381-1.118-2.5-2.5-2.5H7.167
		c-1.381,0-2.5,1.119-2.5,2.5v21.667c0,1.381,1.119,2.5,2.5,2.5h21.667c1.382,0,2.5-1.119,2.5-2.5V7.167z M26.333,13
		c0,0-1.907-0.007-3.333,0c-1.199,0.006-1.76,0.173-2.151,0.849c-0.413,0.711-0.925,1.62-0.925,1.62l-1.003-1.503
		c0,0,0.595-1.016,1.066-1.778c0.403-0.65,1.102-0.854,2.18-0.854c1.674,0,4.166,0,4.166,0V8.631l3.535,3.536l-3.535,3.536V13z
		 M23.833,23c1.475,0,3.594,0,5,0c0.831,0,0.834,0.006,0.834,0.804c0,0.858-0.012,0.863-0.834,0.863c-1.532,0-3.464,0-5,0
		c-0.581,0-2.623-0.227-2.969-0.824c-1.38-2.396-5.279-9.287-5.655-9.893C14.896,13.445,14.642,13,13,13c-1.438,0-3.333,0-3.333,0
		v2.703l-3.536-3.536l3.536-3.536v2.703c0,0,1.727,0,3.333,0c1.673,0,2.622,0.281,2.985,0.849c0.727,1.077,4.316,7.603,5.697,9.948
		C22.134,22.899,22.526,23,23.833,23z M8,23c1.15,0,3.445,0.039,4.788,0c0.443-0.013,1.22-0.29,1.578-0.93
		c0.662-1.191,1.756-3.076,1.756-3.076l0.933,1.494c0,0-0.989,1.791-1.721,3.012c-0.511,0.853-1.55,1.167-2.754,1.167
		c-1.525,0-3.223,0-4.546,0c-0.855,0-0.866-0.003-0.866-0.834C7.167,23.018,7.18,23,8,23z"/>
</g>
</svg>
