<?xml version="1.0" encoding="utf-8"?>
<!-- Generator: Adobe Illustrator 14.0.0, SVG Export Plug-In . SVG Version: 6.00 Build 43363)  -->
<!DOCTYPE svg PUBLIC "-//W3C//DTD SVG 1.1//EN" "http://www.w3.org/Graphics/SVG/1.1/DTD/svg11.dtd">
<svg version="1.1" id="图层_1" xmlns="http://www.w3.org/2000/svg" xmlns:xlink="http://www.w3.org/1999/xlink" x="0px" y="0px"
	 width="36px" height="36px" viewBox="0 0 36 36" enable-background="new 0 0 36 36" xml:space="preserve">
<g id="图层_1_1_" display="none">
	<path display="inline" fill="#00D8FF" d="M34,36H9V26h27v8C36,35.104,35.104,36,34,36z M20,13h16v10H20V13z M11,0h23
		c1.104,0,2,0.896,2,2v8H11V0z M0,2c0-1.104,0.896-2,2-2h7v10H0V2z M18,23H0V13h18V23z M7,36H2c-1.104,0-2-0.896-2-2v-8h7V36z"/>
</g>
<g id="图层_2" display="none">
	<path display="inline" fill="#00D8FF" d="M32,36H4c-2.209,0-4-1.791-4-4V4c0-2.209,1.791-4,4-4h28c2.209,0,4,1.791,4,4v28
		C36,34.209,34.209,36,32,36z M34,5c0-1.657-1.343-3-3-3H5C3.343,2,2,3.343,2,5v26c0,1.656,1.343,3,3,3h26c1.657,0,3-1.344,3-3V5z
		 M28,12c0,0-2.289-0.009-4,0c-1.439,0.008-2.111,0.208-2.582,1.018c-0.495,0.854-1.109,1.944-1.109,1.944l-1.203-1.804
		c0,0,0.713-1.219,1.279-2.133C20.869,10.245,21.707,10,23,10c2.009,0,5,0,5,0V6.757L32.242,11L28,15.243V12z M25,24
		c1.77,0,4.313,0,6,0c0.997,0,1,0.007,1,0.965C32,25.994,31.986,26,31,26c-1.839,0-4.157,0-6,0c-0.698,0-3.148-0.271-3.563-0.988
		c-1.656-2.876-6.335-11.145-6.787-11.872C14.275,12.534,13.97,12,12,12c-1.726,0-4,0-4,0v3.243L3.757,11L8,6.757V10
		c0,0,2.072,0,4,0c2.008,0,3.146,0.337,3.582,1.019c0.872,1.293,5.179,9.124,6.836,11.938C22.961,23.879,23.432,24,25,24z M6,24
		c1.38,0,4.134,0.047,5.745,0c0.532-0.016,1.464-0.348,1.893-1.115c0.795-1.43,2.108-3.691,2.108-3.691l1.119,1.793
		c0,0-1.187,2.148-2.065,3.613c-0.613,1.023-1.86,1.4-3.305,1.4c-1.83,0-3.868,0-5.456,0C5.013,26,5,25.997,5,25
		C5,24.021,5.016,24,6,24z"/>
</g>
<g id="图层_3" display="none">
	<path display="inline" fill="#00D8FF" d="M32,36H4c-2.209,0-4-1.791-4-4V4c0-2.209,1.791-4,4-4h28c2.209,0,4,1.791,4,4v28
		C36,34.209,34.209,36,32,36z M34,5c0-1.657-1.344-3-3-3H5C3.343,2,2,3.343,2,5v26c0,1.656,1.343,3,3,3h26c1.656,0,3-1.344,3-3V5z
		 M28,19h-4l0,0h-1.102c-0.396,1.958-1.941,3.492-3.898,3.891V24l0,0v4h4l-5,4l-5-4h4v-5l0,0v-0.109
		c-1.957-0.397-3.502-1.933-3.899-3.891H12l0,0H8v4l-4-5l4-5v4h5h0.101c0.397-1.958,1.942-3.492,3.899-3.891V13l0,0V8h-4l5-4l5,4h-4
		v4l0,0v1.109c1.957,0.398,3.502,1.933,3.898,3.891H23l0,0h5v-4l4,5l-4,5V19z M18,15c-1.657,0-3,1.344-3,3s1.343,3,3,3
		c1.656,0,3-1.344,3-3S19.656,15,18,15z"/>
</g>
<g id="图层_4">
	<path fill="#00D8FF" d="M32.998,27.167c0,1.727-0.25,2.625-1.729,3.39C29.4,31.523,24.585,33,17.941,33
		c-6.613,0-11.039-1.475-13.262-2.463c-0.004-0.001-0.008-0.003-0.011-0.005c-1.259-0.625-1.667-1.993-1.667-3.365
		c0-4.37,0-14.906,0-19.168c0-0.277,0.011-0.546,0.062-0.808C3.034,7.181,3,7.167,3,7.167l0.067,0.002C2.846,8.253,2.473,3,17.889,3
		c15.832,0,15.106,4.979,15.106,5h0.003l-0.003,0.001c0.001,0.025,0.003,0.052,0.003,0.076
		C32.998,12.423,32.998,22.881,32.998,27.167z M6.334,28.866c0.004,0.001,0.008,0.003,0.012,0.005
		c2.223,0.987,5.042,2.202,11.654,2.202c6.646,0,9.734-1.215,11.603-2.183c1.479-0.766,1.729-1.663,1.729-3.39
		c0-0.517,0-0.908,0-1.497c0,0.194-3.685,3.203-13.338,3.164C8,27.126,4.667,24.146,4.667,24.146c0,0.589,0,0.837,0,1.354
		C4.667,26.872,5.074,28.241,6.334,28.866z M31.328,10.008C31.299,10.038,27.952,13,17.994,13C8,13,4.667,10.201,4.667,10.201
		c0,1.412,0,3.347,0,5.195c0,0,3.333,3.333,13.327,3.333c10.005,0,13.338-3.333,13.338-3.333
		C31.332,14.728,31.328,12.168,31.328,10.008z M17.994,20.396c-9.993,0-13.327-2.981-13.327-3.072c0,1.97,0,3.001,0,4.845
		c0,0,3.333,3.333,13.327,3.333c10.005,0,13.338-3.333,13.338-3.333c0-1.842,0-2.721,0-4.701
		C31.332,17.466,27.999,20.396,17.994,20.396z M18,4.928c-16.382,0-16.294,5.625,0,6.094C32.479,11.438,35.291,4.928,18,4.928z"/>
</g>
</svg>
