<?xml version="1.0" encoding="utf-8"?>
<!-- Generator: Adobe Illustrator 14.0.0, SVG Export Plug-In . SVG Version: 6.00 Build 43363)  -->
<!DOCTYPE svg PUBLIC "-//W3C//DTD SVG 1.1//EN" "http://www.w3.org/Graphics/SVG/1.1/DTD/svg11.dtd">
<svg version="1.1" id="图层_1" xmlns="http://www.w3.org/2000/svg" xmlns:xlink="http://www.w3.org/1999/xlink" x="0px" y="0px"
	 width="36px" height="36px" viewBox="0 0 36 36" enable-background="new 0 0 36 36" xml:space="preserve">
<path fill="#00D8FF" d="M31.333,33H10.5v-8.333H33v6.666C33,32.253,32.253,33,31.333,33z M19.667,13.833H33v8.333H19.667V13.833z
	 M12.167,3h19.167C32.253,3,33,3.747,33,4.667v6.667H12.167V3z M3,4.667C3,3.747,3.747,3,4.667,3H10.5v8.333H3V4.667z M18,22.167H3
	v-8.333h15V22.167z M8.833,33H4.667C3.747,33,3,32.253,3,31.333v-6.666h5.833V33z"/>
</svg>
