<?xml version="1.0" encoding="utf-8"?>
<!-- Generator: Adobe Illustrator 14.0.0, SVG Export Plug-In . SVG Version: 6.00 Build 43363)  -->
<!DOCTYPE svg PUBLIC "-//W3C//DTD SVG 1.1//EN" "http://www.w3.org/Graphics/SVG/1.1/DTD/svg11.dtd">
<svg version="1.1" id="图层_1" xmlns="http://www.w3.org/2000/svg" xmlns:xlink="http://www.w3.org/1999/xlink" x="0px" y="0px"
	 width="36px" height="36px" viewBox="0 0 36 36" enable-background="new 0 0 36 36" xml:space="preserve">
<g id="图层_1_1_" display="none">
	<path display="inline" fill="#00D8FF" d="M34,36H9V26h27v8C36,35.104,35.104,36,34,36z M20,13h16v10H20V13z M11,0h23
		c1.104,0,2,0.896,2,2v8H11V0z M0,2c0-1.104,0.896-2,2-2h7v10H0V2z M18,23H0V13h18V23z M7,36H2c-1.104,0-2-0.896-2-2v-8h7V36z"/>
</g>
<g id="图层_2" display="none">
	<path display="inline" fill="#00D8FF" d="M32,36H4c-2.209,0-4-1.791-4-4V4c0-2.209,1.791-4,4-4h28c2.209,0,4,1.791,4,4v28
		C36,34.209,34.209,36,32,36z M34,5c0-1.657-1.343-3-3-3H5C3.343,2,2,3.343,2,5v26c0,1.656,1.343,3,3,3h26c1.657,0,3-1.344,3-3V5z
		 M28,12c0,0-2.289-0.009-4,0c-1.439,0.008-2.111,0.208-2.582,1.018c-0.495,0.854-1.109,1.944-1.109,1.944l-1.203-1.804
		c0,0,0.713-1.219,1.279-2.133C20.869,10.245,21.707,10,23,10c2.009,0,5,0,5,0V6.757L32.242,11L28,15.243V12z M25,24
		c1.77,0,4.313,0,6,0c0.997,0,1,0.007,1,0.965C32,25.994,31.986,26,31,26c-1.839,0-4.157,0-6,0c-0.698,0-3.148-0.271-3.563-0.988
		c-1.656-2.876-6.335-11.145-6.787-11.872C14.275,12.534,13.97,12,12,12c-1.726,0-4,0-4,0v3.243L3.757,11L8,6.757V10
		c0,0,2.072,0,4,0c2.008,0,3.146,0.337,3.582,1.019c0.872,1.293,5.179,9.124,6.836,11.938C22.961,23.879,23.432,24,25,24z M6,24
		c1.38,0,4.134,0.047,5.745,0c0.532-0.016,1.464-0.348,1.893-1.115c0.795-1.43,2.108-3.691,2.108-3.691l1.119,1.793
		c0,0-1.187,2.148-2.065,3.613c-0.613,1.023-1.86,1.4-3.305,1.4c-1.83,0-3.868,0-5.456,0C5.013,26,5,25.997,5,25
		C5,24.021,5.016,24,6,24z"/>
</g>
<g id="图层_3">
	<path fill="#00D8FF" d="M29.667,33H6.333C4.493,33,3,31.508,3,29.667V6.333C3,4.493,4.493,3,6.333,3h23.333
		C31.508,3,33,4.493,33,6.333v23.333C33,31.508,31.508,33,29.667,33z M31.333,7.167c0-1.381-1.119-2.5-2.5-2.5H7.167
		c-1.381,0-2.5,1.119-2.5,2.5v21.667c0,1.381,1.119,2.5,2.5,2.5h21.667c1.381,0,2.5-1.119,2.5-2.5V7.167z M26.333,18.833H23l0,0
		h-0.918c-0.33,1.632-1.618,2.91-3.249,3.242V23l0,0v3.333h3.334L18,29.667l-4.167-3.334h3.333v-4.166l0,0v-0.092
		c-1.631-0.331-2.918-1.61-3.249-3.242H13l0,0H9.667v3.334L6.333,18l3.333-4.167v3.333h4.167h0.084
		c0.331-1.631,1.618-2.91,3.249-3.243v-0.09l0,0V9.667h-3.333L18,6.333l4.167,3.333h-3.334V13l0,0v0.924
		c1.631,0.332,2.919,1.611,3.249,3.243h0.085l0,0h4.166v-3.333L29.667,18l-3.334,4.167V18.833z M18,15.5c-1.381,0-2.5,1.12-2.5,2.5
		c0,1.38,1.119,2.5,2.5,2.5c1.38,0,2.5-1.12,2.5-2.5C20.5,16.62,19.38,15.5,18,15.5z"/>
</g>
</svg>
