<?xml version="1.0" encoding="utf-8"?>
<!-- Generator: Adobe Illustrator 14.0.0, SVG Export Plug-In . SVG Version: 6.00 Build 43363)  -->
<!DOCTYPE svg PUBLIC "-//W3C//DTD SVG 1.1//EN" "http://www.w3.org/Graphics/SVG/1.1/DTD/svg11.dtd">
<svg version="1.1" id="图层_1" xmlns="http://www.w3.org/2000/svg" xmlns:xlink="http://www.w3.org/1999/xlink" x="0px" y="0px"
	 width="36px" height="36px" viewBox="0 0 36 36" enable-background="new 0 0 36 36" xml:space="preserve">
<g id="图层_1_1_" display="none">
	<path display="inline" fill="#00D8FF" d="M34,36H9V26h27v8C36,35.104,35.104,36,34,36z M20,13h16v10H20V13z M11,0h23
		c1.104,0,2,0.896,2,2v8H11V0z M0,2c0-1.104,0.896-2,2-2h7v10H0V2z M18,23H0V13h18V23z M7,36H2c-1.104,0-2-0.896-2-2v-8h7V36z"/>
</g>
<g id="图层_2" display="none">
	<path display="inline" fill="#00D8FF" d="M32,36H4c-2.209,0-4-1.791-4-4V4c0-2.209,1.791-4,4-4h28c2.209,0,4,1.791,4,4v28
		C36,34.209,34.209,36,32,36z M34,5c0-1.657-1.343-3-3-3H5C3.343,2,2,3.343,2,5v26c0,1.656,1.343,3,3,3h26c1.657,0,3-1.344,3-3V5z
		 M28,12c0,0-2.289-0.009-4,0c-1.439,0.008-2.111,0.208-2.582,1.018c-0.495,0.854-1.109,1.944-1.109,1.944l-1.203-1.804
		c0,0,0.713-1.219,1.279-2.133C20.869,10.245,21.707,10,23,10c2.009,0,5,0,5,0V6.757L32.242,11L28,15.243V12z M25,24
		c1.77,0,4.313,0,6,0c0.997,0,1,0.007,1,0.965C32,25.994,31.986,26,31,26c-1.839,0-4.157,0-6,0c-0.698,0-3.148-0.271-3.563-0.988
		c-1.656-2.876-6.335-11.145-6.787-11.872C14.275,12.534,13.97,12,12,12c-1.726,0-4,0-4,0v3.243L3.757,11L8,6.757V10
		c0,0,2.072,0,4,0c2.008,0,3.146,0.337,3.582,1.019c0.872,1.293,5.179,9.124,6.836,11.938C22.961,23.879,23.432,24,25,24z M6,24
		c1.38,0,4.134,0.047,5.745,0c0.532-0.016,1.464-0.348,1.893-1.115c0.795-1.43,2.108-3.691,2.108-3.691l1.119,1.793
		c0,0-1.187,2.148-2.065,3.613c-0.613,1.023-1.86,1.4-3.305,1.4c-1.83,0-3.868,0-5.456,0C5.013,26,5,25.997,5,25
		C5,24.021,5.016,24,6,24z"/>
</g>
<g id="图层_3" display="none">
	<path display="inline" fill="#00D8FF" d="M32,36H4c-2.209,0-4-1.791-4-4V4c0-2.209,1.791-4,4-4h28c2.209,0,4,1.791,4,4v28
		C36,34.209,34.209,36,32,36z M34,5c0-1.657-1.344-3-3-3H5C3.343,2,2,3.343,2,5v26c0,1.656,1.343,3,3,3h26c1.656,0,3-1.344,3-3V5z
		 M28,19h-4l0,0h-1.102c-0.396,1.958-1.941,3.492-3.898,3.891V24l0,0v4h4l-5,4l-5-4h4v-5l0,0v-0.109
		c-1.957-0.397-3.502-1.933-3.899-3.891H12l0,0H8v4l-4-5l4-5v4h5h0.101c0.397-1.958,1.942-3.492,3.899-3.891V13l0,0V8h-4l5-4l5,4h-4
		v4l0,0v1.109c1.957,0.398,3.502,1.933,3.898,3.891H23l0,0h5v-4l4,5l-4,5V19z M18,15c-1.657,0-3,1.344-3,3s1.343,3,3,3
		c1.656,0,3-1.344,3-3S19.656,15,18,15z"/>
</g>
<g id="图层_4" display="none">
	<path display="inline" fill="#00D8FF" d="M35.999,29c0,2.072-0.301,3.15-2.075,4.068C31.682,34.229,25.902,36,17.929,36
		c-7.936,0-13.248-1.77-15.916-2.955C2.009,33.043,2.004,33.041,2,33.039C0.489,32.289,0,30.646,0,29c0-5.243,0-17.887,0-23.001
		C0,5.666,0.013,5.344,0.074,5.03C0.04,5.017-0.001,5-0.001,5l0.08,0.002C-0.186,6.303-0.634,0,17.867,0
		c18.999,0,18.128,5.974,18.128,6h0.004l-0.004,0.001c0.001,0.03,0.004,0.063,0.004,0.092C35.999,11.308,35.999,23.857,35.999,29z
		 M4,31.039c0.005,0.002,0.01,0.004,0.014,0.006c2.667,1.186,6.05,2.643,13.986,2.643c7.975,0,11.682-1.457,13.924-2.619
		c1.774-0.918,2.075-1.995,2.075-4.067c0-0.619,0-1.09,0-1.797c0,0.233-4.422,3.844-16.007,3.797
		C6,28.951,1.999,25.375,1.999,25.375c0,0.706,0,1.004,0,1.625C1.999,28.646,2.488,30.289,4,31.039z M33.995,8.41
		C33.959,8.446,29.943,12,17.992,12C6,12,1.999,8.641,1.999,8.641c0,1.695,0,4.016,0,6.234c0,0,4,4,15.993,4
		c12.007,0,16.007-4,16.007-4C33.999,14.073,33.995,11.002,33.995,8.41z M17.992,20.875C6,20.875,1.999,17.297,1.999,17.188
		c0,2.364,0,3.601,0,5.813c0,0,4,4,15.993,4c12.007,0,16.007-4,16.007-4c0-2.209,0-3.265,0-5.641
		C33.999,17.359,29.999,20.875,17.992,20.875z M18,2.313c-19.659,0-19.554,6.75,0,7.313C35.377,10.125,38.75,2.313,18,2.313z"/>
</g>
<g id="图层_5">
	<path fill="#00D8FF" d="M29.667,33H6.333C4.493,33,3,31.508,3,29.667V28c0-1.841,1.493-3.333,3.333-3.333h23.333
		C31.508,24.667,33,26.159,33,28v1.667C33,31.508,31.508,33,29.667,33z M28.833,26.333H7.167c-1.381,0-2.5,1.12-2.5,2.5
		c0,1.381,1.119,2.5,2.5,2.5h21.667c1.381,0,2.5-1.119,2.5-2.5C31.333,27.453,30.214,26.333,28.833,26.333z M27.167,30.5
		c-0.92,0-1.667-0.747-1.667-1.667c0-0.919,0.747-1.666,1.667-1.666c0.919,0,1.666,0.747,1.666,1.666
		C28.833,29.753,28.086,30.5,27.167,30.5z M29.667,22.167H6.333C4.493,22.167,3,20.674,3,18.833v-1.667
		c0-1.841,1.493-3.333,3.333-3.333h23.333c1.841,0,3.333,1.492,3.333,3.333v1.667C33,20.674,31.508,22.167,29.667,22.167z
		 M28.833,15.5H7.167c-1.381,0-2.5,1.12-2.5,2.5c0,1.38,1.119,2.5,2.5,2.5h21.667c1.381,0,2.5-1.12,2.5-2.5
		C31.333,16.62,30.214,15.5,28.833,15.5z M27.167,19.667c-0.92,0-1.667-0.747-1.667-1.667s0.747-1.667,1.667-1.667
		c0.919,0,1.666,0.747,1.666,1.667S28.086,19.667,27.167,19.667z M29.667,11.333H6.333C4.493,11.333,3,9.841,3,8V6.333
		C3,4.493,4.493,3,6.333,3h23.333C31.508,3,33,4.493,33,6.333V8C33,9.841,31.508,11.333,29.667,11.333z M28.833,4.667H7.167
		c-1.381,0-2.5,1.119-2.5,2.5c0,1.381,1.119,2.5,2.5,2.5h21.667c1.381,0,2.5-1.119,2.5-2.5C31.333,5.786,30.214,4.667,28.833,4.667z
		 M27.167,8.833c-0.92,0-1.667-0.747-1.667-1.667c0-0.92,0.747-1.667,1.667-1.667c0.919,0,1.666,0.747,1.666,1.667
		C28.833,8.087,28.086,8.833,27.167,8.833z"/>
</g>
</svg>
