<?xml version="1.0" standalone="no"?>
<!DOCTYPE svg PUBLIC "-//W3C//DTD SVG 1.1//EN" "http://www.w3.org/Graphics/SVG/1.1/DTD/svg11.dtd" >
<!--
2013-9-30: Created.
-->
<svg>
<metadata>
Created by iconfont
</metadata>
<defs>

<font id="iconfont" horiz-adv-x="1024" >
  <font-face
    font-family="iconfont"
    font-weight="500"
    font-stretch="normal"
    units-per-em="1024"
    ascent="896"
    descent="-128"
  />
    <missing-glyph />
    
    <glyph glyph-name="rotateright" unicode="&#59025;" d="M1010.70308238 798.50300985l0-291.07376356c0-22.75032519-18.83829362-41.58861881-41.57581198-41.5886188l-291.07376355 0c-18.19909575 0-31.19262834 8.45278208-38.34256498 25.98706517-7.13596473 16.89392128-4.53842261 31.84347022 9.10478677 44.83700281l89.6623616 89.6623616c-64.32730112 59.12290304-139.69095566 89.01035691-226.75810418 89.0103569-182.5731072 0-332.65073949-150.08927517-332.65073948-332.66238236s150.07763229-332.65073949 332.65073948-332.65073948c103.30790002 0 199.46702848 46.78253909 262.49148416 129.29613027 3.24721891 4.53958656 7.78796942 7.14877155 14.93790607 7.78796942 5.85523997 0 11.70000099-1.94437234 16.2407515-5.84476103l89.00919296-89.66352668c7.80194133-7.14877155 8.45511111-19.48913437 1.30517447-27.93027357-47.43338098-57.17852957-104.60026766-101.36469163-171.52394695-132.54451313-66.92367929-31.84347022-137.73726947-47.43221589-212.46056107-47.4322159-67.56404224 0-131.89134336 12.99353259-193.61062457 39.63260359-61.73092409 26.63907101-114.35706027 61.73092409-159.18241906 106.55628288-44.83700281 44.82535993-79.91721187 97.45149611-106.55628288 159.18241906-26.63907101 61.72044515-39.63260359 126.04774627-39.63260359 193.61178851 0 67.57568512 12.99353259 131.89134336 39.63260359 193.62226746 26.63907101 61.71928121 61.71928121 114.34541739 106.55628288 159.18241905 44.82535993 44.82535993 97.45149611 79.90556899 159.18241906 106.54464 61.71928121 26.63907101 126.04658233 39.63260359 193.61062457 39.63260359 127.3517568 0 250.78915413-50.01811513 343.70106368-137.73610439l84.46844131 83.81760057c12.34385579 13.64553842 27.93143865 16.24191545 45.47852858 9.0931439C1002.26194318 829.68166741 1010.70308238 816.68929877 1010.70308238 798.50300985z"  horiz-adv-x="1024" />

    
    <glyph glyph-name="edit" unicode="&#58944;" d="M1062.01504 855.528832 963.208019 954.335808C946.526317 971.017536 923.42857 980 900.330829 980 875.949875 980 854.135341 971.017536 837.453632 954.335808L788.691731 905.573952 788.691731 905.573952 271.558899 388.441088C270.275686 387.157888 268.99248 385.874688 268.99248 384.591488 268.99248 384.591488 268.99248 383.308288 267.709274 383.308288 266.426067 382.025088 266.426067 380.741824 265.142854 379.458624 265.142854 379.458624 265.142854 379.458624 265.142854 378.175424 265.142854 376.892224 265.142854 376.892224 263.859648 375.609024L193.283206 117.684224C190.716794 108.70176 193.283206 98.436096 199.699251 92.020032 204.832083 86.887232 211.248122 84.320832 218.947366 84.320832 221.513786 84.320832 224.080198 84.320832 225.363411 85.604032L484.57143 157.46368C485.854637 157.46368 485.854637 157.46368 487.137843 158.74688L488.42105 158.74688C489.704262 158.74688 490.987469 160.03008 492.270675 161.31328 492.270675 161.31328 493.553882 161.31328 493.553882 162.59648 494.837094 163.87968 496.120301 163.87968 497.403507 165.16288L1013.253133 681.012544 1062.01504 729.774464C1096.661651 763.137856 1096.661651 820.882176 1062.01504 855.528832L1062.01504 855.528832ZM317.754387 166.446144 274.125312 210.0752 303.639098 319.14784 426.827066 195.959872 317.754387 166.446144 317.754387 166.446144ZM328.020051 370.47616 806.65664 849.112768 819.488723 836.280704 863.117792 792.651648 384.481203 314.01504 328.020051 370.47616 328.020051 370.47616ZM478.155386 220.340864 421.694234 276.801984 900.330829 755.438592 956.791981 698.977472 478.155386 220.340864 478.155386 220.340864ZM1023.518797 765.704256 994.005011 736.190464 843.869677 886.325824 874.666669 917.122816C881.082707 923.538816 890.065165 927.38848 900.330829 927.38848 910.596493 927.38848 919.57895 923.538816 925.994989 917.122816L1024.802003 818.315776C1037.634086 802.917312 1037.634086 779.81952 1023.518797 765.704256L1023.518797 765.704256ZM949.09273 503.929856C934.977446 503.929856 922.145363 492.380928 922.145363 476.982464L922.145363 45.824576C922.145363 24.010048 904.180448 6.04512 882.365914 6.04512L153.503757 6.04512C131.689222 6.04512 113.724314 24.010048 113.724314 45.824576L113.724314 775.96992C113.724314 797.784448 131.689222 815.749376 153.503757 815.749376L584.661651 815.749376C598.776941 815.749376 611.609024 827.29824 611.609024 842.696768 611.609024 858.095232 600.060147 869.644096 584.661651 869.644096L153.503757 869.644096C102.175437 869.644096 61.112781 828.58144 61.112781 777.25312L61.112781 48.390976C61.112781-2.937344 102.175437-44 153.503757-44L882.365914-44C933.694234-44 974.75689-2.937344 974.75689 48.390976L974.75689 476.982464C976.040102 491.097728 964.491226 503.929856 949.09273 503.929856L949.09273 503.929856Z"  horiz-adv-x="1089" />

    
    <glyph glyph-name="lianxian" unicode="&#59109;" d="M937.353846 171.323077C882.215385 226.461538 795.569231 234.338462 732.553846 194.953846L362.338462 565.169231C401.723077 628.184615 393.846154 714.830769 338.707692 769.969231 267.815385 840.861538 165.415385 840.861538 94.523077 769.969231 23.630769 699.076923 23.630769 596.676923 94.523077 525.784615 149.661538 470.646154 236.307692 462.769231 299.323077 502.153846L669.538462 131.938462C630.153846 68.923077 638.030769-17.723077 693.169231-72.861538 764.061538-143.753846 866.461538-143.753846 937.353846-72.861538 1000.369231-1.969231 1000.369231 100.430769 937.353846 171.323077L937.353846 171.323077ZM275.692308 588.8C244.184615 557.292308 189.046154 557.292308 157.538462 588.8 126.030769 620.307692 126.030769 675.446154 157.538462 706.953846 189.046154 738.461538 244.184615 738.461538 275.692308 706.953846 307.2 675.446154 307.2 628.184615 275.692308 588.8L275.692308 588.8ZM874.338462-17.723077C842.830769-49.230769 787.692308-49.230769 756.184615-17.723077 724.676923 13.784615 724.676923 68.923077 756.184615 100.430769 787.692308 131.938462 842.830769 131.938462 874.338462 100.430769 905.846154 68.923077 905.846154 21.661538 874.338462-17.723077L874.338462-17.723077Z"  horiz-adv-x="1024" />

    
    <glyph glyph-name="jigou" unicode="&#58954;" d="M851.965855 332.137819l-32.53909 35.205826c144.387481 133.572158 76.453253 275.063683 73.505108 281.004999-36.757159 66.811662-88.537476 109.35664-149.281955 122.257461-59.930951 12.756535-118.28908-5.619998-149.646252-29.448706-78.105892-59.33334-268.269953-268.353864-270.177396-270.462898l-35.487236 32.257681c7.922437 8.709359 195.08207 214.406185 276.664134 276.385794C602.14202 807.521876 673.810293 834.40413 753.625106 817.505251c52.15894-11.073196 126.010949-45.532009 181.723831-146.847509C936.63728 668.179294 1023.579421 490.920148 851.965855 332.137819L851.965855 332.137819zM194.068997 322.963878C-8.188496 455.643714 85.626169 664.128025 86.597287 666.210453 157.768233 796.060847 271.813662 810.539606 305.086463 811.910836c122.279974 5.351891 210.214722-95.399767 213.914998-99.676164l-36.273135-31.342846c-0.760317 0.864694-77.18287 87.385233-175.650509 83.123162-26.936489-1.111311-119.353318-13.023618-177.725774-119.432113-2.469238-5.5279-76.150354-171.898045 91.00262-281.544281l-26.285666-40.078811L194.068997 322.963878zM560.974411-53.978123c-23.804149 0-54.390771 10.018168-86.977957 46.397726l35.724643 31.976272c16.346293-18.256806 41.032532-37.85005 65.792449-27.486004 19.497053 8.125051 18.306948 50.448996 16.921391 61.337997l-3.545756 27.875884 28.082592-0.839111c22.014386-0.211824 37.745672 3.976568 46.639227 13.950733 13.111622 14.676257 9.843182 38.365796 9.80839 38.598086l-4.433986 30.503734 30.618345-3.018753c21.499663-2.25025 37.186947 1.49812 46.480614 11.117199 14.258749 14.746866 13.929244 42.697451 12.620435 52.228525l-7.698333 55.335283 45.387723-32.441876c5.5279-3.910053 23.623024 1.687432 37.266765 17.532305 8.335852 9.67229 19.782555 28.513404 2.812045 45.975101-41.037648 42.279942-150.775982 151.272285-193.152115 193.290261-27.995611-27.622104-79.498612-75.680657-109.893876-87.360673-126.887922-48.739051-206.106148 27.714202-230.274594 74.981738l42.627866 21.930475c2.091638-4.003174 52.729945-97.448426 170.442904-52.153824 21.408589 8.216125 77.050864 59.438741 109.74345 93.167936l16.854876 17.417695 17.23043-17.044188C661.643182 557.70725 819.479977 401.402345 870.88781 348.449319c29.918403-30.806633 29.567409-75.284637-0.88823-110.630656-16.178471-18.798135-40.077787-33.264615-63.582107-35.232432-2.055822-18.49012-8.42795-41.268916-25.561166-59.174728-15.053857-15.731286-35.135218-24.532743-59.892065-26.312272-1.836835-14.983249-7.236821-33.479509-21.161972-49.323359-14.175861-16.131399-33.847899-25.917276-58.667168-29.217439-1.168616-32.116465-12.065803-71.259974-47.161113-85.892229-8.270361-3.453658-19.563568-6.639211-32.999578-6.639211L560.974411-53.978123zM215.428467 183.273373c-21.592784 0-43.400462 9.812483-59.857273 26.944676-13.858636 14.422478-22.462594 32.565696-24.203238 51.082422-1.919722 20.273742 4.750187 39.349193 18.306948 52.363601l116.545366 111.918999c25.982768 24.953322 74.054623 20.177552 103.144148-10.132778 13.854543-14.399965 22.458501-32.53909 24.202215-51.081399 1.919722-20.24816-4.749164-39.35431-18.284435-52.369741L258.723529 200.086293C247.40474 189.245388 232.025471 183.273373 215.428467 183.273373L215.428467 183.273373zM309.497936 394.45205c-2.948145 0-7.101745-0.605797-10.088776-3.462868L182.881191 279.092695c-4.015454-3.862981-4.094248-9.996678-3.783163-13.295817 0.729617-7.655354 4.755304-15.824407 11.050684-22.384823 11.099802-11.490705 28.246321-15.564487 35.395138-8.730848l116.523877 111.895463c4.01136 3.862981 4.081968 10.001795 3.778046 13.300934-0.724501 7.655354-4.749164 15.801894-11.059893 22.357194-7.351432 7.650237-16.797571 12.221346-25.282826 12.221346L309.497936 394.45205zM291.930839 106.139621c-21.593807 0-43.409672 9.812483-59.835783 26.923186-30.068829 31.276331-32.723286 77.69657-5.931083 103.47263l116.553553 111.917976c26.030863 24.931832 74.081229 20.178575 103.152335-10.137895 13.859659-14.416338 22.462594-32.56058 24.207331-51.077306 1.919722-20.273742-4.755304-39.353286-18.305925-52.368718l-116.54639-111.918999C323.919391 112.111636 308.548308 106.139621 291.930839 106.139621L291.930839 106.139621zM386.012587 317.321368c-2.960425 0-7.114025-0.610914-10.115382-3.466961L259.378445 201.957921c-6.625908-6.363941-5.27719-22.61302 7.281847-35.676547 7.338129-7.650237 16.781198-12.193717 25.266453-12.193717 2.961448 0 7.118118 0.588401 10.102079 3.462868l116.532063 111.896486c4.024663 3.861958 4.095271 9.996678 3.792373 13.300934-0.724501 7.655354-4.754281 15.796778-11.050684 22.357194C403.959332 312.756399 394.497842 317.321368 386.012587 317.321368L386.012587 317.321368zM368.458793 28.987451c-21.596877 0-43.413765 9.80839-59.861366 26.940582-30.05962 31.251771-32.727379 77.670987-5.936199 103.447047l116.558669 111.917976c26.03905 24.910343 74.054623 20.134573 103.139032-10.087753 30.072923-31.321356 32.718169-77.741595 5.913687-103.495142L411.762041 45.791162c-11.328-10.835789-26.711362-16.803711-43.308365-16.803711L368.458793 28.987451zM462.528262 240.161011c-4.306072 0-7.715729-1.168616-10.123568-3.462868L335.88491 124.801656c-6.626931-6.367011-5.281283-22.594601 7.27673-35.654035 7.351432-7.655354 16.811898-12.221346 25.297153-12.221346 2.957355 0 7.114025 0.606821 10.110265 3.462868l116.483968 111.896486c6.64842 6.367011 5.299703 22.617114-7.254218 35.697013C480.459656 235.620601 471.012494 240.161011 462.528262 240.161011L462.528262 240.161011zM444.969351-48.146301c-21.579481 0-43.409672 9.80839-59.857273 26.922163-13.871939 14.43885-22.476921 32.583093-24.216541 51.099818-1.924839 20.274766 4.750187 39.35431 18.306948 52.369741L495.707942 194.162374c26.079982 24.954345 74.081229 20.156062 103.178941-10.110265 13.867846-14.44806 22.462594-32.587186 24.202215-51.109028 1.924839-20.269649-4.762467-39.371706-18.323321-52.386114L488.268506-31.343613c-11.323906-10.835789-26.690896-16.806781-43.299155-16.806781L444.969351-48.146301zM539.016307 163.025213c-4.29277 0-7.698333-1.168616-10.110265-3.462868L412.422074 47.667905c-4.037966-3.862981-4.108574-9.996678-3.805676-13.297864 0.729617-7.653307 4.755304-15.801894 11.050684-22.357194 7.360641-7.653307 16.822131-12.219299 25.306362-12.219299 2.960425 0 7.104815 0.584308 10.087753 3.462868l116.497271 111.896486c4.046153 3.861958 4.121877 9.995655 3.813862 13.295817-0.724501 7.655354-4.749164 15.827477-11.04659 22.382776C556.971238 158.461267 547.514865 163.025213 539.016307 163.025213L539.016307 163.025213zM579.644633 301.080475l134.364197-134.398989-33.905204-33.891901L545.744545 267.188574 579.644633 301.080475 579.644633 301.080475zM666.445558 382.429225l127.486556-127.486556-33.894971-33.897018L632.550587 348.532207 666.445558 382.429225 666.445558 382.429225zM666.445558 382.429225"  horiz-adv-x="1024" />

    
    <glyph glyph-name="arrowrighticon" unicode="&#59009;" d="M73.136369 311.257064 919.957929 311.257064 607.421857-0.961484C578.508625-29.8679 578.508625-76.664119 607.421857-105.570534 636.335089-134.47695 683.191156-134.47695 712.104388-105.570534L1148.630928 330.511757C1163.453229 345.330562 1170.571795 364.828983 1170.181755 384.278666L1170.181755 384.327412 1170.181755 384.376158C1170.571795 403.825834 1163.453229 423.373009 1148.630928 438.191813L712.104388 874.274105C683.191156 903.131775 636.335089 903.131775 607.421857 874.274105 578.508625 845.367689 578.508625 798.522717 607.421857 769.665047L919.957929 457.39776 73.136369 457.39776C32.716354 457.39776 0 424.689152 0 384.327412 0 344.014418 32.716354 311.257064 73.136369 311.257064L73.136369 311.257064 73.136369 311.257064Z"  horiz-adv-x="1171" />

    
    <glyph glyph-name="yonghuguanli" unicode="&#58912;" d="M294.352 594.838c0-116.483 94.351-210.838 210.838-210.838 116.483 0 210.838 94.355 210.838 210.838s-94.355 210.838-210.838 210.838c-116.487 0-210.838-94.355-210.838-210.838zM127.447 68.328v0zM127.447 69.656v0zM127.447 69.99s0-0.167 0 0zM882.934 67.328v0zM882.934 67.826v0zM127.447 67.328v0zM696.556 339.238l-17.306 0.167c-5.99 0-15.305-2.331-20.634-5.161 0 0-13.81-7.987-26.457-13.309-37.775-16.309-80.712-25.627-126.471-25.627-45.431 0-88.364 9.151-125.969 25.293-12.814 5.489-26.959 13.643-26.959 13.643-5.325 2.997-14.479 5.328-20.634 5.161l-17.138-0.167c-69.059-9.155-141.612-70.39-162.413-136.619 0 0-22.132-44.762-25.296-132.625-0.167-11.479 8.987-25.958 20.801-32.116 0 0 117.651-75.547 356.775-75.547 239.292 0 356.775 75.547 356.775 75.547 11.65 6.325 21.132 22.299 20.801 32.451-2.993 87.532-24.46 130.464-24.46 130.464-18.968 66.557-92.522 128.294-161.417 138.445zM882.934 69.656v0zM882.934 68.492v0z"  horiz-adv-x="1024" />

    
    <glyph glyph-name="tuopu" unicode="&#59453;" d="M861.091 154.182c-25.266 0-48.692-7.863-67.979-21.266L615.978 260.845c17.139 30.368 26.931 65.434 26.931 102.791 0 6.662-0.325 13.248-0.934 19.751l181.394 107.16c27.985-17.007 64.962-13.432 89.148 10.754 28.402 28.402 28.402 74.45 0 102.852s-74.45 28.402-102.852 0c-20.925-20.925-26.413-51.423-16.505-77.391L631.704 431.38c-16.666 48.783-50.83 89.45-95.007 114.527l32.27 161.346c2.315-0.222 4.66-0.345 7.033-0.345 40.167 0 72.728 32.561 72.728 72.727 0 40.166-32.561 72.727-72.728 72.727-40.166 0-72.727-32.561-72.727-72.727 0-20.549 8.536-39.093 22.238-52.319l-32.562-162.813c-18.861 5.578-38.825 8.587-59.495 8.587-39.358 0-76.175-10.865-107.631-29.745l-100.443 88.39c18.128 35.992 12.191 81.003-17.861 111.055-37.491 37.49-98.274 37.49-135.765 0s-37.49-98.274 0-135.765c33.554-33.554 85.755-37.052 123.228-10.543l93.177-81.996C248.611 476.387 224 422.889 224 363.636c0-64.399 29.072-121.999 74.798-160.421l-82.787-88.324c-15.209 10.118-33.465 16.018-53.102 16.018-53.02 0-96-42.981-96-96s42.98-96 96-96 96 42.981 96 96c0 16.457-4.144 31.945-11.441 45.483l90.638 96.701c28.599-14.647 61.009-22.911 95.348-22.911 61.593 0 116.973 26.588 155.298 68.91l171.761-124.049c-11.834-18.52-18.695-40.526-18.695-64.134 0-65.872 53.4-119.273 119.272-119.273 65.873 0 119.273 53.4 119.273 119.273 0.001 65.873-53.4 119.273-119.272 119.273z"  horiz-adv-x="1024" />

    
    <glyph glyph-name="baocunquanbu" unicode="&#58897;" d="M832 832H217.6v-742.4H960V704l-128 128zM304 739.2H768V620.8H304V739.2z m556.8-556.8h-556.8V505.6h556.8v-323.2zM704 448h128v-128h-128zM830.976 896zM830.976 896zM768 38.4V-64H64V640h102.4v-601.6z"  horiz-adv-x="1024" />

    
    <glyph glyph-name="zhongzhi" unicode="&#59182;" d="M943.786667 494.933333L839.68 452.266667c5.12-22.186667 6.826667-46.08 6.826667-69.973334 0-184.32-150.186667-334.506667-334.506667-334.506666s-334.506667 150.186667-334.506667 334.506666S327.68 716.8 512 716.8c54.613333 0 105.813333-13.653333 151.893333-35.84L588.8 605.866667l288.426667-61.44-61.44 288.426666-69.973334-69.973333C677.546667 803.84 597.333333 827.733333 512 827.733333 264.533333 827.733333 64.853333 628.053333 64.853333 382.293333c0-247.466667 199.68-447.146667 447.146667-447.146666s447.146667 199.68 447.146667 447.146666c0 39.253333-5.12 76.8-15.36 112.64z"  horiz-adv-x="1024" />

    
    <glyph glyph-name="resource" unicode="&#58880;" d="M409.6 298.66666699999996v166.4h0.580267a38.2976 38.2976 0 0 1-0.580267-6.4c0 41.591467 65.911467 77.687467 162.7136 96H61.576533A61.576533 61.576533 0 0 1 0 493.090133v-201.096533A61.576533 61.576533 0 0 1 61.576533 230.39999999999998H409.6v68.266667zM410.180267-8.53333299999997H409.6V230.39999999999998H61.576533A61.576533 61.576533 0 0 1 0 168.82346700000005v-201.096534A61.576533 61.576533 0 0 1 61.576533-93.866667h490.120534c-80.64 18.244267-135.645867 49.442133-141.5168 85.333334zM928.290133 554.666667H61.576533A61.5936 61.5936 0 0 0 0 616.2432V817.3568A61.5936 61.5936 0 0 0 61.576533 878.933333h866.696534A61.5936 61.5936 0 0 0 989.866667 817.3568v-201.096533A61.5936 61.5936 0 0 0 928.290133 554.666667zM162.133333 716.8m-59.733333 0a59.733333 59.733333 0 1 1 119.466667 0 59.733333 59.733333 0 1 1-119.466667 0ZM836.266667 742.4m-17.066667 0a17.066667 17.066667 0 1 1 34.133333 0 17.066667 17.066667 0 1 1-34.133333 0ZM768 742.4m-17.066667 0a17.066667 17.066667 0 1 1 34.133334 0 17.066667 17.066667 0 1 1-34.133334 0ZM870.4 691.2m-17.066667 0a17.066667 17.066667 0 1 1 34.133334 0 17.066667 17.066667 0 1 1-34.133334 0ZM802.133333 691.2m-17.066666 0a17.066667 17.066667 0 1 1 34.133333 0 17.066667 17.066667 0 1 1-34.133333 0ZM699.733333 742.4m-17.066666 0a17.066667 17.066667 0 1 1 34.133333 0 17.066667 17.066667 0 1 1-34.133333 0ZM733.866667 691.2m-17.066667 0a17.066667 17.066667 0 1 1 34.133333 0 17.066667 17.066667 0 1 1-34.133333 0ZM631.466667 742.4m-17.066667 0a17.066667 17.066667 0 1 1 34.133333 0 17.066667 17.066667 0 1 1-34.133333 0ZM665.6 691.2m-17.066667 0a17.066667 17.066667 0 1 1 34.133334 0 17.066667 17.066667 0 1 1-34.133334 0ZM563.2 742.4m-17.066667 0a17.066667 17.066667 0 1 1 34.133334 0 17.066667 17.066667 0 1 1-34.133334 0ZM597.333333 691.2m-17.066666 0a17.066667 17.066667 0 1 1 34.133333 0 17.066667 17.066667 0 1 1-34.133333 0ZM162.133333 392.533333m-59.733333 0a59.733333 59.733333 0 1 1 119.466667 0 59.733333 59.733333 0 1 1-119.466667 0ZM162.133333 68.26666699999998m-59.733333 0a59.733333 59.733333 0 1 1 119.466667 0 59.733333 59.733333 0 1 1-119.466667 0ZM716.8 64c-169.659733 0-307.2 48.708267-307.2 108.8V-8.53333299999997h0.580267c9.352533-57.105067 143.035733-102.4 306.619733-102.4s297.2672 45.294933 306.619733 102.4H1024V172.79999999999995c0-60.091733-137.540267-108.8-307.2-108.8zM409.6 179.20000000000005v-6.4c0 2.1504 0.221867 4.283733 0.580267 6.4H409.6zM1023.419733 179.20000000000005c0.3584-2.116267 0.580267-4.2496 0.580267-6.4V179.20000000000005h-0.580267zM716.8 247.46666700000003c-169.659733 0-307.2 48.708267-307.2 108.8V166.39999999999998h0.580267c9.352533-57.105067 143.035733-102.4 306.619733-102.4s297.2672 45.294933 306.619733 102.4H1024V356.266667C1024 296.174933 886.459733 247.46666700000003 716.8 247.46666700000003zM409.6 362.66666699999996v-6.4c0 2.1504 0.221867 4.283733 0.580267 6.4H409.6zM1023.419733 362.66666699999996c0.3584-2.116267 0.580267-4.2496 0.580267-6.4v6.4h-0.580267zM409.6 531.2a307.2 108.80000000000001 0 1 1 614.4 0 307.2 108.80000000000001 0 1 1-614.4 0ZM716.8 422.4c-169.659733 0-307.2 48.708267-307.2 108.8V349.866667h0.580267c9.352533-57.105067 143.035733-102.4 306.619733-102.4s297.2672 45.294933 306.619733 102.4H1024V531.2c0-60.091733-137.540267-108.8-307.2-108.8zM409.6 537.6v-6.4c0 2.1504 0.221867 4.283733 0.580267 6.4H409.6zM1023.419733 537.6c0.3584-2.116267 0.580267-4.2496 0.580267-6.4V537.6h-0.580267z"  horiz-adv-x="1024" />

    
    <glyph glyph-name="shezhi" unicode="&#58881;" d="M962.402462 445.085538c-91.431385 17.585231-133.356308 124.416-78.296616 199.483077l38.675692 52.736-83.554461 83.554462-51.948308-35.190154c-77.075692-52.224-182.272-6.321231-196.411077 85.681231L580.923077 896h-118.153846l-15.300923-79.576615c-17.191385-89.403077-120.221538-132.096-195.603693-81.033847L184.772923 780.859077 101.218462 697.304615l38.675692-52.736c55.059692-75.067077 13.115077-181.897846-78.296616-199.483077L0 433.230769v-118.153846l64.649846-9.944615c92.022154-14.158769 137.905231-119.355077 85.681231-196.43077l-35.190154-51.928615 83.554462-83.554461 52.736 38.675692c75.067077 55.059692 181.897846 13.134769 199.483077-78.296616L462.769231-128h118.153846l6.990769 45.469538c14.473846 94.050462 123.549538 139.244308 200.290462 82.963693l37.100307-27.214769 83.554462 83.554461-35.190154 51.928615c-52.204308 77.075692-6.321231 182.272 85.681231 196.43077L1024 315.07692299999997v118.153846l-61.597538 11.854769zM521.846154 285.538462a88.615385 88.615385 0 1 0 0 177.230769 88.615385 88.615385 0 0 0 0-177.230769zM521.846154 561.230769c-103.325538 0-187.076923-83.751385-187.076923-187.076923s83.751385-187.076923 187.076923-187.076923 187.076923 83.751385 187.076923 187.076923-83.751385 187.076923-187.076923 187.076923z m0-275.692307a88.615385 88.615385 0 1 0 0 177.230769 88.615385 88.615385 0 0 0 0-177.230769z"  horiz-adv-x="1024" />

    
    <glyph glyph-name="ram" unicode="&#58882;" d="M512 384m-512 0a512 512 0 1 1 1024 0 512 512 0 1 1-1024 0ZM156.7744 273.15200000000004l0.6656 0.3584 462.7456 455.2704a27.4432 27.4432 0 0 0 38.8096 0l0.4096-0.4096 67.2256-65.9968a26.4704 26.4704 0 0 0 3.584-34.304c-9.0112-16.2304 10.24-33.536 25.6-24.3712a27.2384 27.2384 0 0 0 34.0992-3.4304l76.1856-75.1616a27.0336 27.0336 0 0 0 0-38.2464l-0.512-0.6656-280.0128-275.5072a27.7504 27.7504 0 0 0-39.168 0l-0.4096 0.7168-9.6768 8.7552c-3.2768 3.5328-8.4992-1.9968-4.7104-5.12l9.5232-9.6768a27.0848 27.0848 0 0 0 0.3072-38.2976l-0.3072-0.3072L403.0464 30.720000000000027a28.16 28.16 0 0 0-39.424 0l-0.512 0.5632-75.5712 74.6496a27.392 27.392 0 0 0-3.328 34.5088c9.4208 16.1792-10.24 32.6144-25.6 23.552a28.3648 28.3648 0 0 0-34.0992 3.84l-67.7888 66.56a26.9312 26.9312 0 0 0-0.4608 38.0928z m239.6672-156.672a16.5376 16.5376 0 0 0 0 22.9376 17.152 17.152 0 0 0 23.5008-0.3584l7.3216-7.168 23.6032 23.1936-7.424 7.2704a16.5376 16.5376 0 0 0 0 22.9888 16.9472 16.9472 0 0 0 23.3984 0l7.7312-7.3216 9.3184 9.3696c-32.8704 52.736 30.4128 110.4384 80.896 79.8208l11.008 10.9056-7.2192 7.424a15.36 15.36 0 0 0-0.768 21.9648l0.768 0.768a16.4352 16.4352 0 0 0 23.2448 0l7.2192-6.912 23.5008 22.9376-7.2192 7.5264a15.8208 15.8208 0 0 0-0.4096 22.3232l0.4096 0.4096a17.3568 17.3568 0 0 0 23.6032 0l7.3216-7.168 23.3472 23.0912-7.1168 7.168a15.616 15.616 0 0 0-1.0752 22.0672l1.0752 1.0752a17.3056 17.3056 0 0 0 23.5008 0l7.1168-7.5776 23.296 23.3984-7.168 7.3216a15.872 15.872 0 0 0-0.4096 22.4768l0.7168 0.6656a16.896 16.896 0 0 0 23.1936-0.3584l7.2192-7.1168 23.552 23.0912-7.2192 7.0656a15.872 15.872 0 0 0-0.6656 22.4768l0.6656 0.6656a16.896 16.896 0 0 0 23.5008 0l6.9632-7.168 20.8896 19.9168-43.8272 43.2128c-51.2-12.7488-102.4 35.072-89.2416 88.0128L639.5904 670.72l-423.8848-417.1264 35.1232-34.4576c52.3264 13.0048 102.4-35.84 88.832-87.6544l43.9296-42.9056 20.8896 20.48-7.7824 7.3728z m-106.2912 176.2816l62.3104 61.7472a16.7424 16.7424 0 0 0 22.9376 0l87.04-86.1184a15.36 15.36 0 0 0 0-22.9376l-0.9728-0.7168-62.0032-61.44a16.6912 16.6912 0 0 0-23.5008 0l-87.04 85.6064a15.9744 15.9744 0 0 0-0.4096 22.6304l0.4096 0.4096 1.3312 0.6656z m73.4208 26.88l-39.3216-38.7584 63.3856-62.7712 39.9872 39.168zM413.5936 414.72l62.72 61.44a16.1792 16.1792 0 0 0 22.8864 0.4608l0.4608-0.4608 87.04-85.6576a15.616 15.616 0 0 0 0.7168-22.0672l-0.7168-0.7168-63.232-62.2592a16.8448 16.8448 0 0 0-23.5008 0L413.5936 391.5264a15.36 15.36 0 0 0-1.1776 21.9136z m74.3424 27.392l-39.7312-39.2704L512 340.6848l39.7312 38.7584zM538.3168 537.6l62.1056 61.0816a16.7936 16.7936 0 0 0 23.552 0l87.04-85.504a15.8208 15.8208 0 0 0 0.7168-22.3232l-0.7168-0.7168-0.7168-1.024-62.2592-60.928a16.896 16.896 0 0 0-23.1936-0.4608l-0.512 0.4608v-0.4608l-87.1424 85.9136a16.2304 16.2304 0 0 0 0 22.9376z m73.9328 26.5216l-39.5776-39.0656 63.3344-62.464 39.8336 38.912z"  horiz-adv-x="1024" />

    
    <glyph glyph-name="mzicon-setting" unicode="&#58886;" d="M896 256a128 128 0 0 1 0 256H873.813333a381.064533 381.064533 0 0 1-15.428266 37.410133l15.633066 15.633067a128 128 0 0 1-180.974933 180.974933l-15.633067-15.633066a374.306133 374.306133 0 0 1-37.410133 15.428266v22.186667a128 128 0 0 1-256 0V745.8133330000001a374.306133 374.306133 0 0 1-37.410133-15.428266l-15.633067 15.633066a128 128 0 0 1-180.974933-180.974933l15.633066-15.633067a391.168 391.168 0 0 1-15.428266-37.410133h-22.186667a128 128 0 0 1 0-256H150.186667a391.168 391.168 0 0 1 15.428266-37.410133l-15.633066-15.633067a128 128 0 0 1 180.974933-180.974933l15.633067 15.633066a374.306133 374.306133 0 0 1 37.410133-15.428266v-22.186667a128 128 0 0 1 256 0V22.186667000000057a374.306133 374.306133 0 0 1 37.410133 15.428266l15.633067-15.633066a128 128 0 0 1 180.974933 180.974933l-15.633066 15.701333a373.1456 373.1456 0 0 1 15.428266 37.341867h22.186667z m-67.242667-98.304a64.170667 64.170667 0 0 0 0-90.453333 65.7408 65.7408 0 0 0-90.453333 0l-49.288533 49.288533-21.162667-11.810133a319.146667 319.146667 0 0 0-68.266667-28.330667l-23.278933-6.826667v-69.768533a64.034133 64.034133 0 0 0-128.068267 0V69.97333300000003l-23.278933 6.826667a316.279467 316.279467 0 0 0-68.266667 28.330667l-21.162666 11.810133-49.288534-49.288533a65.7408 65.7408 0 0 0-90.453333 0 64.170667 64.170667 0 0 0 0 90.453333l49.220267 49.288533-11.810134 21.162667a318.6688 318.6688 0 0 0-28.2624 68.266667l-6.826666 23.210666H128.341333a64.034133 64.034133 0 0 0 0 128.068267H197.973333L204.8 471.381333a319.556267 319.556267 0 0 0 28.2624 68.266667l11.810133 21.162667-49.220266 49.288533a64.170667 64.170667 0 0 0 0 90.453333 65.7408 65.7408 0 0 0 90.453333 0l49.288533-49.220266 21.162667 11.810133a316.142933 316.142933 0 0 0 68.266667 28.2624l23.278933 6.826667V768a64.034133 64.034133 0 0 0 128.068267 0V698.026667l23.278933-6.826667a318.941867 318.941867 0 0 0 68.266667-28.2624l21.162666-11.810133 49.288534 49.220266a65.7408 65.7408 0 0 0 90.453333 0 64.170667 64.170667 0 0 0 0-90.453333l-49.220267-49.288533 11.741867-21.162667a317.166933 317.166933 0 0 0 28.330667-68.266667l6.826666-23.278933h69.768534a64.034133 64.034133 0 0 0 0-128.068267H826.026667l-6.826667-23.210666a317.713067 317.713067 0 0 0-28.330667-68.266667l-11.741866-21.162667zM512 576.034133A192.034133 192.034133 0 1 1 704.034133 384 192.170667 192.170667 0 0 1 512 576.034133z m0-320.034133A128 128 0 1 0 640 384 128.136533 128.136533 0 0 0 512 256z"  horiz-adv-x="1024" />

    
    <glyph glyph-name="harddisk" unicode="&#58978;" d="M860.8 743.68c-3.84 28.8-28.16 49.92-56.96 49.92h-583.68c-28.8 0-53.12-21.76-56.96-49.92l-60.8-453.76v-225.92c0-49.28 40.32-89.6 89.6-89.6h640c49.28 0 89.6 40.32 89.6 89.6v225.92l-60.8 453.76zM213.76 736.64c0.64 3.2 3.2 5.76 6.4 5.76h583.68c3.2 0 5.76-2.56 6.4-5.76l56.32-423.040h-709.12l56.32 423.040zM832 25.6h-640c-21.12 0-38.4 17.28-38.4 38.4v198.4h716.8v-198.4c0-21.12-17.28-38.4-38.4-38.4zM257.28 169.6h352v-51.2h-352zM672 169.6h96v-51.2h-96z"  horiz-adv-x="1024" />

    
    <glyph glyph-name="yuanbilichicun" unicode="&#58915;" d="M494.075 379c19.9 0 36-16.1 36-36s-16.1-36-36-36-36 16.1-36 36 16.1 36 36 36zM494.075 582c19.9 0 36-16.1 36-36s-16.1-36-36-36-36 16.1-36 36 16.1 36 36 36zM37.075-56h952c19.9 0 36-16.1 36-36s-16.1-36-36-36H37.075c-19.9 0-36 16.1-36 36s16.1 36 36 36zM915.475 756.9c14.1-14.1 14.1-36.9 0-50.9l-186-186c-14.1-14.1-36.9-14.1-50.9 0-14.1 14.1-14.1 36.9 0 50.9l186 186c14.1 14.1 36.9 14.1 50.9 0zM890.075 767c19.9 0 36-16.1 36-36v-573c0-19.9-16.1-36-36-36s-36 16.1-36 36V731c0 19.9 16.1 36 36 36zM247.475 756.9c14.1-14.1 14.1-36.9 0-50.9l-186-186c-14.1-14.1-36.9-14.1-50.9 0-14.1 14.1-14.1 36.9 0 50.9l186 186c14.1 14.1 36.9 14.1 50.9 0zM222.075 767c19.9 0 36-16.1 36-36v-573c0-19.9-16.1-36-36-36s-36 16.1-36 36V731c0 19.9 16.1 36 36 36z"  horiz-adv-x="1025" />

    
    <glyph glyph-name="iconshangchuan-" unicode="&#58925;" d="M382.49984 205.91104h259.00032a36.5568 36.5568 0 0 1 36.57216 36.57216 36.5568 36.5568 0 0 1-36.57216 36.57216H382.49984a36.5568 36.5568 0 0 1-36.57216-36.57216 36.5568 36.5568 0 0 1 36.57216-36.57216zM382.49984 48.19456h259.00032a36.5568 36.5568 0 0 1 36.57216 36.57216 36.5568 36.5568 0 0 1-36.57216 36.57216H382.49984a36.5568 36.5568 0 0 1-36.57216-36.57216 36.5568 36.5568 0 0 1 36.57216-36.57216zM950.85568 701.056h-136.71424v122.2656C814.14144 863.3856 781.35808 896 741.00224 896H282.99776c-40.35584 0-73.14432-32.6144-73.14432-72.68352v-122.2656H73.14432C32.78336 701.056 0 668.43648 0 628.37248v-363.4176c0-40.10496 32.78336-72.68864 73.14432-72.68864h136.71424v-247.58272c0-40.10496 32.78336-72.68352 73.14432-72.68352h457.99936c40.35584 0 73.14432 32.57856 73.14432 72.68352v247.58272h136.71424c40.35584 0 73.14432 32.57856 73.14432 72.68864v363.4176c-0.00512 40.064-32.78848 72.68352-73.14944 72.68352zM282.99776 826.09152h457.99936v-123.0336H282.99776v123.0336z m457.86112-884.18304H282.99776V385.34144h457.99936l-0.13824-443.43296z m209.9968 322.28864h-136.71424V385.34144c0 40.32-32.78336 73.14432-73.14432 73.14432H282.99776c-40.35584 0-73.14432-32.8192-73.14432-73.14432v-121.14432H73.14432V629.90848h877.71648v-365.71136z"  horiz-adv-x="1024" />

    
    <glyph glyph-name="resourceInfo" unicode="&#59786;" d="M832 160H192c-35.3 0-64-28.7-64-64v-160c0-35.3 28.7-64 64-64h640c35.3 0 64 28.7 64 64V96c0 35.3-28.7 64-64 64z m0-224H192V96h640v-160zM832 896H192c-35.3 0-64-28.7-64-64v-160c0-35.3 28.7-64 64-64h640c35.3 0 64 28.7 64 64V832c0 35.3-28.7 64-64 64z m0-224H192V832h640v-160zM832 528H192c-35.3 0-64-28.7-64-64v-160c0-35.3 28.7-64 64-64h640c35.3 0 64 28.7 64 64V464c0 35.3-28.7 64-64 64z m0-224H192V464h640v-160zM704 752m-32 0a32 32 0 1 1 64 0 32 32 0 1 1-64 0ZM704 384m-32 0a32 32 0 1 1 64 0 32 32 0 1 1-64 0ZM704 16m-32 0a32 32 0 1 1 64 0 32 32 0 1 1-64 0ZM576 752m-32 0a32 32 0 1 1 64 0 32 32 0 1 1-64 0ZM576 384m-32 0a32 32 0 1 1 64 0 32 32 0 1 1-64 0ZM576 16m-32 0a32 32 0 1 1 64 0 32 32 0 1 1-64 0Z"  horiz-adv-x="1024" />

    
    <glyph glyph-name="internet" unicode="&#58890;" d="M1051.150629 683.651657H909.604571L867.269486 895.473371H303.016229l-42.364343-211.821714H119.135086a118.959543 118.959543 0 0 1-118.608457-118.608457v-550.736457a118.959543 118.959543 0 0 1 118.608457-118.608457h932.015543a118.959543 118.959543 0 0 1 118.608457 118.608457V565.0432000000001a118.959543 118.959543 0 0 1-118.608457 118.608457z m50.819657-669.344914c0-27.940571-22.879086-50.819657-50.819657-50.819657H119.135086a50.9952 50.9952 0 0 0-50.819657 50.819657V565.0432000000001c0 27.940571 22.879086 50.819657 50.819657 50.819657h197.4272l42.364343 211.821714h452.432457l42.364343-211.821714h197.4272c27.940571 0 50.819657-22.879086 50.819657-50.819657v-550.736457zM169.984 65.15565700000002h830.317714V522.678857H169.984v-457.5232z m67.7888 389.7344h694.740114V132.97371399999997H813.933714v135.548343h-67.7888v-135.548343h-127.093028v135.548343h-67.759543v-135.548343h-127.093029v135.548343H356.352v-135.548343H237.7728V454.890057z"  horiz-adv-x="1170" />

    
    <glyph glyph-name="peizhi" unicode="&#59081;" d="M648.5942853125 402.5142853125l78.5828578125 78.5828578125c19.6114284375-6.582856875 39.36-13.1657146875 58.971428437499995-13.1657146875 104.77714312500001 0 183.36 85.1657146875 183.36 183.36 0 26.1942853125-6.582856875 52.388571562500005-19.6114284375 78.582856875L871.3142853125 651.4285715625001c-13.1657146875-13.1657146875-26.1942853125-19.6114284375-45.80571375-19.6114284375-32.777143125 0-58.971428437499995 26.1942853125-58.971428437499995 58.971428437499995 0 19.6114284375 6.582856875 32.777143125 19.6114284375 45.80571375l78.582856875 78.5828578125C838.5371431250001 828.342856875 812.342856875 834.7885715625 786.1485715625 834.7885715625c-104.77714312500001 0-183.36-85.1657146875-183.36-183.36 0-19.6114284375 6.582856875-39.36 13.16571375-58.971428437499995l-91.748570625-85.1657146875c-13.1657146875 0-19.6114284375 6.582856875-32.777143125 6.582856875-26.1942853125 0-45.8057146875-6.582856875-65.55428625-19.6114284375L222.7657146875 703.817143125l26.1942853125 26.1942853125c6.582856875 6.582856875 6.582856875 6.582856875 6.582856875 13.1657146875s-6.582856875 13.1657146875-13.16571375 19.6114284375l-117.94285781250001 72h-13.16571375c-6.582856875 0-13.1657146875 0-13.1657146875-6.582856875L59.01714312500002 788.982856875c-6.582856875 0-6.582856875-6.582856875-6.5828578125-13.16571375v-13.1657146875l72-124.52571375c6.582856875-6.582856875 13.1657146875-13.1657146875 19.611429375-13.1657146875 6.582856875 0 13.1657146875 0 13.16571375 6.582856875l26.19428625 39.36 203.108570625-216.13714218750002c-13.1657146875-19.6114284375-19.6114284375-39.36-19.6114284375-65.55428625v-26.1942853125L78.62857156249999 94.62857156249993c-19.6114284375-19.6114284375-26.1942853125-45.8057146875-26.19428625-72 0-58.971428437499995 45.8057146875-104.77714312500001 104.77714312500001-104.77714312500001 26.1942853125 0 58.971428437499995 6.582856875 78.582856875 26.19428625l255.49714312499998 275.10857062499997L759.817143125-49.37142843750007c19.6114284375-19.6114284375 52.388571562500005-32.777143125 85.16571375000001-32.777143125 65.5542853125 0 124.5257146875 52.388571562500005 124.5257146875 124.5257146875 0 32.777143125-13.1657146875 65.5542853125-32.777143125 85.16571375000001L648.5942853125 402.5142853125M144.18285687500003 697.2342853125L104.82285687499996 769.3714284375001l13.1657146875 19.6114284375 72-45.80571375-45.8057146875-45.9428578125m622.217143125 91.7485715625L746.7885715625 769.3714284375001c-45.8057146875-45.8057146875-39.36-111.36 6.582856875-157.16571375 45.8057146875-45.8057146875 111.36-52.388571562500005 157.16571468749999-6.5828578125l26.1942853125 26.19428625c-19.6114284375-72-72-117.94285687499999-137.55428531249999-117.94285781250001-19.6114284375 0-32.777143125 0-52.388571562500005 6.5828578125-6.582856875 0-6.582856875 6.582856875-13.1657146875 6.582856875-26.1942853125 13.1657146875-45.8057146875 32.777143125-58.971428437499995 58.971428437499995 0 6.582856875-6.582856875 6.582856875-6.582856875 13.1657146875-6.582856875 13.1657146875-6.582856875 32.777143125-6.582856875 52.388571562500005-12.8914284375 78.4457146875 45.942856875 137.417143125 104.9142853125 137.4171421875z m-130.97142843749998-235.88571374999998c13.1657146875-19.6114284375 26.1942853125-32.777143125 45.80571375-45.8057146875l-65.5542853125-72-52.388571562500005 52.388571562500005 72.137143125 65.417143125M196.5714284375-16.73142843749997c-13.1657146875-13.1657146875-26.1942853125-19.6114284375-45.80571375-19.6114284375-32.777143125 0-52.388571562500005 19.6114284375-52.388571562500005 52.388571562500005 0 19.6114284375 6.582856875 32.777143125 19.6114284375 45.80571375l275.1085715625 255.49714312499998 13.16571375-13.1657146875 45.8057146875-45.80571375L196.5714284375-16.73142843749997m641.9657146874999-13.1657146875c-19.6114284375 0-39.36 6.582856875-52.388571562500005 19.6114284375L445.4857146875 330.377143125c-6.582856875 6.582856875-13.1657146875 13.1657146875-13.1657146875 19.6114284375v39.36c6.582856875 32.777143125 32.777143125 58.971428437499995 65.5542853125 65.5542853125H517.4857146875c6.582856875 0 13.1657146875-6.582856875 19.6114284375-6.582856875 6.582856875 0 6.582856875-6.582856875 13.16571375-13.1657146875l52.388571562500005-52.388570625 26.19428625-26.19428625 262.08000000000004-261.94285687499996c13.1657146875-13.1657146875 19.6114284375-32.777143125 19.6114284375-52.388571562500005 0-39.36-32.777143125-72.137143125-72-72.137143125z m13.0285715625 85.1657146875l-202.971429375 203.1085715625c-6.582856875 6.582856875-6.582856875 6.582856875-13.16571375 6.582856875-13.1657146875 0-19.6114284375-13.1657146875-19.6114284375-26.1942853125 0-6.582856875 0-13.1657146875 6.582856875-13.1657146875l203.1085715625-203.1085715625c6.582856875-6.582856875 6.582856875-6.582856875 13.16571375-6.582856875 13.1657146875 0 19.6114284375 13.1657146875 19.611429375 26.1942853125-0.137143125 6.582856875-0.137143125 13.1657146875-6.72 13.1657146875m-700.937143125-13.0285715625c-13.1657146875 0-26.1942853125-13.1657146875-26.19428625-26.1942853125s13.1657146875-26.1942853125 26.19428625-26.19428625c13.1657146875 0 26.1942853125 13.1657146875 26.1942853125 26.19428625 0 19.6114284375-13.0285715625 26.1942853125-26.1942853125 26.1942853125z m0 0"  horiz-adv-x="1024" />

    
    <glyph glyph-name="rotate-left" unicode="&#59652;" d="M1011.32190493 384q0-101.42476174-39.65968271-193.74730126t-106.62603207-159.28888889-159.28888889-106.62603207-193.74730126-39.65968271q-111.82730126 0-212.60190493 47.13650859T127.75619015 64.77206301000001q-4.55111111 6.50158763-4.22603093 14.62857158t5.52634823 13.3282543l89.07174684 89.72190492q6.50158763 5.85142841 16.25396793 5.85142841 10.40253952-1.3003173 14.95365063-7.80190492 47.46158763-61.76507904 116.37841238-95.57333333t146.28571477-33.8082543q67.61650745 0 129.05650745 26.33142955T747.35746048 148.64253952t71.1923803 106.30095303T844.88127033 384t-26.33142955 129.05650745T747.35746048 619.35746048t-106.30095303 71.1923803T512 716.88127033q-63.71555555 0-122.22984078-23.08063574T285.74476174 627.80952349l89.07174571-89.72190493q20.15492096-19.50476174 9.10222222-44.86095189-11.05269874-26.00634937-38.35936426-26.00634937H54.28825429q-16.90412715 0-29.25714318 12.35301603t-12.35301604 29.25714318V800.10158763q0 27.30666667 26.00634938 38.35936426 25.35619015 11.05269874 44.86095189-9.10222222l84.52063573-83.87047538q69.56698397 65.66603207 158.96380871 101.74984078T512 883.32190493q101.42476174 0 193.74730126-39.65968271t159.28888889-106.62603207 106.62603207-159.28888889 39.65968271-193.74730126z"  horiz-adv-x="1024" />

    
    <glyph glyph-name="icon-down-arrow" unicode="&#58998;" d="M381.672727 209.45454500000005V802.909091a93.090909 93.090909 0 0 0 186.181818 0v-608.069818l212.061091 212.061091a80.616727 80.616727 0 0 0 114.036364-114.036364L547.374545-53.80654500000003a80.523636 80.523636 0 0 0-65.163636-23.272728 80.523636 80.523636 0 0 0-65.163636 23.272728L70.097455 292.77090899999996a80.616727 80.616727 0 0 0 114.036363 114.036364L381.672727 209.45454500000005z"  horiz-adv-x="1024" />

    
    <glyph glyph-name="pingmubili" unicode="&#59105;" d="M841.309091-4.783838H158.771717c-51.975758 0-94.125253 42.149495-94.125252 94.125252V677.753535C64.646465 729.729293 106.79596 771.878788 158.771717 771.878788h682.537374c51.975758 0 94.125253-42.149495 94.125252-94.125253v-588.412121c0.129293-51.975758-42.020202-94.125253-94.125252-94.125252zM864.840404 654.222222c0 25.987879-21.074747 47.062626-47.062626 47.062626H182.30303c-25.987879 0-47.062626-21.074747-47.062626-47.062626v-541.349495c0-25.987879 21.074747-47.062626 47.062626-47.062626h635.474748c25.987879 0 47.062626 21.074747 47.062626 47.062626V654.222222zM696.50101 227.555556c-18.10101 0-32.711111 13.963636-32.711111 31.159596v249.535353c0 17.19596 14.610101 31.159596 32.711111 31.159596s32.711111-13.963636 32.711111-31.159596v-249.535353c0-17.19596-14.610101-31.159596-32.711111-31.159596z m-196.395959 41.632323c-18.10101 0-32.711111 13.963636-32.711112 31.159596s14.610101 31.159596 32.711112 31.159596 32.711111-13.963636 32.711111-31.159596-14.610101-31.159596-32.711111-31.159596z m0 166.270707c-18.10101 0-32.711111 13.963636-32.711112 31.159596s14.610101 31.159596 32.711112 31.159596 32.711111-13.963636 32.711111-31.159596-14.610101-31.159596-32.711111-31.159596zM303.709091 227.555556c-18.10101 0-32.711111 13.963636-32.711111 31.159596v249.535353c0 17.19596 14.610101 31.159596 32.711111 31.159596s32.711111-13.963636 32.711111-31.159596v-249.535353c0-17.19596-14.610101-31.159596-32.711111-31.159596z m0 0"  horiz-adv-x="1024" />

    
    <glyph glyph-name="web" unicode="&#58977;" d="M1021.5424 862.8224c49.7664 0 90.248533-40.482133 90.248533-90.180267v-526.199466c0-49.698133-40.482133-95.914667-90.248533-95.914667h-301.533867v-48.7424l89.224534-73.5232c16.1792-12.970667 21.640533-36.2496 14.813866-55.842133-6.826667-19.524267-25.3952-35.6352-46.148266-35.6352H350.071467c-20.6848 0-38.365867 16.042667-45.2608 35.498666a53.930667 53.930667 0 0 0 16.042666 57.275734l90.453334 72.0896v48.878933H109.704533c-49.698133 0-90.180267 46.216533-90.180266 95.914667V772.642133C19.524267 822.272 60.0064 862.8224 109.704533 862.8224h911.837867zM651.6736 46.421333c-9.8304 7.918933-14.813867 22.801067-14.813867 35.498667V150.528H494.3872v-68.676267c0-12.4928-7.236267-27.306667-16.930133-35.2256l-30.856534-26.760533h233.745067l-28.672 26.624zM114.4832 245.486933h902.280533V767.863467H114.4832v-522.376534z"  horiz-adv-x="1160" />

    
    <glyph glyph-name="icon" unicode="&#58979;" d="M511.1808-122.0608C227.7376-120.832 14.336 103.6288 6.144 363.3152-3.6864 671.3344 236.3392 881.664 490.9056 889.856c307.4048 9.8304 516.5056-229.9904 526.7456-481.4848 12.6976-306.3808-233.472-532.48-506.4704-530.432zM272.5888 384c33.9968-20.0704 44.6464-50.5856 48.7424-85.1968 3.072-26.0096 1.6384-52.0192 2.8672-78.0288 1.8432-38.2976 12.0832-39.3216 39.5264-39.3216 11.8784 0 16.384-3.4816 14.5408-15.1552-0.4096-1.8432 0-3.6864 0-5.7344 0-33.5872 0-33.5872-33.792-32.1536-47.5136 2.048-73.1136 29.2864-77.6192 76.8-3.2768 35.4304 1.4336 71.0656-5.12 106.0864-5.3248 28.672-16.7936 39.936-45.8752 41.5744-7.3728 0.4096-10.24 2.6624-10.0352 9.8304 0.4096 7.168 0 14.1312 0 21.2992 0.2048 9.0112-2.048 19.0464 1.2288 26.624 3.8912 8.8064 15.36 2.6624 23.3472 5.12 14.336 4.3008 23.552 13.7216 27.8528 27.648 3.6864 11.6736 5.9392 23.7568 6.144 36.0448 0.6144 32.1536-2.048 64.512 4.9152 96.0512 9.216 42.5984 29.0816 59.8016 72.704 63.6928 36.0448 3.2768 36.0448 3.2768 36.0448-32.5632 0-19.6608 0-19.8656-18.8416-20.2752-28.8768-0.6144-32.768-9.4208-35.0208-36.864-2.048-25.8048 0-52.0192-2.8672-78.0288-3.6864-35.4304-13.9264-66.7648-48.7424-87.4496zM751.2064 383.7952c-38.0928 22.7328-46.6944 58.5728-49.3568 98.304-1.4336 23.1424-1.2288 46.2848-2.4576 69.4272-1.2288 26.624-8.6016 33.9968-35.2256 35.0208-19.0464 0.6144-19.0464 0.6144-19.0464 20.0704v2.8672c0 30.9248 0 30.9248 31.744 30.1056 48.9472-1.4336 74.752-27.2384 79.4624-75.776 2.6624-27.4432 1.4336-54.8864 2.4576-82.1248 0.4096-13.312 2.8672-26.2144 6.9632-38.7072 6.5536-19.456 16.9984-27.4432 37.6832-27.648 11.0592 0 15.36-3.072 14.336-14.5408-1.024-12.288-0.6144-24.576-0.2048-36.864 0.2048-7.7824-2.4576-10.4448-10.4448-10.8544-28.2624-1.2288-40.7552-13.7216-45.6704-42.1888-4.096-23.1424-2.6624-46.2848-2.8672-69.2224 0-16.9984-1.024-33.9968-4.7104-50.5856-9.4208-41.3696-29.9008-58.7776-72.0896-62.2592-36.864-3.072-35.84-2.8672-37.2736 33.1776-0.6144 15.36 3.2768 19.8656 19.0464 19.6608 27.648-0.2048 34.4064 7.9872 35.6352 35.84 1.2288 30.72 0.4096 61.44 4.9152 91.9552 5.12 31.1296 17.6128 57.1392 47.104 74.3424zM635.6992 350.0032c-19.2512-0.2048-35.6352 15.5648-35.6352 33.9968 0 17.8176 16.1792 33.9968 34.4064 34.2016 19.2512 0.2048 35.6352-15.5648 35.6352-34.2016 0-18.0224-15.9744-33.792-34.4064-33.9968zM545.792 384.2048c0-20.48-13.9264-34.4064-34.4064-34.4064-19.2512 0-33.792 14.5408-33.792 33.5872 0 19.456 15.1552 34.6112 34.6112 34.6112 19.2512 0 33.5872-14.336 33.5872-33.792zM389.12 350.0032c-20.0704 0-34.816 14.7456-34.6112 34.4064 0.2048 19.2512 14.9504 33.5872 33.9968 33.792 19.0464 0 35.2256-15.9744 35.0208-34.816-0.2048-18.2272-15.7696-33.3824-34.4064-33.3824z"  horiz-adv-x="1024" />

    
    <glyph glyph-name="jiaosequanxian" unicode="&#58884;" d="M987.428571 427.885714a528.969143 528.969143 0 0 0-153.6-319.049143 217.6 217.6 0 0 0-21.942857-25.161142l-8.192-7.972572a542.72 542.72 0 0 0-18.285714-16.822857l-10.093714-8.704c-17.188571-14.628571-36.571429-29.988571-55.954286-45.056l-17.773714-13.458286q-11.922286-8.996571-23.698286-17.554285c-7.826286-5.778286-15.579429-11.337143-23.113143-16.749715l-16.530286-11.849143c-44.982857-31.817143-79.433143-54.564571-79.433142-54.564571l-3.218286-2.633143-1.024-0.731428-2.267429-1.609143-1.170285-0.804572-2.267429-1.389714-1.097143-0.658286c-0.877714-0.585143-1.755429-1.024-2.706286-1.536h-0.585142a34.084571 34.084571 0 0 0-3.291429-1.609143l-0.950857-0.438857-2.413714-1.024-1.170286-0.438857-2.121143-0.804571-1.170286-0.438857-2.340571-0.804572h-0.804572l-3.072-0.877714h-0.658285l-2.340572-0.585143h-9.069714V-128h-6.875429v0.512a83.017143 83.017143 0 0 0-43.885714 18.651429 1700.717714 1700.717714 0 0 0-274.944 217.892571A528.530286 528.530286 0 0 0 36.571429 427.885714V671.817143 676.571429a74.166857 74.166857 0 0 0 75.190857 71.753142V748.982857 749.714286h6.217143A511.561143 511.561143 0 0 1 453.339429 872.521143a73.581714 73.581714 0 0 0 32.036571 23.259428h53.248a73.728 73.728 0 0 0 32.036571-23.259428A511.414857 511.414857 0 0 1 906.020571 749.714286h6.144v-1.389715A74.166857 74.166857 0 0 0 987.428571 676.571429v-248.685715zM512 749.714286A182.857143 182.857143 0 0 1 475.428571 387.730286V128a36.571429 36.571429 0 0 1 73.142858 0V237.71428600000002h36.571428a36.571429 36.571429 0 0 1 0 73.142857H548.571429V387.730286A182.857143 182.857143 0 0 1 512 749.714286z m0-292.571429A109.714286 109.714286 0 1 0 621.714286 566.857143 109.714286 109.714286 0 0 0 512 457.142857z"  horiz-adv-x="1024" />

    
    <glyph glyph-name="duobianxingchaxun" unicode="&#58909;" d="M959.146667 196.494222v266.808889a115.086222 115.086222 0 0 1 57.628444 100.977778c0 64.853333-50.460444 115.370667-108.145778 115.370667-36.067556 0-64.910222-14.392889-86.528-43.235556L216.348444 795.022222C209.123556 852.764444 158.663111 896 108.088889 896 43.292444 896 0 845.539556 0 780.629333c0-50.460444 28.842667-93.752889 72.135111-108.202666l72.078222-591.303111c-36.067556-21.617778-50.460444-57.685333-50.460444-93.752889 0-64.853333 50.460444-115.370667 108.145778-115.370667 50.517333 0 86.528 28.842667 108.202666 72.135111l519.168 86.471111c21.617778-28.785778 50.517333-43.235556 86.584889-43.235555 64.853333 0 108.145778 50.460444 108.145778 115.370666-7.224889 36.067556-28.842667 79.36-64.853333 93.752889z m-86.584889 266.808889v-252.359111c-36.067556-14.449778-64.853333-50.517333-72.135111-86.528l-497.550223-79.36c-14.449778 28.842667-36.067556 50.517333-72.135111 57.685333L158.72 686.876444c14.392889 7.224889 28.842667 21.617778 36.067556 28.842667L800.426667 557.056c0-43.235556 28.842667-79.303111 72.135111-93.752889z"  horiz-adv-x="1024" />

    
    <glyph glyph-name="businessInfo" unicode="&#58892;" d="M510.2 379.79999999999995m-393.2 0a393.2 393.2 0 1 1 786.4 0 393.2 393.2 0 1 1-786.4 0ZM625.3 166.29999999999995c-0.7-3-4.7-11.6-4.7-11.6-3.3-6.9-8.2-13-11.3-20-1-2.3-0.9-4.9-2-7.2-0.6-1.2-1.4-2.1-1.4-2.2-5.2-6.5-5.2-6.5-9.5-7.5-3.9-0.9-5.7 0.5-7.6 3.4-0.7 1-1.4 7.1-1.2 7.8l0.3 0.9c0.3 0.8 1.8 4.8 5.7 8.7 0.7 0.7 2.1 2.1 2.5 3 0.4 0.9 0.1 1.9 0 2.7-0.6 2.4-1 8 1.1 11.6 2.1 3.5 6.1 2.1 9 3.4 2.2 1 2.9 3.5 4.7 4.9 2.2 1.8 5.4 2.1 7.1 4.7 2.1 3.2 2.7 4.8 3 5.7 0.3 1 0.5 1.1 1 1.3 3-2.6 4.2-5.9 3.3-9.6M306.7 60.10000000000002c0.1 0 0.1-0.1 0.2-0.2h-0.1c-4.7 2.2-4.7 2.2-5.3 2.5-2.9 1.9-9 5.9-10.2 7.6h0.1s0.1 0 0.1-0.1l15.2-9.8M891.1 304.1l-4.8-22.5c0-0.1-0.1-0.2-0.1-0.3 0 0.9 0.3 1.7 0.4 2.6-0.3-0.6-0.4-1.3-0.7-1.9-0.2 0.5 0.4 2.7 0.4 2.7 0 0.1 3.7 11.9 1.3 13.9-0.5-0.2-0.6-0.8-1-1.2-0.8 0.8 0.6 5.8 0.7 5.8 1 3 0.2 4.5-0.7 5.2 0.9 2.9 1.4 4.4 1.9 5.2 0.1 0.1 0.2 0.2 0.4 0.3 0.3-0.3 0.4-0.6 0.2-3.5-0.5-7.8-0.5-7.8-0.5-8.1 1.2 4.7 1.5 9.6 3.3 14.1 0.7-0.3 1.1-0.7 0.7-3.1l-1.5-9.2M884.4 296.70000000000005c-0.1-0.4-0.3-1.2-0.6-1.9-1.5-2.8-1.5-2.7-1.7-2.4-0.1 0.2-0.1 0.5-0.2 0.7-0.1 0.1-0.3 0.1-0.3 0.2 0 0 0 0.2 0.1 0.8 0 0.1 0.8 2.6 2.1 4.3 0.6 0.7 0.7 0.1 0.7-0.3 0.1-0.3 0-0.8-0.1-1.4M886.4 324.6c-0.2-1.7-1.1-3.2-1.3-4.9-0.1-1 0.2-1.9 0.1-2.9-0.1-0.7-0.3-1.5-0.3-2.2v-0.5c0-0.7 0-1.5-0.1-2.3-0.1-0.6-0.2-1.6-0.4-1.9-0.5 0-0.4-0.6-0.6-0.9-0.3 0.2-0.4 1-0.3 2.6 0.1 1.8 0.9 3.4 0.9 5.2-0.1 2.7-0.1 2.7 0 3.8 0 0.2 0 0.5 0.1 0.7 0.4 3.1 1.6 4.7 1.6 4.7s0.1 0.1 0.2 0.1c0-0.1 0.2-0.3 0.1-1.5M858.2 283.70000000000005c-0.2-3.9-2.1-7.5-2.8-11.3-0.7-4.3 0.1-5.6 0.6-6.4 0.6-0.9 1.3-2 1-4.1-0.3-2-1.9-3.4-2.3-5.4-0.5-2.1-0.4-4.4-0.9-6.5-3.8-18.2-5.9-18.6-6.7-18.8-0.8 0.7-0.1 2.4-1.5 2.5-0.8 0.1-0.8 0.1-1.9-2.2-0.5-1.1-1.1-1.3-1.4-1.3-0.6-0.1-0.8 0.6-1.3 0.6-1 0.1-2-1.4-3-0.4-0.2 0.3-0.5 1.1-0.6 1.9-0.3 2.5 0.8 4.9 0.2 7.4-0.3 1.2-1.3 2.1-1.1 3.4 0 0.1 1.2 7.2 2.1 9.3 0 0 0.7 1.6 2.1 1.6 0.5 0 1 0 1.2 0.6 0 0.1 0.1 0.2 0.1 0.3 0.8 1.7 0.7 3.6 1.5 5.3 0.9 2.1 2.8 3.5 3.4 5.8 0.7 2.5 0.6 5.1 1.5 7.6 0.6 1.7 2.1 2.9 3 4.4 1.7 2.8 1.4 6.2 2.7 9.1 0.4 0.9 0.6 1.3 1 1.6 1.8 1.1 3.2-2.9 3.1-5M287.7 76.79999999999995c-52.8 23.4-115.2 84.9-151.6 247.8s81.3 316.2 142.8 358.2L269 665s-12.3-8.8-1.3-17.9c5.8-4.8 2.4-11.5 6.6-11.3 3.9 0.2 9.5 9 13.4 8.3 2.7-0.4 6.2-5.8 7.1-8.4 0.4-1-0.3-3.3 0-4.3 0.5-1.8 4.4-4.4 4.2-6.3-0.3-3.2-6.3-7.6-9.2-9-4.4-2.2-19.5-2.7-19.5-2.7s-22.7-6.4-26.7-14.9-8-17.1-8-17.1 25.4 20.1 35.4 23.5 17.4 3.1 17.2-1.2c-0.2-4.1-16.5-8.7-9.7-13.3 6.8-4.7 13.7-8 8-16.7-5.7-8.7-10.3-9.6-6.8-14.3 3.5-4.7 7.8-10.7-5.5-12-13.3-1.3-26 4-27.3-1.3s-8.7-4-6-11.3c2.7-7.3 4.7-14-4.7-14.7-9.3-0.7-23.8 2-20.9 3.3 2.9 1.3 6.3 7.6 4.8 10-1.9 2.9-9.7 1.9-12.5-6.3-2.8-8.3 0.6-2.5-9.4-16.4-10-13.9-25.2-18.3-31.3-29.2s-4.3-17.5-8.8-18.6c-2.4-0.6-1.1 12.3-5.8 13.2-4.8 0.9-6-14-5.3-18.7 0.7-4.7 7.6-8.2 2-22.8-5.6-14.7-14-31.2-6-39.8 8-8.7 4.2-5.1 12.1-19.1s29.9-45.7 35.3-57.3c5.3-11.6-7.8-16.7 1.8-21.2 9.5-4.4 14.2-3.9 18.2-10.2 4-6.3 7.2-0.8 15.3-14.9 8.2-14 25.8-21.1 27.3-40.1s-4-17.3-2.7-24.7c1.3-7.3 7.3-24.8 3.3-33.1s-14-8.2-9.3-16.2c4.7-8 4.7-19.2 6-25.3 1.4-6 41.8-57.8 37.4-55.9zM371.4 629.8s7.7 3.9 20.8 5.5c13.1 1.6 6.8-3.1 15.5-2.7 8.7 0.4 15 0.5 20.5-2.7s28.4-9.5 16.6-15.8-18.9-3.5-23.7-14.4-5.5-16.4-20.5-16.4-26 3.2-33.1-3.9c-7.1-7.1-15.8-22.9-20.9-13.4-5.1 9.5-9.1 22.1 0 30s27.1 12.9 20.5 23.4c-6.7 10.4 4.3 10.4 4.3 10.4zM446.1 195.70000000000005s6.7 6.7 5 13.4c-1.7 6.7-18.9 25.6-17.8 39.5 1.1 13.9 5.6 21.4-2.8 21.3-8.4-0.1-10.6 12-27.8 5.9-17.3-6-40.1-9.9-54 21.2s-16.1 34.5-11.7 45.7c4.5 11.1 9.2 25.6 6.8 37-2.3 11.4 18.8 19.2 29.4 28.1s17.3 8.7 32.3 16.5 6 24.1 19.3 21.3c13.4-2.8 30.7-26.2 33.5-31.1 3.2-5.4 14.5-9.4 18.7-6.9 4.4 2.7 20 18.3 27 21.1 7.5 2.9 4.2-14.4 19.4-16.1 3.4-0.4 12.8 7.1 15.3 5.3 5.5-3.9-7.2-19.2-8-29.7-0.7-8.5 21.1-12.1 23.8-17.2 6-11.9 7.5-22.1 13.9-34.2 12.4-23.3 6.3-28.7 40.2-19.7 34 9-24.7-67.5-24.7-67.5S566.4 239 568 223.39999999999998s9.4-34-3.4-39.5c-12.8-5.6-19.5-10.8-18.9-17.9 0.6-7.1-2.2-2.1-11.1-13.8-8.9-11.7 7.8-4.5-11.1-18.9-18.9-14.5-51.8-24.9-56.8-10.2s-37.3 47-20.6 72.6zM884.2 365c0.2 4.4 0.2 8.9 0.2 13.4 0 50.7-10 99.2-28.3 143.6-7.7 22.8-35.7 69.1-55 93.4-15.2 3.1-21.2-20.1-36.4-23.6-18.1-4.2-23.1-2.6-40-6.3-17-3.7-14.1-1.2-27.2 0s-60.2 17.2-39.8-7.2c20.4-24.4-57.7-9.6-56.3-25.3 2.1-25.1 51.3-49 14.2-67.1-14.5-7.1-43.2-27.2 27.8-49.1 9.4-2.9 31.1-28.1 21.6-35.9-9.5-7.7-13.6 6.5-13.6 6.5s-23.5 34.7-39.5 22c-16-12.7-22.4 6.9-41.3-1.4-15.7-6.9-32.1-27.4-27.8-37.1 4.9-10.9 16.7-5 22.1-16.3 4.8-10 13.1-47.5 26.2-50.4 13-2.9 36.1 12.9 43.2-17.5 7-30.3 40.2-36 56.3-29.8 16 6.2 29.1 49.8 29.1 49.8s-2 6.1 18.1 12.9c20.1 6.8 54.4-67.9 58.2-80.9 3.8-13 14 21.7 13 45.1-1 23.4-5.3 10.5 6.8 36.7 12 26.2 23.3-7.8 41.2-29.6 7.5-9.1 13.1-14.4 18.1-16.9 4.7 20.5 7.7 41.6 8.9 63.2-0.5 2.7-0.3 5.2 0.2 7.8zM417.6 457.9s-11-13.1-19-23.9c-8-10.8-45-29.7-51-9.4s-1.3 42.3 7.8 50.3 21.5-5 25.8 0-15.7 26.1-3.2 28c12.5 2 21.5-1 33.5 13s-7 26 6 36 9.9 31 42.9 36 43.1-10.2 62.1-6.6 18 2.6 29 7.6 30.5 7.2 34.2-14.4 2.8-35.6 12.8-42.6 31.9-35 10.5-36-19.9 5.6-19-15.2c0.9-20.8-17.7-5.7 0-27.8s5.6-14.4-12.4-10.2c-18 4.2-37.1 26.8-54.6 11-17.4-15.8-21.3-4.6-29.4-19.7s-16.9-19.1-29.1-9.4c-12.1 9.8-38.9 48.5-46.9 33.3z"  horiz-adv-x="1024" />

    
    <glyph glyph-name="save" unicode="&#58935;" d="M829.75 799.39h-119.8A59.57 59.57 0 0 1 696.4 801H329.85a59.57 59.57 0 0 1-13.55-1.57H198.14c-55 0-100-45-100-100v-631.65c0-55 45-100 100-100h631.61c55 0 100 45 100 100V699.39c0 55-45 100-100 100z m-495.9-64H692.4v-280.8H333.85z m531.9-667.61a36.3 36.3 0 0 0-36-36H198.14a36.3 36.3 0 0 0-36 36V699.39a36.3 36.3 0 0 0 36 36h71.71v-284.8a60.18 60.18 0 0 1 60-60H696.4a60.18 60.18 0 0 1 60 60v284.8h73.36a36.3 36.3 0 0 0 36-36zM615.93 678.66a32.09 32.09 0 0 1-32-32v-109a32 32 0 1 1 64 0v109a32.09 32.09 0 0 1-32 32z"  horiz-adv-x="1024" />

    
    <glyph glyph-name="home" unicode="&#59231;" d="M587.8 5H436.2V201.89999999999998c0 16.9 13.7 30.5 30.5 30.5h90.5c16.9 0 30.5-13.7 30.5-30.5V5zM360.4 252.39999999999998v-323.1h303.1V252.39999999999998c0 30.8-25 55.8-55.8 55.8H416.2c-30.8 0-55.8-25-55.8-55.8zM840.4-70.70000000000005H183.6c-27.9 0-50.5 22.6-50.5 50.5V409.2H82.5c-21.3 0-40.4 13.4-47.6 33.5-7.2 20.1-1 42.5 15.4 56.1L479.9 852.4c18.7 15.3 45.6 15.3 64.2 0l429.5-353.7c16.5-13.6 22.6-36 15.4-56.1-7.2-20.1-26.2-33.5-47.6-33.5h-50.5v-429.5c0-27.7-22.6-50.3-50.5-50.3z m-606.3 101h555.8V459.8c0 17.2 8.6 32.4 21.7 41.5L512 748 212.4 501.3c13.1-9.1 21.7-24.3 21.7-41.5v-429.5z"  horiz-adv-x="1024" />

    
    <glyph glyph-name="performance" unicode="&#59320;" d="M79 314v-262H942V578l-138 82-214-192-78 54-172-164-100 76zM944 24H80v72h864v-72zM116.53 276a36.044 36.044 0 0 0-25.486 61.528l122.14 122.146a36.042 36.042 0 0 0 50.972 0l64.618-64.62 150.718 150.724a36.04 36.04 0 0 0 50.97 0l50.6-50.6L783.8 697.922a36.04 36.04 0 0 0 50.97 0l98.118-98.122a36.042 36.042 0 1 0-50.968-50.972l-72.628 72.63-202.74-202.74a36.04 36.04 0 0 0-50.97 0l-50.6 50.6-150.72-150.718a36.042 36.042 0 0 0-50.972 0l-64.618 64.62-96.656-96.66A35.93 35.93 0 0 0 116.53 276z"  horiz-adv-x="1024" />

    
    <glyph glyph-name="topology" unicode="&#58945;" d="M870.034286 242.468571h-47.908572a53.394286 53.394286 0 0 0 53.394286-53.76v-200.777142a53.394286 53.394286 0 0 0-53.394286-53.394286h47.908572a53.76 53.76 0 0 1 53.394285 53.394286v200.777142a53.76 53.76 0 0 1-53.394285 53.76zM360.594286 772.388571l307.931428 0 0-307.931428-307.931428 0 0 307.931428ZM888.32 261.48571400000003h-76.8v55.954286A67.657143 67.657143 0 0 1 744.96 384h-203.337143v55.954286h73.142857A78.262857 78.262857 0 0 1 694.857143 518.2171430000001V718.994286a78.262857 78.262857 0 0 1-79.725714 78.262857h-200.777143a78.262857 78.262857 0 0 1-78.262857-78.262857v-200.777143a78.262857 78.262857 0 0 1 78.262857-78.262857h73.142857V384H284.16A67.291429 67.291429 0 0 1 219.428571 317.44000000000005v-55.954286H152.868571a73.142857 73.142857 0 0 1-73.142857-73.142857v-192a73.142857 73.142857 0 0 1 73.142857-73.142857h191.268572a73.142857 73.142857 0 0 1 73.142857 73.142857v190.902857a73.142857 73.142857 0 0 1-73.142857 73.142857h-73.142857v57.051429a14.628571 14.628571 0 0 0 13.531428 15.36h460.8a14.994286 14.994286 0 0 0 13.897143-15.36v-55.954286h-62.171428a73.142857 73.142857 0 0 1-73.142858-73.142857v-192a73.142857 73.142857 0 0 1 73.142858-73.142857h191.268571a73.142857 73.142857 0 0 1 73.142857 73.142857v190.902857a73.142857 73.142857 0 0 1-73.142857 74.24z m-502.857143 256V718.994286a28.891429 28.891429 0 0 0 28.891429 28.891428h200.777143a28.891429 28.891429 0 0 0 28.891428-28.891428v-200.777143a29.257143 29.257143 0 0 0-28.891428-28.891429h-200.777143a28.891429 28.891429 0 0 0-28.891429 28.891429z m-14.262857-329.142857v-192a27.428571 27.428571 0 0 0-27.062857-27.428571H152.868571a27.428571 27.428571 0 0 0-27.062857 27.428571v190.902857a27.428571 27.428571 0 0 0 27.062857 27.428572h191.268572a27.428571 27.428571 0 0 0 27.062857-27.428572zM914.285714-3.657143000000019a27.428571 27.428571 0 0 0-27.062857-27.428571h-190.171428a27.428571 27.428571 0 0 0-27.062858 27.428571v190.902857a27.428571 27.428571 0 0 0 27.062858 27.428572h191.268571a27.428571 27.428571 0 0 0 27.062857-27.428572z"  horiz-adv-x="1024" />

    
    <glyph glyph-name="jichupeizhi" unicode="&#58975;" d="M0 106.667c0 129.621 105.067 234.666 234.667 234.666h170.645a64 64 0 0 0 64.021-64.021v-170.645c0-129.622-105.066-234.667-234.666-234.667C105.045-128 0-22.933 0 106.667z m85.333 0c0-82.475 67.03-149.334 149.334-149.334 82.474 0 149.333 67.03 149.333 149.334V256H234.667c-82.475 0-149.334-67.03-149.334-149.333zM1024 661.333c0-129.621-105.067-234.666-234.667-234.666H618.688a64 64 0 0 0-64.021 64.021V661.333C554.667 790.955 659.733 896 789.333 896 918.955 896 1024 790.933 1024 661.333z m-85.333 0c0 82.475-67.03 149.334-149.334 149.334C706.86 810.667 640 743.637 640 661.333V512h149.333c82.475 0 149.334 67.03 149.334 149.333zM0 661.333C0 790.933 105.045 896 234.667 896c129.6 0 234.666-105.045 234.666-234.667v-170.645a64 64 0 0 0-64.021-64.021H234.667C105.067 426.667 0 531.712 0 661.333z m85.333 0C85.333 579.03 152.192 512 234.667 512H384V661.333c0 82.304-66.859 149.334-149.333 149.334-82.304 0-149.334-66.859-149.334-149.334z m920.704-518.613c9.899 0 18.027-8.107 17.963-18.048v-36.096c0-9.963-8.128-18.07-18.027-18.07H984.32c-9.899 0-20.437-7.743-23.424-17.215l-12.416-30.23c-4.672-8.768-2.773-21.717 4.224-28.693l15.403-15.36c7.04-7.04 7.04-18.517 0-25.557l-25.6-25.536a18.09 18.09 0 0 0-25.515 0l-15.296 15.36c-6.997 7.04-19.947 8.917-28.693 4.202l-30.251-12.437c-9.45-2.944-17.237-13.461-17.237-23.403v-21.589a18.133 18.133 0 0 0-18.07-18.048h-36.074a18.133 18.133 0 0 0-18.091 18.048v21.59c0 9.94-7.723 20.458-17.237 23.402l-30.294 12.437c-8.746 4.694-21.632 2.816-28.586-4.181l-15.424-15.381a18.07 18.07 0 0 0-25.494 0l-25.557 25.536a18.133 18.133 0 0 0 0 25.557l15.36 15.36c7.04 6.976 8.917 19.925 4.267 28.693l-12.502 30.23c-2.944 9.472-13.461 17.216-23.381 17.28h-21.675a18.09 18.09 0 0 0-18.069 18.026v36.075c0 9.963 8.107 18.07 18.09 18.07h21.654c9.92 0 20.48 7.743 23.403 17.237l12.458 30.25c4.694 8.768 2.774 21.654-4.266 28.715l-15.318 15.36a18.048 18.048 0 0 0 0 25.536l25.536 25.493a18.027 18.027 0 0 0 25.494 0l15.402-15.36c7.04-6.997 19.904-8.917 28.672-4.224l30.23 12.395c9.514 2.965 17.237 13.483 17.237 23.467v21.653a18.133 18.133 0 0 0 18.09 18.07h36.075a18.133 18.133 0 0 0 18.07-18.07v-21.675c0-9.941 7.786-20.48 17.237-23.402l30.187-12.438c8.768-4.693 21.696-2.773 28.693 4.224l15.403 15.36a18.048 18.048 0 0 0 25.536 0l25.557-25.536c7.04-6.997 7.04-18.474 0-25.536l-15.36-15.36c-7.04-7.04-8.917-19.946-4.245-28.672l12.416-30.25c2.986-9.494 13.482-17.238 23.402-17.238h21.718z m-136.064-34.645a82.048 82.048 0 1 1-164.117 0 82.048 82.048 0 0 1 82.07-82.027 82.027 82.027 0 0 1 82.047 82.027z"  horiz-adv-x="1024" />

    
    <glyph glyph-name="Tomcatfuwu" unicode="&#58906;" d="M517.071 597.072c1.307-35.708 6.17-68.427 14.018-98.528 0 0 71.418-170.882 207.901-215.376 39.635 27.855 74.034 63.937 100.582 106.939l6.732 11.22a324.952 324.952 0 0 1 8.416 15.703l5.421 11.22c23.744 51.225 36.831 110.117 35.521 174.433h0.188c0 17.57-5.607 92.166-15.703 112.546-27.298-10.471-77.217-44.119-88.431-78.524-54.034 8.042-114.794 7.106-168.078-2.055-8.973 37.015-53.66 65.436-87.309 81.326-14.21-23.933-20.566-79.647-18.886-119.094-0.188 0.375-0.37 0.188-0.37 0.188z m0 0zM950.069 113.781c-17.201 19.26-50.854 28.234-78.897 27.673-12.9 15.328-72.167 78.897-108.063 116.66l-18.511-12.338-16.078 5.238c-149.566 48.609-225.472 226.97-228.65 234.445l-0.935 2.246-0.375 1.493c-107.125-33.842-217.622-102.831-281.934-169.946l-10.846-11.407c-5.233-5.607-10.096-11.027-14.954-16.452-76.094-84.692-131.62-175.926-131.62-190.882v-7.855h100.208l-1.68 9.347c-5.607 29.915 5.607 67.308 28.79 95.163 14.585 17.575 38.512 37.58 76.282 46.741 31.038 11.214 112.738 2.242 112.738 2.242 161.529-14.394 315.957-79.459 490.393-170.508h95.911l1.31 6.356c1.681 8.604-3.179 20.754-13.087 31.783z m0 0zM448.827 172.303c-11.776 7.663-29.914 8.786-46.553 2.991-10.278 11.402-17.571 25.238-22.061 41.503-1.492 0.187-3.178 0.374-4.671 0.561 0 0-50.107 5.607-86.939 2.617 28.605-25.425 61.883-51.6 98.154-77.025h74.413v7.851c0 8.603-4.489 16.265-12.343 21.503z m0 0zM187.271 334.581l6.918 7.292a46.2 46.2 0 0 0 4.301 4.302c-20.379 32.906-29.351 60.759-32.348 82.819-4.859 35.152 3.552 67.494 24.307 93.482 32.718 40.571 79.084 43.375 126.757 35.334-0.932-7.481 0-14.768 2.991-19.257 12.53-18.694 80.395-25.239 120.967-7.106-29.915 41.877-90.304 62.257-107.131 54.034-5.607-2.804-9.723-7.667-12.526-13.461-16.452 2.991-32.906 5.233-44.868 5.046-42.065-0.375-74.226-14.955-98.341-44.869-23.557-29.351-33.28-65.81-27.673-105.445 4.116-29.351 16.453-60.202 36.645-92.17z m0 0z"  horiz-adv-x="1024" />

    
    <glyph glyph-name="morentu" unicode="&#59180;" d="M64-119.808c-30.72 0-55.808 25.088-55.808 55.808v896c0 30.72 25.088 55.808 55.808 55.808h896c30.72 0 55.808-25.088 55.808-55.808v-896c0-30.72-25.088-55.808-55.808-55.808h-896zM675.84 348.16l-204.8-235.52h410.112L675.84 348.16zM621.568 114.176l-271.872 314.368-271.872-314.368H0v-169.472c0-32.256 26.112-58.88 58.88-58.88h906.752c32.256 0 58.88 26.624 58.88 58.88V114.176h-402.944zM770.56 595.456c0-42.496 34.816-77.312 77.312-77.312s77.312 34.816 77.312 77.312-34.816 77.312-77.312 77.312-77.312-34.304-77.312-77.312zM960 880.128c26.624 0 48.128-21.504 48.128-48.128v-896c0-26.624-21.504-48.128-48.128-48.128h-896c-26.624 0-48.128 21.504-48.128 48.128v896c0 26.624 21.504 48.128 48.128 48.128h896m0 15.872h-896C28.672 896 0 867.328 0 832v-896c0-35.328 28.672-64 64-64h896c35.328 0 64 28.672 64 64v896c0 35.328-28.672 64-64 64z"  horiz-adv-x="1024" />

    
    <glyph glyph-name="res-warning" unicode="&#58958;" d="M518.69696 535.5264c-77.1584 0-140.032-65.34144-140.032-145.69472v-152.40704h63.67744V403.04128h31.81056v-165.61152h190.99136V383.1296c0 84.0448-65.67936 152.3968-146.44736 152.3968zM521.74336 880.09216c-278.10304 0-503.56736-225.44384-503.56736-503.55712 0-278.12352 225.46432-503.57248 503.56736-503.57248 278.11328 0 503.57248 225.44384 503.57248 503.57248 0.00512 278.11328-225.45408 503.55712-503.57248 503.55712z m163.15392-267.51488l24.1408-21.5808-41.088-49.6896-24.1408 21.59616 41.088 49.67424z m12.06272-229.44768v-178.82112H346.8288V389.8368c0 98.59072 77.11232 178.82624 171.86304 178.82624 98.28352-0.00512 178.26816-83.23584 178.26816-185.53344zM505.98912 668.032h31.84128v-66.24256h-31.84128V668.032zM359.26016 612.15744l38.41024-49.6896-24.82688-20.73088-38.44608 49.68448 24.86272 20.736z m401.36192-474.12736h-477.44v33.152h477.44v-33.152z"  horiz-adv-x="1025" />

    
    <glyph glyph-name="resource1" unicode="&#59023;" d="M0 832.235838A63.95603 63.95603 0 0 0 63.764162 896H374.782337a63.95603 63.95603 0 0 0 63.764162-63.764162V521.217663a63.95603 63.95603 0 0 0-63.764162-63.764162H63.764162A63.95603 63.95603 0 0 0 0 521.217663V832.235838z m584.749984-584.813941a63.95603 63.95603 0 0 0 63.828119 63.828119h310.954219a63.95603 63.95603 0 0 0 63.764162-63.828119v-310.954219a63.828118 63.828118 0 0 0-63.764162-63.764162h-310.954219a63.95603 63.95603 0 0 0-63.828119 63.764162v310.954219z m-584.749984 0a63.95603 63.95603 0 0 0 63.764162 63.828119H374.782337a63.95603 63.95603 0 0 0 63.764162-63.828119v-310.954219A63.95603 63.95603 0 0 0 374.782337-127.296484H63.764162A63.828118 63.828118 0 0 0 0-63.532322v310.954219zM803.991256 896a219.241272 219.241272 0 1 0 0-438.546499 219.305228 219.305228 0 0 0-219.305228 219.241271A219.369184 219.369184 0 0 0 803.991256 896z"  horiz-adv-x="1024" />

    
    <glyph glyph-name="gaojing" unicode="&#58992;" d="M944 0h-112V352a320 320 0 0 1-640 0v-352H80a16 16 0 0 1-16-16v-64a16 16 0 0 1 16-16h864a16 16 0 0 1 16 16v64a16 16 0 0 1-16 16zM464 864l96 0 0-128-96 0 0 128ZM214.490073 771.364344l83.138439 48 64-110.851252-83.138439-48-64 110.851252ZM44.500805 566.4622059999999l48 83.138439 110.851252-64-48-83.138439-110.851252 64ZM820.641513 585.638655l110.851251 64 48-83.138438-110.851251-64-48 83.138438ZM662.335355 708.611656l64 110.851252 83.138439-48-64-110.851252-83.138439 48ZM638.72 368h-101.6l19.04 132.96a8 8 0 0 1-13.92 6.24L379.2 317.12a8 8 0 0 1 6.08-13.12h101.6l-19.04-132.96a8 8 0 0 1 13.92-6.24L644.8 354.88a8 8 0 0 1-6.08 13.12z"  horiz-adv-x="1024" />

    
    <glyph glyph-name="arrow-left" unicode="&#59000;" d="M249.490341 310.471601l313.726431-313.726431a73.0786 73.0786 0 0 0-103.333141-103.33314l-438.471601 438.471601a73.0786 73.0786 0 0 0 0 103.333141l438.471601 438.471601a73.0786 73.0786 0 1 0 103.333141-103.333141L249.490341 456.628801H950.021802a73.0786 73.0786 0 0 0 0-146.1572H249.490341z"  horiz-adv-x="1024" />

    
    <glyph glyph-name="search-minus" unicode="&#59069;" d="M607.965631 512.037496v-63.99375c0-13.198711-10.798945-23.997656-23.997657-23.997657H248.000784c-13.198711 0-23.997656 10.798945-23.997657 23.997657v63.99375c0 13.198711 10.798945 23.997656 23.997657 23.997657h335.96719c13.198711 0 23.997656-10.798945 23.997657-23.997657z m401.960746-569.3444L953.331904-113.901377c-18.798164-18.798164-49.195196-18.798164-67.79338 0L685.958014 85.479152c-8.999121 8.999121-13.998633 21.19793-13.998633 33.99668V152.072649c-70.593106-55.19461-159.384435-87.991407-255.975002-87.991407C186.206818 64.081242 0.025 250.26306 0.025 480.040621S186.206818 896 415.984379 896s415.959379-186.181818 415.959379-415.959379c0-96.590567-32.796797-185.381896-87.991407-255.975002h32.596817c12.79875 0 24.997559-4.999512 33.99668-13.998633l199.380529-199.38053c18.598184-18.798164 18.598184-49.195196 0-67.99336zM687.957819 480.040621c0 150.385314-121.588126 271.97344-271.97344 271.97344S144.010939 630.425935 144.010939 480.040621s121.588126-271.97344 271.97344-271.97344 271.97344 121.588126 271.97344 271.97344z"  horiz-adv-x="1024" />

    
    <glyph glyph-name="business" unicode="&#58905;" d="M960 640H64c-35.2 0-64-28.8-64-64v-576c0-35.2 28.8-64 64-64h896c35.2 0 64 28.8 64 64V576c0 35.2-28.8 64-64 64zM57.6-28.799999999999955c-12.8 0-25.6 9.6-25.6 25.6V547.2c3.2 32 28.8 60.8 64 60.8h873.6c12.8 0 22.4-12.8 22.4-25.6s-9.6-25.6-25.6-25.6H96c-6.4 0-12.8-6.4-12.8-12.8v-550.4c0-12.8-12.8-22.4-25.6-22.4zM44.8 400h928c12.8 0 25.6-9.6 25.6-22.4 0-12.8-9.6-25.6-25.6-25.6h-928M643.2 752c25.6 0 44.8-19.2 44.8-44.8v-83.2h-288V707.2c0 25.6 19.2 44.8 44.8 44.8h198.4m0 48h-201.6C393.6 800 352 758.4 352 707.2V576h384V707.2C736 758.4 694.4 800 643.2 800zM960 592c9.6 0 16-6.4 16-16v-576c0-9.6-6.4-16-16-16H64c-9.6 0-16 6.4-16 16V576c0 9.6 6.4 16 16 16h896M960 640H64c-35.2 0-64-28.8-64-64v-576c0-35.2 28.8-64 64-64h896c35.2 0 64 28.8 64 64V576c0 35.2-28.8 64-64 64zM611.2 784c25.6 0 44.8-19.2 44.8-44.8v-83.2h-288V739.2c0 25.6 19.2 44.8 44.8 44.8h198.4m0 48h-201.6C361.6 832 320 790.4 320 739.2V608h384V739.2C704 790.4 662.4 832 611.2 832zM44.8 422.4h937.6v-48H44.8zM464 288c-9.6 0-16 6.4-16 16v160c0 9.6 6.4 16 16 16h96c9.6 0 16-6.4 16-16v-160c0-9.6-6.4-16-16-16h-96zM560 464v-160h-96v160h96m0 32h-96c-19.2 0-32-16-32-32v-160c0-16 12.8-32 32-32h96c19.2 0 32 16 32 32v160c0 16-12.8 32-32 32z"  horiz-adv-x="1024" />

    
    <glyph glyph-name="ring" unicode="&#59010;" d="M508.754304 803.862217c173.41854 0 315.882793-139.741665 322.570098-316.503858 2.722588-70.835755 8.961515-147.773097 18.785452-230.844339 9.65226-81.55645 148.841531-89.45054 100.377247-138.638896-48.465294-49.188355-220.884071-115.12931-441.733807-115.129309-220.883061 0-402.953089 70.2157-441.766122 115.129309-38.813034 44.914619 90.139266 64.424142 100.410572 151.254091 9.306888 78.695511 15.339803 151.668134 18.132071 218.850209 7.376032 176.589507 149.908955 315.882793 323.224489 315.882793zM511.512237 732.1983749999999c-44.363235 0-80.315329 36.64183-80.31533 81.900812 0 45.224647 35.951085 81.900813 80.31432 81.900813s80.315329-36.676166 80.315329-81.899803c0-45.259992-35.951085-81.901822-80.314319-81.901822zM521.576521-127.92930999999999c119.128363 0 130.504458 111.198927 130.504457 112.612734 0 1.378462-64.735179-14.821744-136.84639-14.821744-72.04254 0-124.19484 13.097909-124.19484 14.821744 0 1.688489 11.375085-112.613744 130.536773-112.613744zM245.231842 850.982375C101.422454 785.834162 23.417688 648.057688 11.077176 444.753294l70.2157-4.309081c10.581333 174.831337 82.72789 294.718107 196.133365 346.078675l-32.194399 64.458477z m533.903906 0C922.946146 785.834162 1000.951921 648.057688 1013.257089 444.753294l-70.180355-4.309081c-10.616679 174.831337-82.72789 294.718107-196.134375 346.078675l32.194398 64.458477z"  horiz-adv-x="1024" />

    
    <glyph glyph-name="topology1" unicode="&#59004;" d="M910.44468053 413.47263147H863.633408v52.0126464c0 19.070976-15.6041216 34.6750976-34.6750976 34.6750976H561.95590827c-5.2002816 15.6041216-17.3375488 29.474816-32.94057814 34.6750976v43.3455104h69.34910294c19.07534507 0 34.67946667 15.6041216 34.67946666 34.6750976v173.375488c0 19.070976-15.6041216 34.6750976-34.67946666 34.6750976H424.99003733c-19.070976 0-34.6750976-15.6041216-34.6750976-34.6750976v-173.375488c0-19.070976 15.6041216-34.6750976 34.6750976-34.6750976h69.3501952v-43.3455104c-15.6041216-5.2002816-27.738112-19.070976-32.9416704-34.6750976H194.40162133c-19.070976 1.7334272-34.67400533-13.8706944-36.40743253-32.9416704v-53.7460736h-45.08002987c-19.070976 0-34.6750976-15.6041216-34.6750976-34.6750976V274.77333333c0-19.070976 15.6041216-34.6750976 34.6750976-34.6750976h104.02420054c19.070976 0 34.6750976 15.6041216 34.6750976 34.6750976v104.02420054c0 19.070976-15.6041216 34.6750976-34.6750976 34.6750976H194.40162133v52.0126464h268.7336448c6.9337088-13.8706944 17.3375488-22.5378304 31.20387414-27.738112v-24.27562667h-34.6750976c-19.070976 0-34.6750976-15.6041216-34.6750976-34.6750976v-104.02420053c0-19.070976 15.6041216-34.6750976 34.6750976-34.6750976h104.02420053c19.07534507 0 34.6750976 15.6041216 34.6750976 34.6750976v104.02420053c0 19.070976-15.59975253 34.6750976-34.6750976 34.6750976h-34.67400533v24.27562667c13.86960213 5.2002816 24.2745344 13.86632533 31.20715093 27.738112h268.73473707v-52.0126464h-22.5378304c-19.070976 0-34.6750976-15.6041216-34.6750976-34.6750976V274.77333333c0-19.070976 15.6041216-34.6750976 34.6750976-34.6750976h34.6750976v-39.8753792H529.01533013c-19.070976 0-34.6750976-15.6041216-34.6750976-34.67400533v-45.08002987h-34.6750976c-19.070976 0-34.6750976-15.6041216-34.6750976-34.6750976v-104.02420053c0-19.070976 15.6041216-34.6750976 34.6750976-34.6750976h104.02420054c19.07534507 0 34.6750976 15.6041216 34.6750976 34.6750976v104.02420053c0 19.070976-15.59975253 34.6750976-34.6750976 34.6750976h-34.67400534v45.08002987h312.0791552c19.070976-1.73779627 34.6750976 13.86632533 36.4085248 32.94057813v41.6088064h34.67400534c19.070976 0 34.6750976 15.6041216 34.6750976 34.6750976v104.02420054c0.00109227 19.070976-15.60302933 34.6750976-36.40743254 34.6750976z m-398.7668992 55.4795008c-10.39947093 0-17.3375488 6.93807787-17.3375488 17.3375488 0 10.40384 6.93807787 17.3375488 17.3375488 17.3375488 10.40384 0 17.3375488-6.9337088 17.3375488-17.3375488 0-10.39947093-6.9337088-17.3375488-17.3375488-17.3375488z"  horiz-adv-x="1024" />

    
    <glyph glyph-name="duobianxing" unicode="&#58889;" d="M940.53506 230.863204l48.812944 499.126496a85.200284 85.200284 0 1 1-107.814342 107.814342L166.010305 788.142061a85.200284 85.200284 0 1 1-107.814342-107.814342l104.822494-642.317419a85.200284 85.200284 0 1 1 107.814342-107.814342l561.834012 192.852904a85.200284 85.200284 0 1 1 107.814342 107.814342z m21.738067 619.218196a39.325281 39.325281 0 1 0-39.311804-39.325281 39.365712 39.365712 0 0 0 39.311804 39.325281z m-916.300615-88.946832a39.325281 39.325281 0 1 0 39.325281-39.311804 39.365712 39.365712 0 0 0-39.325281 39.311804z m144.107345-843.202491a39.311804 39.311804 0 1 0 39.271374 39.311804 39.352235 39.352235 0 0 0-39.311805-39.311804z m642.613908 259.226108l-561.834013-192.852904a85.591111 85.591111 0 0 1-53.637635 53.705019L112.359193 680.300765a85.577634 85.577634 0 0 1 53.651112 53.705019l715.496403 49.688935a85.55068 85.55068 0 0 1 53.705019-53.705019l-48.812943-499.126496a85.55068 85.55068 0 0 1-53.705019-53.705019z m80.779896-66.373204a39.325281 39.325281 0 1 0 39.311804 39.311804 39.352235 39.352235 0 0 0-39.311804-39.311804z m0 0"  horiz-adv-x="1047" />

    
    <glyph glyph-name="index" unicode="&#58921;" d="M910.3-92.89999999999998h-792c-43.6 0-79.2 35.6-79.2 79.2v792c0 43.6 35.6 79.2 79.2 79.2h792c43.6 0 79.2-35.6 79.2-79.2v-792c0-43.5-35.7-79.2-79.2-79.2zM831.2 768c-43.7 0-79.2-35.5-79.2-79.2 0-27.4 13.9-51.6 35.1-65.8L647.5 301.79999999999995c-16.4 3-33.6 0.8-48.9-6.6l-138 161c7 11.8 11.1 25.7 11.1 40.4 0 28.3-15.1 54.4-39.6 68.6-24.5 14.1-54.7 14.1-79.2 0s-39.6-40.3-39.6-68.6c0-21.1 8.3-40.3 21.8-54.6l-125-210c-5.8 1.4-11.8 2.1-18 2.1-43.7 0-79.2-35.5-79.2-79.2s35.5-79.2 79.2-79.2 79.2 35.5 79.2 79.2c0 24.6-11.3 46.7-28.9 61.2L371 420.4c6.8-1.9 14-3 21.5-3 14.3 0 27.7 3.8 39.2 10.4l136.2-158.9c-9-13-14-28.6-14-45 0-28.3 15.1-54.4 39.6-68.6 24.5-14.1 54.7-14.1 79.2 0s39.6 40.3 39.6 68.6c0 25.3-12.1 48.9-32.1 63.7l140.1 322.8c3.6-0.5 7.3-0.8 11-0.8 43.7 0 79.2 35.5 79.2 79.2-0.1 43.8-35.5 79.2-79.3 79.2z"  horiz-adv-x="1024" />

    
    <glyph glyph-name="kuangxuan1" unicode="&#58964;" d="M307.2 827.733333h170.666667v-102.4H307.2v102.4z m409.6 0H546.133333v-102.4h170.666667v102.4z m-409.6-887.466666h170.666667v102.4H307.2v-102.4z m-136.533333 887.466666c-56.746667 0-102.4-45.653333-102.4-102.4v-68.266666h102.4v34.133333c0 18.773333 15.36 34.133333 34.133333 34.133333h34.133333v102.4h-68.266666z m0-238.933333h-102.4v-170.666667h102.4v170.666667z m-102.4-409.6h102.4v170.666667h-102.4v-170.666667z m102.4-102.4v34.133333h-102.4v-68.266666c0-56.746667 45.653333-102.4 102.4-102.4h68.266666v102.4h-34.133333c-18.773333 0-34.133333 15.36-34.133333 34.133333z m682.666666 614.4v-34.133333h102.4v68.266666c0 56.746667-45.653333 102.4-102.4 102.4h-68.266666v-102.4h34.133333c18.773333 0 34.133333-15.36 34.133333-34.133333z m0-273.066667h102.4v170.666667h-102.4v-170.666667z m87.466667-390.4l-104.106667 104.106667 119.04 47.786667-375.466666 136.533333 136.533333-375.466667 47.786667 119.04 104.106666-104.106666c20.053333-20.053333 52.48-20.053333 72.533334 0 19.626667 19.626667 19.626667 52.053333-0.426667 72.106666z"  horiz-adv-x="1024" />

    
    <glyph glyph-name="caidanguanli" unicode="&#58899;" d="M51.9 272.4m-47.5 0a47.5 47.5 0 1 1 95 0 47.5 47.5 0 1 1-95 0ZM975.9 224.9H252.6c-26.1 0-47.5 21.4-47.5 47.5s21.4 47.5 47.5 47.5H976c26.1 0 47.5-21.4 47.5-47.5-0.1-26.1-21.4-47.5-47.6-47.5zM51.9 48.9m-47.5 0a47.5 47.5 0 1 1 95 0 47.5 47.5 0 1 1-95 0ZM975.9 1.4H252.6c-26.1 0-47.5 21.4-47.5 47.5s21.4 47.5 47.5 47.5H976c26.1 0 47.5-21.4 47.5-47.5-0.1-26.1-21.4-47.5-47.6-47.5zM51.9 496m-47.5 0a47.5 47.5 0 1 1 95 0 47.5 47.5 0 1 1-95 0ZM975.9 448.4H252.6c-26.1 0-47.5 21.4-47.5 47.5s21.4 47.5 47.5 47.5H976c26.1 0 47.5-21.4 47.5-47.5-0.1-26.1-21.4-47.5-47.6-47.5zM51.9 719.5m-47.5 0a47.5 47.5 0 1 1 95 0 47.5 47.5 0 1 1-95 0ZM975.9 672H252.6c-26.1 0-47.5 21.4-47.5 47.5s21.4 47.5 47.5 47.5H976c26.1 0 47.5-21.4 47.5-47.5-0.1-26.2-21.4-47.5-47.6-47.5z"  horiz-adv-x="1024" />

    
    <glyph glyph-name="dapingmu" unicode="&#58883;" d="M288 64h595.2v-64H288zM928 896H0v-659.2h64V787.2c0 25.6 19.2 44.8 44.8 44.8h812.8V896zM960 761.6H134.4v-614.4H1024V761.6h-64z m-44.8-486.4H243.2c-25.6 0-44.8 19.2-44.8 44.8V646.4c0 25.6 19.2 44.8 44.8 44.8h665.6c25.6 0 44.8-19.2 44.8-44.8V320c6.4-25.6-12.8-44.8-38.4-44.8z"  horiz-adv-x="1024" />

    
    <glyph glyph-name="search-plus" unicode="&#60302;" d="M607.965631 512.037496v-63.99375c0-13.198711-10.798945-23.997656-23.997657-23.997657h-111.989063v-111.989063c0-13.198711-10.798945-23.997656-23.997657-23.997657h-63.99375c-13.198711 0-23.997656 10.798945-23.997657 23.997657v111.989063h-111.989063c-13.198711 0-23.997656 10.798945-23.997657 23.997657v63.99375c0 13.198711 10.798945 23.997656 23.997657 23.997657h111.989063v111.989063c0 13.198711 10.798945 23.997656 23.997657 23.997657h63.99375c13.198711 0 23.997656-10.798945 23.997657-23.997657v-111.989063h111.989063c13.198711 0 23.997656-10.798945 23.997657-23.997657z m401.960746-569.3444L953.331904-113.901377c-18.798164-18.798164-49.195196-18.798164-67.79338 0L685.958014 85.479152c-8.999121 8.999121-13.998633 21.19793-13.998633 33.99668V152.072649c-70.593106-55.19461-159.384435-87.991407-255.975002-87.991407C186.206818 64.081242 0.025 250.26306 0.025 480.040621S186.206818 896 415.984379 896s415.959379-186.181818 415.959379-415.959379c0-96.590567-32.796797-185.381896-87.991407-255.975002h32.596817c12.79875 0 24.997559-4.999512 33.99668-13.998633l199.380529-199.38053c18.598184-18.798164 18.598184-49.195196 0-67.99336zM687.957819 480.040621c0 150.385314-121.588126 271.97344-271.97344 271.97344S144.010939 630.425935 144.010939 480.040621s121.588126-271.97344 271.97344-271.97344 271.97344 121.588126 271.97344 271.97344z"  horiz-adv-x="1024" />

    
    <glyph glyph-name="zhexian" unicode="&#58950;" d="M895.604814 512.169365a127.943545 127.943545 0 0 1-127.943545-127.943545 127.943545 127.943545 0 0 1 32.625604-85.082457l-118.987496-178.481245A127.943545 127.943545 0 0 1 639.717725 128.338731h-8.316331L453.559867 660.583877A127.943545 127.943545 0 1 1 255.88709 768.056455a127.943545 127.943545 0 0 1 33.905039-86.361893l-115.14919-178.481245A127.943545 127.943545 0 0 1 127.943545 512.169365a127.943545 127.943545 0 1 1 127.943545-127.943545 127.943545 127.943545 0 0 1-29.427016 81.244151l117.068344 181.679834A121.546368 121.546368 0 0 1 383.830635 640.11291h8.31633l177.841528-532.884864A127.943545 127.943545 0 1 1 767.661269 0.395186a127.943545 127.943545 0 0 1-32.625603 85.082457l118.987496 178.481245A127.943545 127.943545 0 0 1 895.604814 256.282275a127.943545 127.943545 0 0 1 0 255.88709z"  horiz-adv-x="1024" />

    
    <glyph glyph-name="zoom" unicode="&#58943;" d="M107.818667 54.314666999999986l247.978666 248.021333 68.992-68.992-247.296-247.253333h222.890667v-97.536H10.282667v390.101333h97.536v-224.341333z m0 667.392v-224.341334H10.282667V887.466667h390.101333v-97.536H177.493333L424.789333 542.72 355.797333 473.728 107.818667 721.706667z m804.565333-667.392v224.341333h97.536v-390.101333h-390.101333v97.536h222.890666l-247.253333 247.253333 68.949333 68.992 247.978667-248.021333z m0 667.392l-247.978667-247.978667-68.949333 68.949333 247.253333 247.253334h-222.890666V887.466667h390.101333v-390.101334h-97.536V721.706667z"  horiz-adv-x="1024" />

    
    <glyph glyph-name="connected" unicode="&#58924;" d="M690.972444 761.230222l-112.241777-112.184889a110.933333 110.933333 0 0 1 0.284444-156.899555l19.000889-19.000889a110.876444 110.876444 0 0 1 156.842667-0.227556l112.184889 112.184889a110.933333 110.933333 0 0 1-0.227556 156.842667l-19.000889 19.000889a110.876444 110.876444 0 0 1-156.842667 0.284444z m-64.398222 64.341334a201.898667 201.898667 0 0 0 285.582222-0.227556l19.000889-19.000889a201.955556 201.955556 0 0 0 0.284445-285.582222L819.2 408.462222a201.898667 201.898667 0 0 0-285.582222 0.284445l-19.000889 19.000889a201.955556 201.955556 0 0 0-0.227556 285.582222l112.184889 112.184889zM246.897778 317.212444l-112.184889-112.184888a110.933333 110.933333 0 0 1 0.284444-156.842667l19.000889-19.000889a110.876444 110.876444 0 0 1 156.842667-0.284444l112.241778 112.184888a110.933333 110.933333 0 0 1-0.284445 156.842667l-19.000889 19.057778a110.876444 110.876444 0 0 1-156.842666 0.227555zM182.613333 381.55377799999997a201.898667 201.898667 0 0 0 285.582223-0.227556l18.944-19.000889a201.955556 201.955556 0 0 0 0.284444-285.582222l-112.241778-112.184889a201.898667 201.898667 0 0 0-285.582222 0.227556l-18.944 19.000889a201.955556 201.955556 0 0 0-0.284444 285.582222l112.184888 112.184889zM313.287111 271.928889l310.840889 310.784c42.894222 42.894222 107.292444-21.504 64.341333-64.398222L377.742222 207.530667c-42.894222-42.951111-107.292444 21.447111-64.398222 64.341333z"  horiz-adv-x="1024" />

    
    <glyph glyph-name="disconnected" unicode="&#58926;" d="M760.981019 747.8054569999999l-127.2132-99.385312a115.010892 115.010892 0 0 1-19.600992-161.445919l16.840289-21.533484a114.955678 114.955678 0 0 1 161.390704-20.097919l127.2132 99.385312A115.010892 115.010892 0 0 1 939.101584 706.229268l-16.840289 21.533484a114.955678 114.955678 0 0 1-161.33549 20.097919z m-54.385852 69.569718a203.298178 203.298178 0 0 0 285.346275-35.281786l16.840289-21.533484a203.353392 203.353392 0 0 0-34.78486-285.456702l-127.213199-99.385312a203.298178 203.298178 0 0 0-285.401488 35.337l-16.785075 21.533484a203.353392 203.353392 0 0 0 34.784859 285.456702l127.213199 99.385312zM254.833709 309.405802l-101.593874-125.44635a115.010892 115.010892 0 0 1 17.226787-161.721988l21.257414-17.171574c49.4718-40.085409 121.857436-32.576297 161.777203 16.729861l101.593875 125.44635a115.010892 115.010892 0 0 1-17.282002 161.721988l-21.257414 17.171574a114.955678 114.955678 0 0 1-161.777203-16.729861zM186.147416 365.06157700000006a203.298178 203.298178 0 0 0 286.008843 29.815593l21.257414-17.226787a203.353392 203.353392 0 0 0 30.31252-285.953629l-101.593875-125.44635a203.298178 203.298178 0 0 0-286.008843-29.815593l-21.257414 17.226787a203.353392 203.353392 0 0 0-30.31252 285.953629l101.593875 125.44635zM141.810524 737.646069a44.17125 44.17125 0 1 0 65.704734 59.079047l91.324059-101.428233a44.17125 44.17125 0 0 0-65.64952-59.079046L141.810524 737.590855zM340.305078 851.82875a44.17125 44.17125 0 1 0 88.3425 0v-131.078184a44.17125 44.17125 0 1 0-88.3425 0V851.82875zM39.55408 536.7773099999999a44.17125 44.17125 0 1 0 12.533593 87.459075l153.163809-22.030411a44.17125 44.17125 0 0 0-12.588807-87.40386L39.55408 536.7773099999999zM562.210394 490.28707a44.17125 44.17125 0 1 1 54.827564-69.293648l120.1458 95.023401a44.17125 44.17125 0 1 1-54.77235 69.293648L562.210394 490.28707zM320.151945 263.13641800000005a44.17125 44.17125 0 1 1 66.477731-58.140408l134.55667 153.936806a44.17125 44.17125 0 1 1-66.532945 58.140407L320.151945 263.13641800000005z"  horiz-adv-x="1082" />

    
    <glyph glyph-name="mokuai" unicode="&#59108;" d="M258.4-93.5c-68.6 0-170.6 24.4-175.5 25.6l-12.9 3-1.8 13.1c-1.3 9.4-32.3 232.1-29.3 303.6v0.5c1.6 23.9 15.9 41.3 38.2 46.5 30 7 66.3-9.7 82.7-38.1l0.3-0.6c4-7.5 21.6-12.1 40.5-6.8 11.4 3.2 48.6 18 45.3 72.9v0.5c-1.4 46.5-28.9 71.6-54.2 79.5-20.9 6.6-40.8 2.2-50.7-11.1l-0.4-0.5c-16.1-20.3-40-28.9-62.4-22.3-20 5.9-34.3 23.2-36.4 44.1-5.8 51.5 2.5 222.6 2.9 229.9l1 20.2 20.1-1.7c0.5 0 48.8-4.1 100.2-6.7 87.1-4.3 109.6-0.7 114.9 0.8 6.3 5.7 7.9 9.1 8.3 10.1-1.6 3-9.6 8.6-13.1 11-2.6 1.8-5.3 3.7-7.8 5.6-17.6 12.6-28.5 30.2-31.6 51-2.5 16.6 0 35.5 7.3 56 8.2 27.6 27.9 51.2 56.8 68.1 24.2 14.2 53.7 23 83.1 24.7h1.2c31.1 0 60.6-7.2 83.1-20.3 29.5-17.1 46.8-43.6 50.1-76.6 3.3-30.4 2.1-48.3-4.3-63.6-6.9-16.3-19.3-27.7-33.6-40.7-10.3-10.5-15.1-20.7-12.5-26.7 2.1-4.9 10.7-10.2 24.9-10.3 66.7 2.9 251.4 11.7 253.3 11.7l23.2 1.1-2.9-23c-0.2-1.8-22.8-179.7-11.8-244 1.1-4.8 8.1-9.2 15.8-9.8 6.7-0.5 18.9 1.2 25.5 18.8 11 30.7 61.9 50.4 109.1 42.3 29.5-5.1 54.5-20.1 72.4-43.5 20.8-27.2 31.3-64.7 31.3-111.4 0-34.4-8.4-65.7-24.3-90.5-15.1-23.6-36-40.4-60.5-48.6-42.8-14.3-87.3 0.6-116.3 38.8-5 5-28.3 17.1-41 13-1.9-0.6-7-2.2-9-15.7v-0.3c-6.8-40.9 10.4-173 17.5-220.5l2.7-18.2-18-3.8c-0.5-0.1-53.1-11.3-113.6-20.1-82.9-12.1-140.9-14.2-172.4-6.2l-0.8 0.2c-30.6 9.1-51.1 30.5-54.8 57.3-3 22.1 6.2 43.5 23.7 54.4 3.9 2.8 12.7 21.2 7.4 40.5-7 25.7-34.9 33.4-57.1 35.4l-0.5 0.1c-29 3.4-66.8 0.8-81.7-30.7-11.6-24.5-4-51.5 0.7-56l0.1-0.1c18.3-16.4 25.4-42.2 18.6-67.3-6.1-22.4-22.3-38.8-42.4-42.8l-1.1-0.2c-8.3-1.1-17.5-1.6-27.5-1.6zM105-33c34.3-7.6 128.1-26.7 174.5-20.3 5.2 1.3 9.9 7 12 14.7 2.3 8.4 1.7 20.2-7 28-18.8 16.7-27.9 61.8-10.9 99.8 10.9 24.5 41.3 64.1 122.2 54.7 26-2.4 47.3-9.9 63.2-22.3 14.3-11.2 24.2-26.4 28.4-44 3.6-15.1 3.1-31.9-1.6-47.2-4.8-15.6-13-27.7-23.2-34.2-4.4-2.7-6.8-9.4-5.8-16.1 1.6-11.2 11.3-20.4 26.8-25.1 49.2-12.1 183.7 10 250.1 23.1-6.5 46.7-22.3 168.7-14.8 214.2 5.2 34.4 26.5 44.7 38.8 47.8 31 7.8 70.3-13.6 80.7-27.4 18.9-25 46.1-34.5 73-25.6 28.1 9.4 58.2 41.2 58.2 102.1 0 67.2-25.3 108.6-71.4 116.5-15.2 2.6-32.1 1.2-46.2-4-13-4.8-18.8-10.9-19.6-13.1l-0.1-0.3c-13.2-35.4-42.3-46-65.2-44.2-25.6 2.1-46.6 19-51 41.3l-0.1 0.5c-9.6 55.7 2.9 180.9 8.8 232.8-52.1-2.5-178.5-8.4-230.9-10.7h-0.9c-29 0-52.5 13.2-61.3 34.3-4.2 10.2-10.7 37.4 21.2 69.5l0.7 0.7c26.6 24.1 30.6 27.8 25.8 71.7v0.2c-5.8 58.2-77.8 61.8-93.8 61.9-22.8-1.4-46.5-8.5-65.1-19.4-14.2-8.3-32.6-23.1-39.3-46l-0.4-1.2c-14.3-39.6-0.9-54.8 10.4-62.8l1-0.8c1.5-1.2 3.7-2.8 6.1-4.4 11.5-8 28.9-20.1 29.9-41 0.7-14.9-7.1-29.1-23.9-43.4l-0.6-0.5-0.7-0.5c-7.4-5.3-19.2-8.8-55.2-9.4-20.1-0.4-46.6 0.2-78.6 1.7-33.6 1.6-66.4 3.9-86.6 5.4-2.1-47.4-6.5-165.2-2.1-203.3v-0.3c0.8-7.6 6.3-10 8.6-10.7 6.9-2 14.6 1.3 20.7 8.9 20 26.6 56.6 36.4 93.4 24.8 21.8-6.9 41.6-20.8 55.8-39.4 15.9-20.8 24.8-47 25.7-75.9 1.7-29.4-5.4-55.7-20.4-76-12.7-17.1-31.6-30.1-53.1-36.1-35.9-10.1-71.7 0.6-85.3 25.6-8.5 14.5-28.1 22.2-40 19.4-4.5-1-7.6-3.3-8.1-10.9C75.5 191.29999999999995 98.3 16.700000000000045 105-33z"  horiz-adv-x="1024" />

    
    <glyph glyph-name="rom" unicode="&#58891;" d="M551.04 466.432a39.04 39.04 0 1 1-78.08 0 39.04 39.04 0 0 1 78.08 0zM270.08 755.2A78.08 78.08 0 0 1 192 677.12v-593.152c0-43.072 34.944-78.08 78.08-78.08h483.84a78.08 78.08 0 0 1 78.08 78.08V677.12a78.08 78.08 0 0 1-78.08 78.08H270.08zM512 677.12a210.624 210.624 0 0 0 143.936-364.608c-21.12 15.936-40.768 31.552-51.968 42.88A85.824 85.824 0 0 1 464 261.12 210.752 210.752 0 0 0 512 677.12z m-241.92-554.112a39.04 39.04 0 1 0 78.08 0 39.04 39.04 0 0 0-78.08 0zM526.848 311.03999999999996a24.064 24.064 0 0 0 33.984 0c5.504-5.632 158.976-113.664 176.704-131.456a56.192 56.192 0 0 0 0-79.296 56.192 56.192 0 0 0-79.296 0c-18.688 18.752-126.272 171.712-131.392 176.704a24.128 24.128 0 0 0 0 34.048zM128 896h768a64 64 0 0 0 64-64v-896a64 64 0 0 0-64-64H128a64 64 0 0 0-64 64V832a64 64 0 0 0 64 64z m0-64v-896h768V832H128z"  horiz-adv-x="1024" />

    
    <glyph glyph-name="view" unicode="&#58930;" d="M512 120.68571399999996c205.312 0 409.6 162.084571 409.6 263.314286S717.312 647.314286 512 647.314286C305.883429 647.314286 102.4 486.4 102.4 384s203.483429-263.314286 409.6-263.314286zM512 18.285713999999984c-282.770286 0-512 220.16-512 365.714286 0 145.554286 229.229714 365.714286 512 365.714286s512-222.208 512-365.714286c0-143.506286-229.229714-365.714286-512-365.714286z m0 219.428572a146.285714 146.285714 0 1 1 0 292.571428 146.285714 146.285714 0 0 1 0-292.571428z"  horiz-adv-x="1024" />

    
    <glyph glyph-name="yulan1" unicode="&#58903;" d="M330.794 115.403c-44.49 0-80.734 36.472-80.734 81.22V564.074c0 44.69 36.215 81.22 80.734 81.22H918.13c44.52 0 80.734-36.472 80.734-81.22v-367.453c0-44.69-36.158-81.219-80.734-81.219z m-16.167 443.05v-349.988s0-15.824 6.792-23.23 20.476-6.292 20.476-6.292h563.152s15.01-0.828 22.83 7.134 6.706 22.06 6.706 22.06l-0.07 350.145s1.669 12.671-4.781 20.162-20.975 6.45-20.975 6.45h-565.05s-14.511 0.67-22.345-6.45-6.792-19.976-6.792-19.976z m-204.502-26.568c0-22.374 11.857-38.897 34.245-38.897s33.047 16.495 33.047 38.897v175.35c0 9.49 1.898 16.124 7.577 21.718s11.658 6.763 21.275 6.763h178.504c22.303 0 38.455 12.486 38.455 33.218S407.104 803.18 384.773 803.18H190.86c-44.49 0.071-80.734-36.4-80.734-81.148z m0-301.075c0 22.374 11.857 38.898 34.245 38.898s33.047-16.495 33.047-38.898v-175.379c0-9.489 1.898-16.124 7.577-21.717s11.658-6.764 21.275-6.764h178.504c22.303 0 38.455-12.485 38.455-33.218s-16.124-34.245-38.455-34.245H190.86c-44.49 0-80.734 36.428-80.734 81.176V230.81z m1040.633 301.075c0-22.374-11.858-38.897-34.246-38.897s-33.047 16.495-33.047 38.897v175.35c0 9.49-1.897 16.124-7.576 21.718s-11.658 6.763-21.275 6.763H876.109c-22.302 0-38.454 12.486-38.454 33.218s16.123 34.246 38.454 34.246h193.93c44.49 0.071 80.733-36.4 80.733-81.148z m0-301.075c0 22.374-11.858 38.898-34.246 38.898s-32.975-16.453-32.975-38.898v-175.379c0-9.489-1.898-16.124-7.577-21.717s-11.658-6.764-21.275-6.764H876.109c-22.302 0-38.454-12.485-38.454-33.218s16.123-34.245 38.454-34.245h193.93c44.49 0 80.733 36.428 80.733 81.176V230.81z"  horiz-adv-x="1262" />

    
    <glyph glyph-name="all" unicode="&#58893;" d="M591.418514 449.6384c0-11.483429 6.129371-22.089143 16.062172-27.823543 9.947429-5.7344 22.191543-5.7344 32.124343 0a32.117029 32.117029 0 0 1 16.062171 27.823543c0 11.483429-6.114743 22.089143-16.062171 27.838171a32.14336 32.14336 0 0 1-32.124343 0 32.140434 32.140434 0 0 1-16.062172-27.838171z m-112.479085 0c0-17.744457 14.394514-32.138971 32.138971-32.138971 17.744457 0 32.138971 14.394514 32.138971 32.138971 0 17.744457-14.394514 32.138971-32.138971 32.138971-17.759086 0-32.138971-14.394514-32.138971-32.138971z m-112.479086 0c0-17.744457 14.394514-32.138971 32.138971-32.138971 17.744457 0 32.138971 14.394514 32.138972 32.138971 0 17.744457-14.394514 32.138971-32.138972 32.138971-17.759086 0-32.138971-14.394514-32.138971-32.138971z m0 0M908.551314 816.683886H112.7424c-43.139657 0-77.809371-34.669714-77.809371-77.809372v-579.320685c0-43.125029 34.669714-77.809371 77.809371-77.809372h367.879314v-72.718628H218.448457c-16.062171 0-29.5936-13.531429-29.5936-29.5936s13.531429-29.5936 29.5936-29.5936h584.382172c16.062171 0 29.5936 13.531429 29.5936 29.5936s-13.531429 29.5936-29.5936 29.5936H540.672v72.718628h367.879314c43.139657 0 77.809371 34.669714 77.809372 77.809372V738.874514c0 43.125029-34.684343 77.809371-77.809372 77.809372z m18.607543-656.2816c0-10.152229-8.455314-18.607543-18.607543-18.607543H112.7424c-10.152229 0-18.607543 8.455314-18.607543 18.607543V738.874514c0 10.152229 8.455314 18.607543 18.607543 18.607543h795.808914c10.152229 0 18.607543-8.455314 18.607543-18.607543v-578.472228z m0 0"  horiz-adv-x="1024" />

    
    <glyph glyph-name="duobianxing1" unicode="&#59232;" d="M528.6 26L65.1 740.8l530.7-268 362.5 252.6L900 200.8 528.6 26z m-281 550.9l304.3-469.2 288.5 135.8 38.8 348.8-278-193.8-353.6 178.4z"  horiz-adv-x="1024" />

    
    <glyph glyph-name="daping" unicode="&#58904;" d="M42.802944-85.19705599999998h312.845438v-0.142202h-312.845438zM329.340925 471.383419a127.982225 127.982225 0 1 1-127.982225-127.982225 127.982225 127.982225 0 0 1 127.982225 127.982225z m-213.303708 0a85.321483 85.321483 0 1 0 85.321483-85.321483 85.321483 85.321483 0 0 0-85.321483 85.321483zM0 896l0.711012-616.447716a112.19775 112.19775 0 0 0 42.660742 38.821275V853.339258H1535.786696v-881.655325H431.015692v-42.660742H1578.447438V896zM583.030135 276.13942499999996a63.991112 63.991112 0 0 1-53.752535 116.17942 554.58964 554.58964 0 0 0-114.899597-67.403972c-27.302875-12.371615-53.610332-23.463408-76.078322-32.564366A129.973059 129.973059 0 0 1 275.588391 312.969865a19.623941 19.623941 0 0 1-14.220248-4.834884L199.936675 256.088877l-63.137897 51.903902a20.050549 20.050549 0 0 1-14.220247 4.692681A131.252882 131.252882 0 0 1 0 182.14359100000001V-127.857798h398.166921V182.00138900000002A835.29732 835.29732 0 0 1 479.080128 213.428135 495.29121 495.29121 0 0 1 583.030135 276.13942499999996z m-183.014582-47.353423l-24.032217-10.380781-2.133037-0.853214A31.426746 31.426746 0 0 1 355.50618 184.98764100000005v-270.184697H42.660742V177.30870700000003A92.716012 92.716012 0 0 0 127.982225 270.309124a16.637689 16.637689 0 0 0 12.65602-4.550479L199.936675 213.428135l56.880989 51.903902A16.779892 16.779892 0 0 0 270.184697 270.309124a92.716012 92.716012 0 0 0 47.069018-17.348702 31.995556 31.995556 0 0 1 30.715734-3.128454l24.885432 10.096375 61.573671 28.440495a669.915845 669.915845 0 0 1 112.19775 66.266352 21.330371 21.330371 0 1 0 17.917511-38.679073 465.002083 465.002083 0 0 0-106.651854-63.706707c-22.183586-10.38078-41.807527-17.490904-57.876406-23.463408zM1177.436467 642.8796l40.527705-41.380919-138.363005-138.505208-138.789613 138.64741-168.936537-168.794334 30.146924-30.289126 138.789613 138.789612 138.789613-138.789612 30.146924 30.289126 138.363005 138.505208 43.087349-42.234134v113.761977h-113.761978zM782.113595 335.153451h42.660742v-238.900153h-42.660742zM913.935287 420.474934h42.660741v-326.354673h-42.660741zM1060.119428 361.460908h42.660741v-267.198444h-42.660741zM1206.161366 420.474934h42.660742v-326.354673h-42.660742z"  horiz-adv-x="1578" />

    
    <glyph glyph-name="mysql" unicode="&#58980;" d="M512 490.666667c-170.666667 0-341.333333 51.2-341.333333 149.333333s170.666667 149.333333 341.333333 149.333333 341.333333-51.2 341.333333-149.333333-170.666667-149.333333-341.333333-149.333333z m0 234.666666c-179.2 0-277.333333-55.466667-277.333333-85.333333s98.133333-85.333333 277.333333-85.333333 277.333333 55.466667 277.333333 85.333333-98.133333 85.333333-277.333333 85.333333zM512 300.8c-170.666667 0-341.333333 51.2-341.333333 149.333333 0 17.066667 14.933333 32 32 32s32-14.933333 32-32c0-29.866667 98.133333-85.333333 277.333333-85.333333s277.333333 55.466667 277.333333 85.333333c0 17.066667 14.933333 32 32 32s32-14.933333 32-32c0-98.133333-170.666667-149.333333-341.333333-149.333333zM512 128c-170.666667 0-341.333333 51.2-341.333333 149.333333 0 17.066667 14.933333 32 32 32s32-14.933333 32-32c0-29.866667 98.133333-85.333333 277.333333-85.333333 17.066667 0 32-14.933333 32-32S529.066667 128 512 128zM512-46.933333c-170.666667 0-341.333333 51.2-341.333333 149.333333 0 17.066667 14.933333 32 32 32s32-14.933333 32-32c0-29.866667 98.133333-85.333333 277.333333-85.333333 17.066667 0 32-14.933333 32-32s-14.933333-32-32-32zM202.666667 85.333333c-17.066667 0-32 14.933333-32 32v533.333334c0 17.066667 14.933333 32 32 32s32-14.933333 32-32v-533.333334c0-17.066667-14.933333-32-32-32zM821.333333 251.733333c-17.066667 0-32 14.933333-32 32V650.666667c0 17.066667 14.933333 32 32 32s32-14.933333 32-32v-366.933334c0-17.066667-14.933333-32-32-32zM949.333333-66.133333l-10.666666 10.666666c-10.666667 12.8-23.466667 23.466667-38.4 32-2.133333 2.133333-4.266667 2.133333-6.4 2.133334l40.533333 8.533333 6.4 4.266667v4.266666l-6.4 10.666667c-2.133333 4.266667-6.4 6.4-8.533333 10.666667-23.466667 21.333333-44.8 34.133333-66.133334 42.666666-4.266667 2.133333-6.4 4.266667-8.533333 6.4l-19.2 42.666667-6.4 12.8c-4.266667 8.533333-6.4 14.933333-10.666667 23.466667-17.066667 29.866667-40.533333 55.466667-70.4 76.8-19.2 12.8-40.533333 25.6-70.4 25.6 0 0-2.133333 0-6.4 4.266666-12.8 8.533333-29.866667 19.2-49.066666 19.2-6.4 0-14.933333-2.133333-19.2-8.533333-4.266667-4.266667-6.4-10.666667-6.4-19.2 0-6.4 2.133333-12.8 6.4-19.2 2.133333-4.266667 6.4-8.533333 10.666666-14.933333l6.4-6.4c2.133333-4.266667 6.4-8.533333 6.4-12.8 2.133333-4.266667 2.133333-8.533333 4.266667-14.933334 2.133333-6.4 4.266667-10.666667 6.4-17.066666 2.133333-6.4 6.4-12.8 10.666667-17.066667l6.4-10.666667c-6.4-21.333333-12.8-46.933333-6.4-74.666666 2.133333-12.8 8.533333-27.733333 21.333333-38.4 4.266667-4.266667 10.666667-6.4 14.933333-6.4 10.666667 0 19.2 6.4 21.333334 19.2l-2.133334 8.533333c4.266667-6.4 8.533333-12.8 12.8-17.066667 4.266667-6.4 10.666667-12.8 19.2-19.2l8.533334-6.4 6.4-2.133333 8.533333 10.666667-8.533333 2.133333c-19.2 23.466667-34.133333 51.2-42.666667 76.8l-6.4 8.533333-6.4-4.266666c-12.8-10.666667-17.066667-25.6-19.2-40.533334-8.533333 21.333333-8.533333 42.666667 0 66.133334 2.133333 4.266667 2.133333 8.533333 4.266667 12.8 0 6.4 0 12.8-4.266667 17.066666-8.533333 8.533333-12.8 17.066667-17.066667 32-6.4 23.466667-14.933333 40.533333-29.866666 57.6-2.133333 2.133333-4.266667 4.266667-4.266667 10.666667 8.533333-4.266667 21.333333-8.533333 32-17.066667 4.266667-2.133333 8.533333-4.266667 14.933333-6.4h8.533334c8.533333 0 14.933333-2.133333 21.333333-4.266666l8.533333-4.266667c4.266667-2.133333 6.4-4.266667 10.666667-6.4 36.266667-23.466667 64-53.333333 78.933333-91.733333 6.4-14.933333 12.8-29.866667 21.333334-46.933334l6.4-14.933333c4.266667-10.666667 10.666667-14.933333 21.333333-17.066667 19.2-4.266667 36.266667-14.933333 57.6-25.6-12.8 0-25.6-4.266667-38.4-8.533333-2.133333 0-8.533333-2.133333-8.533333-8.533333-2.133333-4.266667 0-10.666667 4.266666-14.933334 2.133333-2.133333 2.133333-4.266667 4.266667-6.4 8.533333-12.8 21.333333-19.2 34.133333-27.733333 8.533333-4.266667 17.066667-10.666667 27.733334-17.066667l12.8-8.533333 6.4-2.133333 4.266666 6.4v12.8zM665.6 209.066667l-6.4-6.4 21.333333-32 6.4 6.4c8.533333 8.533333 8.533333 17.066667 2.133334 25.6-4.266667 6.4-8.533333 8.533333-14.933334 8.533333-2.133333 0-4.266667 0-8.533333-2.133333z"  horiz-adv-x="1024" />

    
    <glyph glyph-name="arrow-up" unicode="&#59268;" d="M81.69244445 307.76888888999997l-50.51733334 50.51733333c-21.39022222 21.39022222-21.39022222 55.97866667 0 77.14133333L473.31555555 877.79555555c21.39022222 21.39022222 55.97866667 21.39022222 77.14133334 0l442.14044444-442.14044444c21.39022222-21.39022222 21.39022222-55.97866667 0-77.14133333L942.08 307.99644445c-21.61777778-21.61777778-56.88888889-21.16266667-78.05155555 0.91022222L603.02222222 582.88355555V-71.11111111000002c0-30.26488889-24.34844445-54.61333333-54.61333333-54.61333334h-72.81777778c-30.26488889 0-54.61333333 24.34844445-54.61333333 54.61333334V582.88355555L159.744 308.67911111c-21.16266667-22.30044445-56.43377778-22.75555555-78.05155555-0.91022222z"  horiz-adv-x="1024" />

    
    <glyph glyph-name="-chuangjianLxinglianxian" unicode="&#59090;" d="M113.245091 47.569455h664.529454v-66.46691H113.245091zM1019.857455-128h-284.718546v284.672h284.718546z m-199.400728 85.317818h114.036364v114.036364h-114.036364zM113.245091 653.963636h66.466909v-664.529454H113.245091zM288.861091 611.328H4.142545V896h284.718546zM89.460364 696.645818h114.036363v114.036364h-114.036363z"  horiz-adv-x="1024" />

    
    <glyph glyph-name="java1" unicode="&#58910;" d="M64 544H0V896h1024v-352h-64V832H64v-288zM1024-128H0v224h64v-160h896v160h64v-224zM32 768h960v-64H32zM480 160h-64v210.88l-32 32-32-32V160H288v237.12l96 96 96-96V160zM320 320h128v-64h-128zM992 160h-64v210.88l-32 32-32-32V160h-64v237.12l96 96 96-96V160zM832 320h128v-64h-128zM173.12 160H82.88L32 210.88V288h64v-50.88l13.12-13.12h37.76l13.12 13.12V480h64v-269.12L173.12 160zM640 146.88l-96 96V480h64v-210.88l32-32 32 32V480h64v-237.12l-96-96z"  horiz-adv-x="1024" />

    
    </font>
</defs>
</svg>
