<?xml version="1.0" standalone="no"?><!DOCTYPE svg PUBLIC "-//W3C//DTD SVG 1.1//EN" "http://www.w3.org/Graphics/SVG/1.1/DTD/svg11.dtd"><svg t="1551148710301" class="icon" style="" viewBox="0 0 1024 1024" version="1.1" xmlns="http://www.w3.org/2000/svg" p-id="2751" xmlns:xlink="http://www.w3.org/1999/xlink" width="200" height="200"><defs><style type="text/css"></style></defs><path d="M591.418514 446.3616c0 11.483429 6.129371 22.089143 16.062172 27.823543 9.947429 5.7344 22.191543 5.7344 32.124343 0a32.117029 32.117029 0 0 0 16.062171-27.823543c0-11.483429-6.114743-22.089143-16.062171-27.838171a32.14336 32.14336 0 0 0-32.124343 0 32.140434 32.140434 0 0 0-16.062172 27.838171z m-112.479085 0c0 17.744457 14.394514 32.138971 32.138971 32.138971 17.744457 0 32.138971-14.394514 32.138971-32.138971 0-17.744457-14.394514-32.138971-32.138971-32.138971-17.759086 0-32.138971 14.394514-32.138971 32.138971z m-112.479086 0c0 17.744457 14.394514 32.138971 32.138971 32.138971 17.744457 0 32.138971-14.394514 32.138972-32.138971 0-17.744457-14.394514-32.138971-32.138972-32.138971-17.759086 0-32.138971 14.394514-32.138971 32.138971z m0 0" fill="#7488B3" p-id="2752"></path><path d="M908.551314 79.316114H112.7424c-43.139657 0-77.809371 34.669714-77.809371 77.809372v579.320685c0 43.125029 34.669714 77.809371 77.809371 77.809372h367.879314v72.718628H218.448457c-16.062171 0-29.5936 13.531429-29.5936 29.5936s13.531429 29.5936 29.5936 29.5936h584.382172c16.062171 0 29.5936-13.531429 29.5936-29.5936s-13.531429-29.5936-29.5936-29.5936H540.672v-72.718628h367.879314c43.139657 0 77.809371-34.669714 77.809372-77.809372V157.125486c0-43.125029-34.684343-77.809371-77.809372-77.809372z m18.607543 656.2816c0 10.152229-8.455314 18.607543-18.607543 18.607543H112.7424c-10.152229 0-18.607543-8.455314-18.607543-18.607543V157.125486c0-10.152229 8.455314-18.607543 18.607543-18.607543h795.808914c10.152229 0 18.607543 8.455314 18.607543 18.607543v578.472228z m0 0" fill="#7488B3" p-id="2753"></path></svg>