<?xml version="1.0" standalone="no"?><!DOCTYPE svg PUBLIC "-//W3C//DTD SVG 1.1//EN" "http://www.w3.org/Graphics/SVG/1.1/DTD/svg11.dtd"><svg t="1551148698791" class="icon" style="" viewBox="0 0 1024 1024" version="1.1" xmlns="http://www.w3.org/2000/svg" p-id="2624" xmlns:xlink="http://www.w3.org/1999/xlink" width="200" height="200"><defs><style type="text/css"></style></defs><path d="M313.6 857.6H384v108.8H313.6zM486.4 857.6h70.4v108.8H486.4zM652.8 857.6h70.4v108.8h-70.4zM313.6 57.6H384v108.8H313.6zM486.4 57.6h70.4v108.8H486.4zM652.8 57.6h70.4v108.8h-70.4zM57.6 294.4h108.8v70.4H57.6zM57.6 467.2h108.8v70.4H57.6zM57.6 633.6h108.8V704H57.6zM857.6 294.4h108.8v70.4h-108.8zM857.6 467.2h108.8v70.4h-108.8zM857.6 633.6h108.8V704h-108.8z" fill="#337EEE" p-id="2625"></path><path d="M153.6 140.8h729.6v729.6H153.6z" fill="#D5E8FA" p-id="2626"></path><path d="M665.6 358.4v288H377.6z" fill="#337EEE" p-id="2627"></path><path d="M665.6 358.4l-288 288V358.4z" fill="#52C4FF" p-id="2628"></path></svg>