<?xml version="1.0" standalone="no"?><!DOCTYPE svg PUBLIC "-//W3C//DTD SVG 1.1//EN" "http://www.w3.org/Graphics/SVG/1.1/DTD/svg11.dtd"><svg t="1552900095074" class="icon" style="" viewBox="0 0 1024 1024" version="1.1" xmlns="http://www.w3.org/2000/svg" p-id="19536" xmlns:xlink="http://www.w3.org/1999/xlink" width="200" height="200"><defs><style type="text/css"></style></defs><path d="M64 1015.808c-30.72 0-55.808-25.088-55.808-55.808v-896c0-30.72 25.088-55.808 55.808-55.808h896c30.72 0 55.808 25.088 55.808 55.808v896c0 30.72-25.088 55.808-55.808 55.808h-896z" fill="#F5F5F5" p-id="19537"></path><path d="M675.84 547.84l-204.8 235.52h410.112L675.84 547.84z" fill="#C9C9C9" p-id="19538"></path><path d="M621.568 781.824l-271.872-314.368-271.872 314.368H0v169.472c0 32.256 26.112 58.88 58.88 58.88h906.752c32.256 0 58.88-26.624 58.88-58.88V781.824h-402.944zM770.56 300.544c0 42.496 34.816 77.312 77.312 77.312s77.312-34.816 77.312-77.312-34.816-77.312-77.312-77.312-77.312 34.304-77.312 77.312z" fill="#DCDCDC" p-id="19539"></path><path d="M960 15.872c26.624 0 48.128 21.504 48.128 48.128v896c0 26.624-21.504 48.128-48.128 48.128h-896c-26.624 0-48.128-21.504-48.128-48.128v-896c0-26.624 21.504-48.128 48.128-48.128h896m0-15.872h-896C28.672 0 0 28.672 0 64v896c0 35.328 28.672 64 64 64h896c35.328 0 64-28.672 64-64v-896c0-35.328-28.672-64-64-64z" fill="#E5E5E5" p-id="19540"></path></svg>