<?xml version="1.0" standalone="no"?><!DOCTYPE svg PUBLIC "-//W3C//DTD SVG 1.1//EN" "http://www.w3.org/Graphics/SVG/1.1/DTD/svg11.dtd"><svg t="1551148720373" class="icon" style="" viewBox="0 0 1024 1024" version="1.1" xmlns="http://www.w3.org/2000/svg" p-id="2876" xmlns:xlink="http://www.w3.org/1999/xlink" width="200" height="200"><defs><style type="text/css"></style></defs><path d="M551.04 429.568a39.04 39.04 0 1 0-78.08 0 39.04 39.04 0 0 0 78.08 0zM270.08 140.8A78.08 78.08 0 0 0 192 218.88v593.152c0 43.072 34.944 78.08 78.08 78.08h483.84a78.08 78.08 0 0 0 78.08-78.08V218.88a78.08 78.08 0 0 0-78.08-78.08H270.08zM512 218.88a210.624 210.624 0 0 1 143.936 364.608c-21.12-15.936-40.768-31.552-51.968-42.88A85.824 85.824 0 0 0 464 634.88 210.752 210.752 0 0 1 512 218.88z m-241.92 554.112a39.04 39.04 0 1 1 78.08 0 39.04 39.04 0 0 1-78.08 0zM526.848 584.96a24.064 24.064 0 0 1 33.984 0c5.504 5.632 158.976 113.664 176.704 131.456a56.192 56.192 0 0 1 0 79.296 56.192 56.192 0 0 1-79.296 0c-18.688-18.752-126.272-171.712-131.392-176.704a24.128 24.128 0 0 1 0-34.048z" fill="#5B7187" p-id="2877"></path><path d="M128 0h768a64 64 0 0 1 64 64v896a64 64 0 0 1-64 64H128a64 64 0 0 1-64-64V64a64 64 0 0 1 64-64z m0 64v896h768V64H128z" fill="#5B7187" p-id="2878"></path></svg>