<?xml version="1.0" standalone="no"?><!DOCTYPE svg PUBLIC "-//W3C//DTD SVG 1.1//EN" "http://www.w3.org/Graphics/SVG/1.1/DTD/svg11.dtd"><svg t="1551922708548" class="icon" style="" viewBox="0 0 1578 1024" version="1.1" xmlns="http://www.w3.org/2000/svg" p-id="2773" xmlns:xlink="http://www.w3.org/1999/xlink" width="308.203125" height="200"><defs><style type="text/css"></style></defs><path d="M42.802944 981.197056h312.845438v0.142202h-312.845438z" fill="#1296db" p-id="2774"></path><path d="M329.340925 424.616581a127.982225 127.982225 0 1 0-127.982225 127.982225 127.982225 127.982225 0 0 0 127.982225-127.982225z m-213.303708 0a85.321483 85.321483 0 1 1 85.321483 85.321483 85.321483 85.321483 0 0 1-85.321483-85.321483z" fill="#1296db" p-id="2775"></path><path d="M0 0l0.711012 616.447716a112.19775 112.19775 0 0 1 42.660742-38.821275V42.660742H1535.786696v881.655325H431.015692v42.660742H1578.447438V0z" fill="#1296db" p-id="2776"></path><path d="M583.030135 619.860575a63.991112 63.991112 0 0 0-53.752535-116.17942 554.58964 554.58964 0 0 1-114.899597 67.403972c-27.302875 12.371615-53.610332 23.463408-76.078322 32.564366A129.973059 129.973059 0 0 0 275.588391 583.030135a19.623941 19.623941 0 0 0-14.220248 4.834884L199.936675 639.911123l-63.137897-51.903902a20.050549 20.050549 0 0 0-14.220247-4.692681A131.252882 131.252882 0 0 0 0 713.856409V1023.857798h398.166921V713.998611A835.29732 835.29732 0 0 0 479.080128 682.571865 495.29121 495.29121 0 0 0 583.030135 619.860575z m-183.014582 47.353423l-24.032217 10.380781-2.133037 0.853214A31.426746 31.426746 0 0 0 355.50618 711.012359v270.184697H42.660742V718.691293A92.716012 92.716012 0 0 1 127.982225 625.690876a16.637689 16.637689 0 0 1 12.65602 4.550479L199.936675 682.571865l56.880989-51.903902A16.779892 16.779892 0 0 1 270.184697 625.690876a92.716012 92.716012 0 0 1 47.069018 17.348702 31.995556 31.995556 0 0 0 30.715734 3.128454l24.885432-10.096375 61.573671-28.440495a669.915845 669.915845 0 0 0 112.19775-66.266352 21.330371 21.330371 0 1 1 17.917511 38.679073 465.002083 465.002083 0 0 1-106.651854 63.706707c-22.183586 10.38078-41.807527 17.490904-57.876406 23.463408z" fill="#1296db" p-id="2777"></path><path d="M1177.436467 253.1204l40.527705 41.380919-138.363005 138.505208-138.789613-138.64741-168.936537 168.794334 30.146924 30.289126 138.789613-138.789612 138.789613 138.789612 30.146924-30.289126 138.363005-138.505208 43.087349 42.234134v-113.761977h-113.761978zM782.113595 560.846549h42.660742v238.900153h-42.660742z" fill="#1296db" p-id="2778"></path><path d="M913.935287 475.525066h42.660741v326.354673h-42.660741zM1060.119428 534.539092h42.660741v267.198444h-42.660741zM1206.161366 475.525066h42.660742v326.354673h-42.660742z" fill="#1296db" p-id="2779"></path></svg>