<?xml version="1.0" standalone="no"?><!DOCTYPE svg PUBLIC "-//W3C//DTD SVG 1.1//EN" "http://www.w3.org/Graphics/SVG/1.1/DTD/svg11.dtd"><svg t="1551148734726" class="icon" style="" viewBox="0 0 1024 1024" version="1.1" xmlns="http://www.w3.org/2000/svg" p-id="3001" xmlns:xlink="http://www.w3.org/1999/xlink" width="200" height="200"><defs><style type="text/css"></style></defs><path d="M910.3 988.9h-792c-43.6 0-79.2-35.6-79.2-79.2v-792c0-43.6 35.6-79.2 79.2-79.2h792c43.6 0 79.2 35.6 79.2 79.2v792c0 43.5-35.7 79.2-79.2 79.2z" fill="#333333" p-id="3002"></path><path d="M831.2 128c-43.7 0-79.2 35.5-79.2 79.2 0 27.4 13.9 51.6 35.1 65.8L647.5 594.2c-16.4-3-33.6-0.8-48.9 6.6l-138-161c7-11.8 11.1-25.7 11.1-40.4 0-28.3-15.1-54.4-39.6-68.6-24.5-14.1-54.7-14.1-79.2 0s-39.6 40.3-39.6 68.6c0 21.1 8.3 40.3 21.8 54.6l-125 210c-5.8-1.4-11.8-2.1-18-2.1-43.7 0-79.2 35.5-79.2 79.2s35.5 79.2 79.2 79.2 79.2-35.5 79.2-79.2c0-24.6-11.3-46.7-28.9-61.2L371 475.6c6.8 1.9 14 3 21.5 3 14.3 0 27.7-3.8 39.2-10.4l136.2 158.9c-9 13-14 28.6-14 45 0 28.3 15.1 54.4 39.6 68.6 24.5 14.1 54.7 14.1 79.2 0s39.6-40.3 39.6-68.6c0-25.3-12.1-48.9-32.1-63.7l140.1-322.8c3.6 0.5 7.3 0.8 11 0.8 43.7 0 79.2-35.5 79.2-79.2-0.1-43.8-35.5-79.2-79.3-79.2z" fill="#FFFFFF" p-id="3003"></path></svg>