<?xml version="1.0" standalone="no"?><!DOCTYPE svg PUBLIC "-//W3C//DTD SVG 1.1//EN" "http://www.w3.org/Graphics/SVG/1.1/DTD/svg11.dtd"><svg t="1551148792508" class="icon" style="" viewBox="0 0 1024 1024" version="1.1" xmlns="http://www.w3.org/2000/svg" p-id="3550" xmlns:xlink="http://www.w3.org/1999/xlink" width="200" height="200"><defs><style type="text/css"></style></defs><path d="M512 512m-512 0a512 512 0 1 0 1024 0 512 512 0 1 0-1024 0Z" fill="#1296DB" p-id="3551"></path><path d="M156.7744 622.848l0.6656-0.3584 462.7456-455.2704a27.4432 27.4432 0 0 1 38.8096 0l0.4096 0.4096 67.2256 65.9968a26.4704 26.4704 0 0 1 3.584 34.304c-9.0112 16.2304 10.24 33.536 25.6 24.3712a27.2384 27.2384 0 0 1 34.0992 3.4304l76.1856 75.1616a27.0336 27.0336 0 0 1 0 38.2464l-0.512 0.6656-280.0128 275.5072a27.7504 27.7504 0 0 1-39.168 0l-0.4096-0.7168-9.6768-8.7552c-3.2768-3.5328-8.4992 1.9968-4.7104 5.12l9.5232 9.6768a27.0848 27.0848 0 0 1 0.3072 38.2976l-0.3072 0.3072L403.0464 865.28a28.16 28.16 0 0 1-39.424 0l-0.512-0.5632-75.5712-74.6496a27.392 27.392 0 0 1-3.328-34.5088c9.4208-16.1792-10.24-32.6144-25.6-23.552a28.3648 28.3648 0 0 1-34.0992-3.84l-67.7888-66.56a26.9312 26.9312 0 0 1-0.4608-38.0928z m239.6672 156.672a16.5376 16.5376 0 0 1 0-22.9376 17.152 17.152 0 0 1 23.5008 0.3584l7.3216 7.168 23.6032-23.1936-7.424-7.2704a16.5376 16.5376 0 0 1 0-22.9888 16.9472 16.9472 0 0 1 23.3984 0l7.7312 7.3216 9.3184-9.3696c-32.8704-52.736 30.4128-110.4384 80.896-79.8208l11.008-10.9056-7.2192-7.424a15.36 15.36 0 0 1-0.768-21.9648l0.768-0.768a16.4352 16.4352 0 0 1 23.2448 0l7.2192 6.912 23.5008-22.9376-7.2192-7.5264a15.8208 15.8208 0 0 1-0.4096-22.3232l0.4096-0.4096a17.3568 17.3568 0 0 1 23.6032 0l7.3216 7.168 23.3472-23.0912-7.1168-7.168a15.616 15.616 0 0 1-1.0752-22.0672l1.0752-1.0752a17.3056 17.3056 0 0 1 23.5008 0l7.1168 7.5776 23.296-23.3984-7.168-7.3216a15.872 15.872 0 0 1-0.4096-22.4768l0.7168-0.6656a16.896 16.896 0 0 1 23.1936 0.3584l7.2192 7.1168 23.552-23.0912-7.2192-7.0656a15.872 15.872 0 0 1-0.6656-22.4768l0.6656-0.6656a16.896 16.896 0 0 1 23.5008 0l6.9632 7.168 20.8896-19.9168-43.8272-43.2128c-51.2 12.7488-102.4-35.072-89.2416-88.0128L639.5904 225.28l-423.8848 417.1264 35.1232 34.4576c52.3264-13.0048 102.4 35.84 88.832 87.6544l43.9296 42.9056 20.8896-20.48-7.7824-7.3728z m-106.2912-176.2816l62.3104-61.7472a16.7424 16.7424 0 0 1 22.9376 0l87.04 86.1184a15.36 15.36 0 0 1 0 22.9376l-0.9728 0.7168-62.0032 61.44a16.6912 16.6912 0 0 1-23.5008 0l-87.04-85.6064a15.9744 15.9744 0 0 1-0.4096-22.6304l0.4096-0.4096 1.3312-0.6656z m73.4208-26.88l-39.3216 38.7584 63.3856 62.7712 39.9872-39.168zM413.5936 481.28l62.72-61.44a16.1792 16.1792 0 0 1 22.8864-0.4608l0.4608 0.4608 87.04 85.6576a15.616 15.616 0 0 1 0.7168 22.0672l-0.7168 0.7168-63.232 62.2592a16.8448 16.8448 0 0 1-23.5008 0L413.5936 504.4736a15.36 15.36 0 0 1-1.1776-21.9136z m74.3424-27.392l-39.7312 39.2704L512 555.3152l39.7312-38.7584zM538.3168 358.4l62.1056-61.0816a16.7936 16.7936 0 0 1 23.552 0l87.04 85.504a15.8208 15.8208 0 0 1 0.7168 22.3232l-0.7168 0.7168-0.7168 1.024-62.2592 60.928a16.896 16.896 0 0 1-23.1936 0.4608l-0.512-0.4608v0.4608l-87.1424-85.9136a16.2304 16.2304 0 0 1 0-22.9376z m73.9328-26.5216l-39.5776 39.0656 63.3344 62.464 39.8336-38.912z" fill="#FFFFFF" p-id="3552"></path></svg>