<?xml version="1.0" standalone="no"?><!DOCTYPE svg PUBLIC "-//W3C//DTD SVG 1.1//EN" "http://www.w3.org/Graphics/SVG/1.1/DTD/svg11.dtd"><svg t="1552899522241" class="icon" style="" viewBox="0 0 1024 1024" version="1.1" xmlns="http://www.w3.org/2000/svg" p-id="7839" xmlns:xlink="http://www.w3.org/1999/xlink" width="200" height="200"><defs><style type="text/css"></style></defs><path d="M512 405.333333c-170.666667 0-341.333333-51.2-341.333333-149.333333s170.666667-149.333333 341.333333-149.333333 341.333333 51.2 341.333333 149.333333-170.666667 149.333333-341.333333 149.333333z m0-234.666666c-179.2 0-277.333333 55.466667-277.333333 85.333333s98.133333 85.333333 277.333333 85.333333 277.333333-55.466667 277.333333-85.333333-98.133333-85.333333-277.333333-85.333333z" fill="#0171F1" p-id="7840"></path><path d="M512 595.2c-170.666667 0-341.333333-51.2-341.333333-149.333333 0-17.066667 14.933333-32 32-32s32 14.933333 32 32c0 29.866667 98.133333 85.333333 277.333333 85.333333s277.333333-55.466667 277.333333-85.333333c0-17.066667 14.933333-32 32-32s32 14.933333 32 32c0 98.133333-170.666667 149.333333-341.333333 149.333333zM512 768c-170.666667 0-341.333333-51.2-341.333333-149.333333 0-17.066667 14.933333-32 32-32s32 14.933333 32 32c0 29.866667 98.133333 85.333333 277.333333 85.333333 17.066667 0 32 14.933333 32 32S529.066667 768 512 768z" fill="#55ABE5" p-id="7841"></path><path d="M512 942.933333c-170.666667 0-341.333333-51.2-341.333333-149.333333 0-17.066667 14.933333-32 32-32s32 14.933333 32 32c0 29.866667 98.133333 85.333333 277.333333 85.333333 17.066667 0 32 14.933333 32 32s-14.933333 32-32 32z" fill="#0171F1" p-id="7842"></path><path d="M202.666667 810.666667c-17.066667 0-32-14.933333-32-32v-533.333334c0-17.066667 14.933333-32 32-32s32 14.933333 32 32v533.333334c0 17.066667-14.933333 32-32 32zM821.333333 644.266667c-17.066667 0-32-14.933333-32-32V245.333333c0-17.066667 14.933333-32 32-32s32 14.933333 32 32v366.933334c0 17.066667-14.933333 32-32 32z" fill="#0171F1" p-id="7843"></path><path d="M949.333333 962.133333l-10.666666-10.666666c-10.666667-12.8-23.466667-23.466667-38.4-32-2.133333-2.133333-4.266667-2.133333-6.4-2.133334l40.533333-8.533333 6.4-4.266667v-4.266666l-6.4-10.666667c-2.133333-4.266667-6.4-6.4-8.533333-10.666667-23.466667-21.333333-44.8-34.133333-66.133334-42.666666-4.266667-2.133333-6.4-4.266667-8.533333-6.4l-19.2-42.666667-6.4-12.8c-4.266667-8.533333-6.4-14.933333-10.666667-23.466667-17.066667-29.866667-40.533333-55.466667-70.4-76.8-19.2-12.8-40.533333-25.6-70.4-25.6 0 0-2.133333 0-6.4-4.266666-12.8-8.533333-29.866667-19.2-49.066666-19.2-6.4 0-14.933333 2.133333-19.2 8.533333-4.266667 4.266667-6.4 10.666667-6.4 19.2 0 6.4 2.133333 12.8 6.4 19.2 2.133333 4.266667 6.4 8.533333 10.666666 14.933333l6.4 6.4c2.133333 4.266667 6.4 8.533333 6.4 12.8 2.133333 4.266667 2.133333 8.533333 4.266667 14.933334 2.133333 6.4 4.266667 10.666667 6.4 17.066666 2.133333 6.4 6.4 12.8 10.666667 17.066667l6.4 10.666667c-6.4 21.333333-12.8 46.933333-6.4 74.666666 2.133333 12.8 8.533333 27.733333 21.333333 38.4 4.266667 4.266667 10.666667 6.4 14.933333 6.4 10.666667 0 19.2-6.4 21.333334-19.2l-2.133334-8.533333c4.266667 6.4 8.533333 12.8 12.8 17.066667 4.266667 6.4 10.666667 12.8 19.2 19.2l8.533334 6.4 6.4 2.133333 8.533333-10.666667-8.533333-2.133333c-19.2-23.466667-34.133333-51.2-42.666667-76.8l-6.4-8.533333-6.4 4.266666c-12.8 10.666667-17.066667 25.6-19.2 40.533334-8.533333-21.333333-8.533333-42.666667 0-66.133334 2.133333-4.266667 2.133333-8.533333 4.266667-12.8 0-6.4 0-12.8-4.266667-17.066666-8.533333-8.533333-12.8-17.066667-17.066667-32-6.4-23.466667-14.933333-40.533333-29.866666-57.6-2.133333-2.133333-4.266667-4.266667-4.266667-10.666667 8.533333 4.266667 21.333333 8.533333 32 17.066667 4.266667 2.133333 8.533333 4.266667 14.933333 6.4h8.533334c8.533333 0 14.933333 2.133333 21.333333 4.266666l8.533333 4.266667c4.266667 2.133333 6.4 4.266667 10.666667 6.4 36.266667 23.466667 64 53.333333 78.933333 91.733333 6.4 14.933333 12.8 29.866667 21.333334 46.933334l6.4 14.933333c4.266667 10.666667 10.666667 14.933333 21.333333 17.066667 19.2 4.266667 36.266667 14.933333 57.6 25.6-12.8 0-25.6 4.266667-38.4 8.533333-2.133333 0-8.533333 2.133333-8.533333 8.533333-2.133333 4.266667 0 10.666667 4.266666 14.933334 2.133333 2.133333 2.133333 4.266667 4.266667 6.4 8.533333 12.8 21.333333 19.2 34.133333 27.733333 8.533333 4.266667 17.066667 10.666667 27.733334 17.066667l12.8 8.533333 6.4 2.133333 4.266666-6.4v-12.8z" fill="#55ABE5" p-id="7844"></path><path d="M665.6 686.933333l-6.4 6.4 21.333333 32 6.4-6.4c8.533333-8.533333 8.533333-17.066667 2.133334-25.6-4.266667-6.4-8.533333-8.533333-14.933334-8.533333-2.133333 0-4.266667 0-8.533333 2.133333z" fill="#55ABE5" p-id="7845"></path></svg>