<?xml version="1.0" standalone="no"?><!DOCTYPE svg PUBLIC "-//W3C//DTD SVG 1.1//EN" "http://www.w3.org/Graphics/SVG/1.1/DTD/svg11.dtd"><svg t="1551148783343" class="icon" style="" viewBox="0 0 1170 1024" version="1.1" xmlns="http://www.w3.org/2000/svg" p-id="3425" xmlns:xlink="http://www.w3.org/1999/xlink" width="228.515625" height="200"><defs><style type="text/css"></style></defs><path d="M1051.150629 212.348343H909.604571L867.269486 0.526629H303.016229l-42.364343 211.821714H119.135086a118.959543 118.959543 0 0 0-118.608457 118.608457v550.736457a118.959543 118.959543 0 0 0 118.608457 118.608457h932.015543a118.959543 118.959543 0 0 0 118.608457-118.608457V330.9568a118.959543 118.959543 0 0 0-118.608457-118.608457z m50.819657 669.344914c0 27.940571-22.879086 50.819657-50.819657 50.819657H119.135086a50.9952 50.9952 0 0 1-50.819657-50.819657V330.9568c0-27.940571 22.879086-50.819657 50.819657-50.819657h197.4272l42.364343-211.821714h452.432457l42.364343 211.821714h197.4272c27.940571 0 50.819657 22.879086 50.819657 50.819657v550.736457z" fill="#4481EB" p-id="3426"></path><path d="M169.984 830.844343h830.317714V373.321143H169.984v457.5232z m67.7888-389.7344h694.740114V763.026286H813.933714v-135.548343h-67.7888v135.548343h-127.093028v-135.548343h-67.759543v135.548343h-127.093029v-135.548343H356.352v135.548343H237.7728V441.109943z" fill="#4481EB" p-id="3427"></path></svg>