<?xml version="1.0" standalone="no"?><!DOCTYPE svg PUBLIC "-//W3C//DTD SVG 1.1//EN" "http://www.w3.org/Graphics/SVG/1.1/DTD/svg11.dtd"><svg t="1551148771008" class="icon" style="" viewBox="0 0 1024 1024" version="1.1" xmlns="http://www.w3.org/2000/svg" p-id="3300" xmlns:xlink="http://www.w3.org/1999/xlink" width="200" height="200"><defs><style type="text/css"></style></defs><path d="M79 582v262H942V318l-138-82-214 192-78-54-172 164-100-76z" fill="#5CBAEA" p-id="3301"></path><path d="M944 872H80v-72h864v72zM116.53 620a36.044 36.044 0 0 1-25.486-61.528l122.14-122.146a36.042 36.042 0 0 1 50.972 0l64.618 64.62 150.718-150.724a36.04 36.04 0 0 1 50.97 0l50.6 50.6L783.8 198.078a36.04 36.04 0 0 1 50.97 0l98.118 98.122a36.042 36.042 0 1 1-50.968 50.972l-72.628-72.63-202.74 202.74a36.04 36.04 0 0 1-50.97 0l-50.6-50.6-150.72 150.718a36.042 36.042 0 0 1-50.972 0l-64.618-64.62-96.656 96.66A35.93 35.93 0 0 1 116.53 620z" fill="#194F82" p-id="3302"></path></svg>