<?xml version="1.0" standalone="no"?><!DOCTYPE svg PUBLIC "-//W3C//DTD SVG 1.1//EN" "http://www.w3.org/Graphics/SVG/1.1/DTD/svg11.dtd"><svg t="1551167565171" class="icon" style="" viewBox="0 0 1070 1024" version="1.1" xmlns="http://www.w3.org/2000/svg" p-id="1445" xmlns:xlink="http://www.w3.org/1999/xlink" width="208.984375" height="200"><defs><style type="text/css"></style></defs><path d="M604.862745 873.411765H287.372549c-74.039216 0-134.27451-60.235294-134.27451-134.27451V248.470588c0-74.039216 60.235294-134.27451 134.27451-134.27451h37.647059c10.039216 0 18.823529 8.784314 18.823529 18.82353s-8.784314 18.823529-18.823529 18.823529h-37.647059c-52.705882 0-96.627451 43.921569-96.627451 96.627451v490.666667c0 52.705882 43.921569 96.627451 96.627451 96.627451h317.490196c10.039216 0 18.823529 8.784314 18.82353 18.823529s-7.529412 18.823529-18.82353 18.82353zM847.058824 513.254902c-10.039216 0-18.823529-8.784314-18.82353-18.823529V248.470588c0-52.705882-43.921569-96.627451-96.627451-96.627451H503.215686c-10.039216 0-18.823529-8.784314-18.823529-18.823529s8.784314-18.823529 18.823529-18.82353h227.137255c74.039216 0 134.27451 60.235294 134.27451 134.27451v244.705883c1.254902 11.294118-7.529412 20.078431-17.568627 20.078431zM421.647059 153.098039h-5.019608c-10.039216 0-18.823529-8.784314-18.823529-18.823529s8.784314-18.823529 18.823529-18.82353h5.019608c10.039216 0 18.823529 8.784314 18.823529 18.82353s-7.529412 18.823529-18.823529 18.823529z" fill="#1296db" p-id="1446"></path><path d="M549.647059 281.098039H293.647059c-10.039216 0-18.823529-8.784314-18.82353-18.823529s8.784314-18.823529 18.82353-18.82353h256c10.039216 0 18.823529 8.784314 18.823529 18.82353s-7.529412 18.823529-18.823529 18.823529zM712.784314 391.529412H293.647059c-10.039216 0-18.823529-8.784314-18.82353-18.82353s8.784314-18.823529 18.82353-18.823529h419.137255c10.039216 0 18.823529 8.784314 18.823529 18.823529s-8.784314 18.823529-18.823529 18.82353zM503.215686 498.196078H293.647059c-10.039216 0-18.823529-8.784314-18.82353-18.823529s8.784314-18.823529 18.82353-18.823529h209.568627c10.039216 0 18.823529 8.784314 18.82353 18.823529s-7.529412 18.823529-18.82353 18.823529z" fill="#1296db" p-id="1447"></path><path d="M820.705882 888.470588c-85.333333 0-154.352941-69.019608-154.352941-154.352941 0-85.333333 69.019608-154.352941 154.352941-154.352941s154.352941 69.019608 154.352942 154.352941c0 85.333333-69.019608 154.352941-154.352942 154.352941z m0-271.058823c-64 0-116.705882 52.705882-116.705882 116.705882 0 64 52.705882 116.705882 116.705882 116.705882s116.705882-52.705882 116.705883-116.705882c0-64-52.705882-116.705882-116.705883-116.705882z" fill="#1296db" p-id="1448"></path><path d="M858.352941 778.039216h-58.980392c-10.039216 0-18.823529-8.784314-18.823529-18.82353s8.784314-18.823529 18.823529-18.823529h58.980392c10.039216 0 18.823529 8.784314 18.82353 18.823529s-8.784314 18.823529-18.82353 18.82353z" fill="#1296db" p-id="1449"></path><path d="M798.117647 778.039216c-10.039216 0-18.823529-8.784314-18.823529-18.82353v-58.980392c0-10.039216 8.784314-18.823529 18.823529-18.823529s18.823529 8.784314 18.823529 18.823529v58.980392c0 10.039216-8.784314 18.823529-18.823529 18.82353z" fill="#1296db" p-id="1450"></path></svg>