<?xml version="1.0" standalone="no"?><!DOCTYPE svg PUBLIC "-//W3C//DTD SVG 1.1//EN" "http://www.w3.org/Graphics/SVG/1.1/DTD/svg11.dtd"><svg t="1551148747617" class="icon" style="" viewBox="0 0 1025 1024" version="1.1" xmlns="http://www.w3.org/2000/svg" p-id="3175" xmlns:xlink="http://www.w3.org/1999/xlink" width="200.1953125" height="200"><defs><style type="text/css"></style></defs><path d="M518.69696 360.4736c-77.1584 0-140.032 65.34144-140.032 145.69472v152.40704h63.67744V492.95872h31.81056v165.61152h190.99136V512.8704c0-84.0448-65.67936-152.3968-146.44736-152.3968z" fill="#FF8381" p-id="3176"></path><path d="M521.74336 15.90784c-278.10304 0-503.56736 225.44384-503.56736 503.55712 0 278.12352 225.46432 503.57248 503.56736 503.57248 278.11328 0 503.57248-225.44384 503.57248-503.57248 0.00512-278.11328-225.45408-503.55712-503.57248-503.55712z m163.15392 267.51488l24.1408 21.5808-41.088 49.6896-24.1408-21.59616 41.088-49.67424z m12.06272 229.44768v178.82112H346.8288V506.1632c0-98.59072 77.11232-178.82624 171.86304-178.82624 98.28352 0.00512 178.26816 83.23584 178.26816 185.53344zM505.98912 227.968h31.84128v66.24256h-31.84128V227.968zM359.26016 283.84256l38.41024 49.6896-24.82688 20.73088-38.44608-49.68448 24.86272-20.736z m401.36192 474.12736h-477.44v-33.152h477.44v33.152z" fill="#FF8381" p-id="3177"></path></svg>